  0
SECTION
  2
HEADER
  9
$ACADVER
  1
AC1015
  9
$ACADMAINTVER
 70
     6
  9
$DWGCODEPAGE
  3
DOS932
  9
$INSBASE
 10
0.0
 20
0.0
 30
0.0
  9
$EXTMIN
 10
0.0
 20
0.0
 30
0.0
  9
$EXTMAX
 10
840.0
 20
594.0
 30
0.0
  9
$LIMMIN
 10
0.0
 20
0.0
  9
$LIMMAX
 10
840.0
 20
594.0
  9
$ORTHOMODE
 70
     0
  9
$REGENMODE
 70
     1
  9
$FILLMODE
 70
     1
  9
$QTEXTMODE
 70
     0
  9
$MIRRTEXT
 70
     1
  9
$LTSCALE
 40
2.0
  9
$ATTMODE
 70
     1
  9
$TEXTSIZE
 40
7.0
  9
$TRACEWID
 40
1.0
  9
$TEXTSTYLE
  7
Standard
  9
$CLAYER
  8
0
  9
$CELTYPE
  6
ByLayer
  9
$CECOLOR
 62
   256
  9
$CELTSCALE
 40
1.0
  9
$DISPSILH
 70
     0
  9
$DIMSCALE
 40
1.0
  9
$DIMASZ
 40
7.112
  9
$DIMEXO
 40
2.0
  9
$DIMDLI
 40
3.75
  9
$DIMRND
 40
0.0
  9
$DIMDLE
 40
0.0
  9
$DIMEXE
 40
2.0
  9
$DIMTP
 40
0.0
  9
$DIMTM
 40
0.0
  9
$DIMTXT
 40
7.0
  9
$DIMCEN
 40
2.5
  9
$DIMTSZ
 40
0.0
  9
$DIMTOL
 70
     0
  9
$DIMLIM
 70
     0
  9
$DIMTIH
 70
     1
  9
$DIMTOH
 70
     1
  9
$DIMSE1
 70
     0
  9
$DIMSE2
 70
     0
  9
$DIMTAD
 70
     1
  9
$DIMZIN
 70
     1
  9
$DIMBLK
  1

  9
$DIMASO
 70
     1
  9
$DIMSHO
 70
     1
  9
$DIMPOST
  1

  9
$DIMAPOST
  1

  9
$DIMALT
 70
     0
  9
$DIMALTD
 70
     3
  9
$DIMALTF
 40
0.0393700787
  9
$DIMLFAC
 40
1.0
  9
$DIMTOFL
 70
     1
  9
$DIMTVP
 40
0.0
  9
$DIMTIX
 70
     0
  9
$DIMSOXD
 70
     0
  9
$DIMSAH
 70
     0
  9
$DIMBLK1
  1

  9
$DIMBLK2
  1

  9
$DIMSTYLE
  2
ISO-25
  9
$DIMCLRD
 70
     0
  9
$DIMCLRE
 70
     0
  9
$DIMCLRT
 70
     0
  9
$DIMTFAC
 40
1.0
  9
$DIMGAP
 40
3.048
  9
$DIMJUST
 70
     0
  9
$DIMSD1
 70
     0
  9
$DIMSD2
 70
     0
  9
$DIMTOLJ
 70
     0
  9
$DIMTZIN
 70
     1
  9
$DIMALTZ
 70
     0
  9
$DIMALTTZ
 70
     0
  9
$DIMUPT
 70
     0
  9
$DIMDEC
 70
     2
  9
$DIMTDEC
 70
     2
  9
$DIMALTU
 70
     2
  9
$DIMALTTD
 70
     3
  9
$DIMTXSTY
  7
Standard
  9
$DIMAUNIT
 70
     0
  9
$DIMADEC
 70
     2
  9
$DIMALTRND
 40
0.0
  9
$DIMAZIN
 70
     0
  9
$DIMDSEP
 70
    44
  9
$DIMATFIT
 70
     3
  9
$DIMFRAC
 70
     0
  9
$DIMLDRBLK
  1

  9
$DIMLUNIT
 70
     2
  9
$DIMLWD
 70
    -2
  9
$DIMLWE
 70
    -2
  9
$DIMTMOVE
 70
     0
  9
$LUNITS
 70
     2
  9
$LUPREC
 70
     2
  9
$SKETCHINC
 40
1.0
  9
$FILLETRAD
 40
0.0
  9
$AUNITS
 70
     0
  9
$AUPREC
 70
     2
  9
$MENU
  1
.
  9
$ELEVATION
 40
0.0
  9
$PELEVATION
 40
0.0
  9
$THICKNESS
 40
0.0
  9
$LIMCHECK
 70
     0
  9
$CHAMFERA
 40
0.0
  9
$CHAMFERB
 40
0.0
  9
$CHAMFERC
 40
0.0
  9
$CHAMFERD
 40
0.0
  9
$SKPOLY
 70
     0
  9
$TDCREATE
 40
2460326.745292084
  9
$TDUCREATE
 40
2460326.370292084
  9
$TDUPDATE
 40
2460326.745295
  9
$TDUUPDATE
 40
2460326.370295
  9
$TDINDWG
 40
0.0000000116
  9
$TDUSRTIMER
 40
0.0000000116
  9
$USRTIMER
 70
     1
  9
$ANGBASE
 50
0.0
  9
$ANGDIR
 70
     0
  9
$PDMODE
 70
     0
  9
$PDSIZE
 40
-1.0
  9
$PLINEWID
 40
0.0
  9
$SPLFRAME
 70
     0
  9
$SPLINETYPE
 70
     6
  9
$SPLINESEGS
 70
     8
  9
$HANDSEED
  5
35F
  9
$SURFTAB1
 70
     6
  9
$SURFTAB2
 70
     6
  9
$SURFTYPE
 70
     6
  9
$SURFU
 70
     6
  9
$SURFV
 70
     6
  9
$UCSBASE
  2

  9
$UCSNAME
  2

  9
$UCSORG
 10
0.0
 20
0.0
 30
0.0
  9
$UCSXDIR
 10
1.0
 20
0.0
 30
0.0
  9
$UCSYDIR
 10
0.0
 20
1.0
 30
0.0
  9
$UCSORTHOREF
  2

  9
$UCSORTHOVIEW
 70
     0
  9
$UCSORGTOP
 10
0.0
 20
0.0
 30
0.0
  9
$UCSORGBOTTOM
 10
0.0
 20
0.0
 30
0.0
  9
$UCSORGLEFT
 10
0.0
 20
0.0
 30
0.0
  9
$UCSORGRIGHT
 10
0.0
 20
0.0
 30
0.0
  9
$UCSORGFRONT
 10
0.0
 20
0.0
 30
0.0
  9
$UCSORGBACK
 10
0.0
 20
0.0
 30
0.0
  9
$PUCSBASE
  2

  9
$PUCSNAME
  2

  9
$PUCSORG
 10
0.0
 20
0.0
 30
0.0
  9
$PUCSXDIR
 10
1.0
 20
0.0
 30
0.0
  9
$PUCSYDIR
 10
0.0
 20
1.0
 30
0.0
  9
$PUCSORTHOREF
  2

  9
$PUCSORTHOVIEW
 70
     0
  9
$PUCSORGTOP
 10
0.0
 20
0.0
 30
0.0
  9
$PUCSORGBOTTOM
 10
0.0
 20
0.0
 30
0.0
  9
$PUCSORGLEFT
 10
0.0
 20
0.0
 30
0.0
  9
$PUCSORGRIGHT
 10
0.0
 20
0.0
 30
0.0
  9
$PUCSORGFRONT
 10
0.0
 20
0.0
 30
0.0
  9
$PUCSORGBACK
 10
0.0
 20
0.0
 30
0.0
  9
$USERI1
 70
     0
  9
$USERI2
 70
     0
  9
$USERI3
 70
     0
  9
$USERI4
 70
     0
  9
$USERI5
 70
     0
  9
$USERR1
 40
0.0
  9
$USERR2
 40
0.0
  9
$USERR3
 40
0.0
  9
$USERR4
 40
0.0
  9
$USERR5
 40
0.0
  9
$WORLDVIEW
 70
     1
  9
$SHADEDGE
 70
     3
  9
$SHADEDIF
 70
    70
  9
$TILEMODE
 70
     1
  9
$MAXACTVP
 70
    64
  9
$PINSBASE
 10
0.0
 20
0.0
 30
0.0
  9
$PLIMCHECK
 70
     0
  9
$PEXTMIN
 10
1.0000000000E+20
 20
1.0000000000E+20
 30
1.0000000000E+20
  9
$PEXTMAX
 10
-1.0000000000E+20
 20
-1.0000000000E+20
 30
-1.0000000000E+20
  9
$PLIMMIN
 10
0.0
 20
0.0
  9
$PLIMMAX
 10
420.0
 20
297.0
  9
$UNITMODE
 70
     0
  9
$VISRETAIN
 70
     1
  9
$PLINEGEN
 70
     0
  9
$PSLTSCALE
 70
     1
  9
$TREEDEPTH
 70
  3020
  9
$CMLSTYLE
  2
Standard
  9
$CMLJUST
 70
     0
  9
$CMLSCALE
 40
20.0
  9
$PROXYGRAPHICS
 70
     1
  9
$MEASUREMENT
 70
     1
  9
$CELWEIGHT
370
    -1
  9
$ENDCAPS
280
     0
  9
$JOINSTYLE
280
     0
  9
$LWDISPLAY
290
     1
  9
$INSUNITS
 70
     4
  9
$HYPERLINKBASE
  1

  9
$STYLESHEET
  1

  9
$XEDIT
290
     1
  9
$CEPSNTYPE
380
     0
  9
$PSTYLEMODE
290
     1
  9
$FINGERPRINTGUID
  2
{3b44315f-8855-4657-824f-7929b59ab32d}
  9
$VERSIONGUID
  2
{FAEB1C32-E019-11D5-929B-00C0DF256EC4}
  9
$EXTNAMES
290
     1
  9
$PSVPSCALE
 40
0.0
  9
$OLESTARTUP
290
     0
  0
ENDSEC
  0
SECTION
  2
CLASSES
  0
CLASS
  1
ACDBDICTIONARYWDFLT
  2
AcDbDictionaryWithDefault
  3
ObjectDBX Classes
 90
        0
280
     0
281
     0
  0
CLASS
  1
VISUALSTYLE
  2
AcDbVisualStyle
  3
ObjectDBX Classes
 90
     4095
280
     0
281
     0
  0
CLASS
  1
MATERIAL
  2
AcDbMaterial
  3
ObjectDBX Classes
 90
     1153
280
     0
281
     0
  0
CLASS
  1
SCALE
  2
AcDbScale
  3
ObjectDBX Classes
 90
     1153
280
     0
281
     0
  0
CLASS
  1
TABLESTYLE
  2
AcDbTableStyle
  3
ObjectDBX Classes
 90
     4095
280
     0
281
     0
  0
CLASS
  1
MLEADERSTYLE
  2
AcDbMLeaderStyle
  3
ACDB_MLEADERSTYLE_CLASS
 90
     4095
280
     0
281
     0
  0
CLASS
  1
SUN
  2
AcDbSun
  3
SCENEOE
 90
     1153
280
     0
281
     0
  0
CLASS
  1
ACDBPLACEHOLDER
  2
AcDbPlaceHolder
  3
ObjectDBX Classes
 90
        0
280
     0
281
     0
  0
CLASS
  1
LAYOUT
  2
AcDbLayout
  3
ObjectDBX Classes
 90
        0
280
     0
281
     0
  0
ENDSEC
  0
SECTION
  2
TABLES
  0
TABLE
  2
VPORT
  5
8
330
0
100
AcDbSymbolTable
 70
     1
  0
VPORT
  5
29
330
8
100
AcDbSymbolTableRecord
100
AcDbViewportTableRecord
  2
*Active
 70
     0
 10
0.0
 20
0.0
 11
1.0
 21
1.0
 12
420.0
 22
297.0
 13
0.0
 23
0.0
 14
10.0
 24
10.0
 15
10.0
 25
10.0
 16
0.0
 26
0.0
 36
1.0
 17
0.0
 27
0.0
 37
0.0
 40
594.0
 41
1.4141414141
 42
50.0
 43
0.0
 44
0.0
 50
0.0
 51
0.0
 71
     0
 72
  2000
 73
     1
 74
     3
 75
     0
 76
     0
 77
     0
 78
     0
281
     0
 65
     1
110
0.0
120
0.0
130
0.0
111
1.0
121
0.0
131
0.0
112
0.0
122
1.0
132
0.0
 79
     0
146
0.0
  0
ENDTAB
  0
TABLE
  2
LTYPE
  5
5
330
0
100
AcDbSymbolTable
 70
     6
  0
LTYPE
  5
14
330
5
100
AcDbSymbolTableRecord
100
AcDbLinetypeTableRecord
  2
ByBlock
 70
     0
  3

 72
    65
 73
     0
 40
0.0
  0
LTYPE
  5
15
330
5
100
AcDbSymbolTableRecord
100
AcDbLinetypeTableRecord
  2
ByLayer
 70
     0
  3

 72
    65
 73
     0
 40
0.0
  0
LTYPE
  5
16
330
5
100
AcDbSymbolTableRecord
100
AcDbLinetypeTableRecord
  2
Continuous
 70
     0
  3
Solid line
 72
    65
 73
     0
 40
0.0
  0
LTYPE
  5
5E
330
5
100
AcDbSymbolTableRecord
100
AcDbLinetypeTableRecord
  2
HIDDEN
 70
     0
  3
Hidden __ __ __ __ __ __ __ __ __ __ __ __ __ __
 72
    65
 73
     2
 40
1.905
 49
1.27
 74
     0
 49
-0.635
 74
     0
  0
LTYPE
  5
5F
330
5
100
AcDbSymbolTableRecord
100
AcDbLinetypeTableRecord
  2
PHANTOM
 70
     0
  3
Phantom ______  __  __  ______  __  __  ______
 72
    65
 73
     6
 40
12.7
 49
6.35
 74
     0
 49
-1.27
 74
     0
 49
1.27
 74
     0
 49
-1.27
 74
     0
 49
1.27
 74
     0
 49
-1.27
 74
     0
  0
LTYPE
  5
60
330
5
100
AcDbSymbolTableRecord
100
AcDbLinetypeTableRecord
  2
CENTER
 70
     0
  3
Center ____ _ ____ _ ____ _ ____ _ ____ _ ____
 72
    65
 73
     4
 40
10.16
 49
6.35
 74
     0
 49
-1.27
 74
     0
 49
1.27
 74
     0
 49
-1.27
 74
     0
  0
LTYPE
  5
61
330
5
100
AcDbSymbolTableRecord
100
AcDbLinetypeTableRecord
  2
CENTERX2
 70
     0
  3
Center (2x) ________  __  ________  __  _____
 72
    65
 73
     4
 40
20.32
 49
12.7
 74
     0
 49
-2.54
 74
     0
 49
2.54
 74
     0
 49
-2.54
 74
     0
  0
LTYPE
  5
62
330
5
100
AcDbSymbolTableRecord
100
AcDbLinetypeTableRecord
  2
DOT2
 70
     0
  3
Dot (.5x) ........................................
 72
    65
 73
     2
 40
0.635
 49
0.0
 74
     0
 49
-0.635
 74
     0
  0
ENDTAB
  0
TABLE
  2
LAYER
  5
2
330
0
100
AcDbSymbolTable
 70
     2
  0
LAYER
  5
10
330
2
100
AcDbSymbolTableRecord
100
AcDbLayerTableRecord
  2
0
 70
     0
 62
     7
  6
Continuous
370
    -3
390
F
  0
LAYER
  5
63
330
2
100
AcDbSymbolTableRecord
100
AcDbLayerTableRecord
  2
FORMAT
 70
     0
 62
     7
  6
Continuous
370
    -3
390
F
  0
ENDTAB
  0
TABLE
  2
STYLE
  5
3
330
0
100
AcDbSymbolTable
 70
     3
  0
STYLE
  5
11
330
3
100
AcDbSymbolTableRecord
100
AcDbTextStyleTableRecord
  2
Standard
 70
     0
 40
0.0
 41
1.0
 50
0.0
 71
     0
 42
7.0
  3
txt
  4
bigfont
  0
STYLE
  5
9D
330
3
100
AcDbSymbolTableRecord
100
AcDbTextStyleTableRecord
  2
SLDTEXTSTYLE0
 70
     0
 40
0.0
 41
0.75
 50
0.0
 71
     0
 42
7.0
  3
TXT
  4
bigfont
  0
STYLE
  5
C0
330
3
100
AcDbSymbolTableRecord
100
AcDbTextStyleTableRecord
  2
SLDTEXTSTYLE1
 70
     0
 40
0.0
 41
0.65625
 50
0.0
 71
     0
 42
7.0
  3
TXT
  4
bigfont
  0
ENDTAB
  0
TABLE
  2
VIEW
  5
6
330
0
100
AcDbSymbolTable
 70
     0
  0
ENDTAB
  0
TABLE
  2
UCS
  5
7
330
0
100
AcDbSymbolTable
 70
     0
  0
ENDTAB
  0
TABLE
  2
APPID
  5
9
330
0
100
AcDbSymbolTable
 70
     1
  0
APPID
  5
12
330
9
100
AcDbSymbolTableRecord
100
AcDbRegAppTableRecord
  2
ACAD
 70
     0
  0
ENDTAB
  0
TABLE
  2
DIMSTYLE
  5
A
330
0
100
AcDbSymbolTable
 70
    11
100
AcDbDimStyleTable
  0
DIMSTYLE
105
27
330
A
100
AcDbSymbolTableRecord
100
AcDbDimStyleTableRecord
  2
ISO-25
 70
     0
 41
2.5
 42
0.625
 43
3.75
 44
1.25
 73
     0
 74
     0
 77
     1
 78
     8
140
2.5
141
2.5
143
0.0393700787
147
0.625
171
     3
172
     1
178
     0
271
     2
272
     2
274
     3
278
    44
283
     0
284
     8
340
11
  0
DIMSTYLE
105
12E
102
{ACAD_REACTORS
330
12D
330
1DD
330
2A7
330
350
102
}
330
A
100
AcDbSymbolTableRecord
100
AcDbDimStyleTableRecord
  2
SLDDIMSTYLE0
 70
     0
 41
7.112
 44
0.0
 45
0.000000001
 73
     0
 74
     0
 77
     1
 78
    12
 79
     3
140
7.0
147
1.75
172
     1
173
     1
178
     0
271
     0
272
     0
276
     2
284
    12
289
     0
340
9D
341
12F
343
12F
344
12F
  0
DIMSTYLE
105
142
102
{ACAD_REACTORS
330
141
102
}
330
A
100
AcDbSymbolTableRecord
100
AcDbDimStyleTableRecord
  2
SLDDIMSTYLE1
 70
     0
 41
7.112
 44
0.0
 45
0.000000001
 47
0.018
 71
     1
 73
     0
 74
     0
 77
     1
 78
     4
 79
     1
140
7.0
141
0.0
147
1.75
172
     1
173
     1
178
     0
271
     2
272
     2
276
     2
340
9D
341
143
343
143
344
12F
  0
DIMSTYLE
105
157
102
{ACAD_REACTORS
330
156
102
}
330
A
100
AcDbSymbolTableRecord
100
AcDbDimStyleTableRecord
  2
SLDDIMSTYLE2
 70
     0
 41
7.112
 44
0.0
 45
0.000000001
 73
     0
 74
     0
 77
     1
 78
     4
 79
     1
140
7.0
141
0.0
147
1.75
172
     1
173
     1
178
     0
271
     2
272
     2
276
     2
284
    12
340
9D
341
143
343
143
344
12F
  0
DIMSTYLE
105
162
102
{ACAD_REACTORS
330
161
102
}
330
A
100
AcDbSymbolTableRecord
100
AcDbDimStyleTableRecord
  2
SLDDIMSTYLE3
 70
     0
 41
7.112
 44
0.0
 45
0.000000001
 73
     0
 74
     0
 77
     1
 78
    12
 79
     3
140
7.0
147
1.75
173
     1
178
     0
271
     1
272
     1
276
     2
284
    12
340
9D
341
12F
343
12F
344
12F
  0
DIMSTYLE
105
16D
102
{ACAD_REACTORS
330
16C
102
}
330
A
100
AcDbSymbolTableRecord
100
AcDbDimStyleTableRecord
  2
SLDDIMSTYLE4
 70
     0
 41
7.112
 44
0.0
 45
0.000000001
 47
0.02
 71
     1
 73
     0
 74
     0
 77
     1
 78
     4
 79
     1
140
7.0
147
1.75
172
     1
173
     1
178
     0
271
     2
272
     2
276
     2
289
     0
340
9D
341
12F
343
12F
344
12F
  0
DIMSTYLE
105
17F
102
{ACAD_REACTORS
330
17E
102
}
330
A
100
AcDbSymbolTableRecord
100
AcDbDimStyleTableRecord
  2
SLDDIMSTYLE5
 70
     0
 41
7.112
 44
0.0
 45
0.000000001
 73
     0
 74
     0
 77
     1
 78
    12
 79
     3
140
7.0
147
1.75
173
     1
178
     0
271
     0
272
     0
276
     2
284
    12
340
9D
341
12F
343
12F
344
12F
  0
DIMSTYLE
105
27D
102
{ACAD_REACTORS
330
27C
330
302
102
}
330
A
100
AcDbSymbolTableRecord
100
AcDbDimStyleTableRecord
  2
SLDDIMSTYLE6
 70
     0
 41
7.112
 44
0.0
 45
0.000000001
 73
     0
 74
     0
 77
     1
 78
     4
 79
     1
140
7.0
147
1.75
172
     1
173
     1
178
     0
271
     1
272
     1
276
     2
284
    12
289
     0
340
9D
341
12F
343
12F
344
12F
  0
DIMSTYLE
105
28A
102
{ACAD_REACTORS
330
289
102
}
330
A
100
AcDbSymbolTableRecord
100
AcDbDimStyleTableRecord
  2
SLDDIMSTYLE7
 70
     0
 41
7.112
 44
0.0
 45
0.000000001
 73
     0
 74
     0
 77
     1
 78
    12
 79
     3
140
7.0
147
1.75
172
     1
173
     1
178
     0
271
     1
272
     1
276
     2
284
    12
289
     0
340
9D
341
12F
343
12F
344
12F
  0
DIMSTYLE
105
295
102
{ACAD_REACTORS
330
294
102
}
330
A
100
AcDbSymbolTableRecord
100
AcDbDimStyleTableRecord
  2
SLDDIMSTYLE8
 70
     0
  3
<>
 41
7.112
 44
0.0
 45
0.000000001
 73
     0
 74
     0
 77
     1
 78
    12
 79
     3
140
7.0
141
0.0
147
1.75
172
     1
173
     1
178
     0
271
     2
272
     2
276
     2
284
    12
340
9D
341
143
343
143
344
12F
  0
DIMSTYLE
105
2F9
102
{ACAD_REACTORS
330
2F8
102
}
330
A
100
AcDbSymbolTableRecord
100
AcDbDimStyleTableRecord
  2
SLDDIMSTYLE9
 70
     0
 41
7.112
 44
0.0
 45
0.000000001
 73
     0
 74
     0
 77
     1
 78
    12
 79
     3
140
7.0
141
0.0
147
1.75
172
     1
173
     1
178
     0
271
     1
272
     1
276
     2
284
    12
340
9D
341
143
343
143
344
12F
  0
ENDTAB
  0
TABLE
  2
BLOCK_RECORD
  5
1
330
0
100
AcDbSymbolTable
 70
    27
  0
BLOCK_RECORD
  5
1F
330
1
100
AcDbSymbolTableRecord
100
AcDbBlockTableRecord
  2
*Model_Space
340
22
  0
BLOCK_RECORD
  5
1B
330
1
100
AcDbSymbolTableRecord
100
AcDbBlockTableRecord
  2
*Paper_Space
340
1E
  0
BLOCK_RECORD
  5
23
330
1
100
AcDbSymbolTableRecord
100
AcDbBlockTableRecord
  2
*Paper_Space0
340
26
  0
BLOCK_RECORD
  5
12F
330
1
100
AcDbSymbolTableRecord
100
AcDbBlockTableRecord
  2
_Closed
340
0
102
{BLKREFS
331
139
331
13A
331
149
331
15B
331
166
331
167
331
171
331
172
331
183
331
184
331
1E1
331
1E2
331
281
331
282
331
28E
331
28F
331
299
331
2AB
331
2AC
331
2FD
331
306
331
307
331
356
331
357
331
258
331
25A
102
}
  0
BLOCK_RECORD
  5
136
330
1
100
AcDbSymbolTableRecord
100
AcDbBlockTableRecord
  2
_D
340
0
  0
BLOCK_RECORD
  5
143
330
1
100
AcDbSymbolTableRecord
100
AcDbBlockTableRecord
  2
_None
340
0
  0
BLOCK_RECORD
  5
146
330
1
100
AcDbSymbolTableRecord
100
AcDbBlockTableRecord
  2
_D_1
340
0
  0
BLOCK_RECORD
  5
158
330
1
100
AcDbSymbolTableRecord
100
AcDbBlockTableRecord
  2
_D_2
340
0
  0
BLOCK_RECORD
  5
163
330
1
100
AcDbSymbolTableRecord
100
AcDbBlockTableRecord
  2
_D_3
340
0
  0
BLOCK_RECORD
  5
16E
330
1
100
AcDbSymbolTableRecord
100
AcDbBlockTableRecord
  2
_D_4
340
0
  0
BLOCK_RECORD
  5
180
330
1
100
AcDbSymbolTableRecord
100
AcDbBlockTableRecord
  2
_D_5
340
0
  0
BLOCK_RECORD
  5
189
330
1
100
AcDbSymbolTableRecord
100
AcDbBlockTableRecord
  2
SW_CENTERMARKSYMBOL_0
340
0
102
{BLKREFS
331
194
102
}
  0
BLOCK_RECORD
  5
195
330
1
100
AcDbSymbolTableRecord
100
AcDbBlockTableRecord
  2
SW_CENTERMARKSYMBOL_1
340
0
102
{BLKREFS
331
1A0
102
}
  0
BLOCK_RECORD
  5
1A1
330
1
100
AcDbSymbolTableRecord
100
AcDbBlockTableRecord
  2
SW_DOWELSYMBOL_0
340
0
102
{BLKREFS
331
1A7
102
}
  0
BLOCK_RECORD
  5
1DE
330
1
100
AcDbSymbolTableRecord
100
AcDbBlockTableRecord
  2
_D_6
340
0
  0
BLOCK_RECORD
  5
23E
330
1
100
AcDbSymbolTableRecord
100
AcDbBlockTableRecord
  2
SW_CENTERMARKSYMBOL_2
340
0
102
{BLKREFS
331
249
102
}
  0
BLOCK_RECORD
  5
24A
330
1
100
AcDbSymbolTableRecord
100
AcDbBlockTableRecord
  2
SW_CENTERMARKSYMBOL_3
340
0
102
{BLKREFS
331
255
102
}
  0
BLOCK_RECORD
  5
25D
330
1
100
AcDbSymbolTableRecord
100
AcDbBlockTableRecord
  2
SW_DOWELSYMBOL_1
340
0
102
{BLKREFS
331
263
102
}
  0
BLOCK_RECORD
  5
27E
330
1
100
AcDbSymbolTableRecord
100
AcDbBlockTableRecord
  2
_D_7
340
0
  0
BLOCK_RECORD
  5
28B
330
1
100
AcDbSymbolTableRecord
100
AcDbBlockTableRecord
  2
_D_8
340
0
  0
BLOCK_RECORD
  5
296
330
1
100
AcDbSymbolTableRecord
100
AcDbBlockTableRecord
  2
_D_9
340
0
  0
BLOCK_RECORD
  5
29E
330
1
100
AcDbSymbolTableRecord
100
AcDbBlockTableRecord
  2
SW_SYMBOL_HOLE_DEPTH
340
0
102
{BLKREFS
331
2A5
102
}
  0
BLOCK_RECORD
  5
2A8
330
1
100
AcDbSymbolTableRecord
100
AcDbBlockTableRecord
  2
_D_10
340
0
  0
BLOCK_RECORD
  5
2B3
330
1
100
AcDbSymbolTableRecord
100
AcDbBlockTableRecord
  2
SW_CENTERMARKSYMBOL_4
340
0
102
{BLKREFS
331
2BE
102
}
  0
BLOCK_RECORD
  5
2BF
330
1
100
AcDbSymbolTableRecord
100
AcDbBlockTableRecord
  2
SW_CENTERMARKSYMBOL_5
340
0
102
{BLKREFS
331
2CA
102
}
  0
BLOCK_RECORD
  5
2FA
330
1
100
AcDbSymbolTableRecord
100
AcDbBlockTableRecord
  2
_D_11
340
0
  0
BLOCK_RECORD
  5
303
330
1
100
AcDbSymbolTableRecord
100
AcDbBlockTableRecord
  2
_D_12
340
0
  0
BLOCK_RECORD
  5
30E
330
1
100
AcDbSymbolTableRecord
100
AcDbBlockTableRecord
  2
SW_CENTERMARKSYMBOL_6
340
0
102
{BLKREFS
331
319
102
}
  0
BLOCK_RECORD
  5
351
330
1
100
AcDbSymbolTableRecord
100
AcDbBlockTableRecord
  2
_D_13
340
0
  0
ENDTAB
  0
ENDSEC
  0
SECTION
  2
BLOCKS
  0
BLOCK
  5
20
330
1F
100
AcDbEntity
  8
0
100
AcDbBlockBegin
  2
*Model_Space
 70
     0
 10
0.0
 20
0.0
 30
0.0
  3
*Model_Space
  1

  0
ENDBLK
  5
21
330
1F
100
AcDbEntity
  8
0
100
AcDbBlockEnd
  0
BLOCK
  5
1C
330
1B
100
AcDbEntity
 67
     1
  8
0
100
AcDbBlockBegin
  2
*Paper_Space
 70
     0
 10
0.0
 20
0.0
 30
0.0
  3
*Paper_Space
  1

  0
ENDBLK
  5
1D
330
1B
100
AcDbEntity
 67
     1
  8
0
100
AcDbBlockEnd
  0
BLOCK
  5
24
330
23
100
AcDbEntity
  8
0
100
AcDbBlockBegin
  2
*Paper_Space0
 70
     0
 10
0.0
 20
0.0
 30
0.0
  3
*Paper_Space0
  1

  0
ENDBLK
  5
25
330
23
100
AcDbEntity
  8
0
100
AcDbBlockEnd
  0
BLOCK
  5
130
330
12F
100
AcDbEntity
  8
0
100
AcDbBlockBegin
  2
_Closed
 70
     0
 10
0.0
 20
0.0
 30
0.0
  3
_Closed
  1

  0
LINE
  5
132
330
12F
100
AcDbEntity
  8
0
  6
ByBlock
 62
     0
370
    -2
100
AcDbLine
 10
-1.0
 20
0.166667
 30
0.0
 11
0.0
 21
0.0
 31
0.0
  0
LINE
  5
133
330
12F
100
AcDbEntity
  8
0
  6
ByBlock
 62
     0
370
    -2
100
AcDbLine
 10
0.0
 20
0.0
 30
0.0
 11
-1.0
 21
-0.166667
 31
0.0
  0
LINE
  5
134
330
12F
100
AcDbEntity
  8
0
  6
ByBlock
 62
     0
370
    -2
100
AcDbLine
 10
-1.0
 20
0.166667
 30
0.0
 11
-1.0
 21
-0.166667
 31
0.0
  0
LINE
  5
135
330
12F
100
AcDbEntity
  8
0
  6
ByBlock
 62
     0
370
    -2
100
AcDbLine
 10
0.0
 20
0.0
 30
0.0
 11
-1.0
 21
0.0
 31
0.0
  0
ENDBLK
  5
131
330
12F
100
AcDbEntity
  8
0
100
AcDbBlockEnd
  0
BLOCK
  5
137
330
136
100
AcDbEntity
  8
0
100
AcDbBlockBegin
  2
_D
 70
     0
 10
0.0
 20
0.0
 30
0.0
  3
_D
  1

  0
INSERT
  5
139
330
136
100
AcDbEntity
  8
0
  6
Continuous
 62
     7
370
    18
100
AcDbBlockReference
  2
_Closed
 10
124.1960878565
 20
310.2486147653
 30
0.0
 41
7.112
 42
7.112
 50
0.0
  0
INSERT
  5
13A
330
136
100
AcDbEntity
  8
0
  6
Continuous
 62
     7
370
    18
100
AcDbBlockReference
  2
_Closed
 10
126.1960878565
 20
310.2486147653
 30
0.0
 41
7.112
 42
7.112
 50
180.0
  0
LINE
  5
13B
330
136
100
AcDbEntity
  8
0
  6
Continuous
 62
     7
370
     0
100
AcDbLine
 10
124.1960878565
 20
326.9413264515
 30
0.0
 11
124.1960878565
 21
308.2486147653
 31
0.0
  0
LINE
  5
13C
330
136
100
AcDbEntity
  8
0
  6
Continuous
 62
     7
370
     0
100
AcDbLine
 10
126.1960878565
 20
326.9413264515
 30
0.0
 11
126.1960878565
 21
308.2486147653
 31
0.0
  0
LINE
  5
13D
330
136
100
AcDbEntity
  8
0
  6
Continuous
 62
     7
370
     0
100
AcDbLine
 10
124.1960878565
 20
310.2486147653
 30
0.0
 11
111.4960878565
 21
310.2486147653
 31
0.0
  0
LINE
  5
13E
330
136
100
AcDbEntity
  8
0
  6
Continuous
 62
     7
370
     0
100
AcDbLine
 10
124.1960878565
 20
310.2486147653
 30
0.0
 11
126.1960878565
 21
310.2486147653
 31
0.0
  0
LINE
  5
13F
330
136
100
AcDbEntity
  8
0
  6
Continuous
 62
     7
370
     0
100
AcDbLine
 10
126.1960878565
 20
310.2486147653
 30
0.0
 11
143.4868118568
 21
310.2486147653
 31
0.0
  0
MTEXT
  5
140
330
136
100
AcDbEntity
  8
0
  6
Continuous
 62
     7
370
    18
100
AcDbMText
 10
138.3145894698
 20
319.2720885945
 30
0.0
 40
7.0
 41
0.0
 71
     1
 72
     1
  1
2
  7
SLDTEXTSTYLE0
 73
     1
 44
1.0
  0
ENDBLK
  5
138
330
136
100
AcDbEntity
  8
0
100
AcDbBlockEnd
  0
BLOCK
  5
144
330
143
100
AcDbEntity
  8
0
100
AcDbBlockBegin
  2
_None
 70
     0
 10
0.0
 20
0.0
 30
0.0
  3
_None
  1

  0
ENDBLK
  5
145
330
143
100
AcDbEntity
  8
0
100
AcDbBlockEnd
  0
BLOCK
  5
147
330
146
100
AcDbEntity
  8
0
100
AcDbBlockBegin
  2
_D_1
 70
     0
 10
0.0
 20
0.0
 30
0.0
  3
_D_1
  1

  0
INSERT
  5
149
330
146
100
AcDbEntity
  8
0
  6
Continuous
 62
     7
370
    18
100
AcDbBlockReference
  2
_Closed
 10
224.7253096908
 20
326.5828542448
 30
-5.0
 41
7.112
 42
7.112
 50
109.3713068429
  0
LINE
  5
14A
330
146
100
AcDbEntity
  8
0
  6
Continuous
 62
     7
370
     0
100
AcDbLine
 10
224.7253096908
 20
326.5828542448
 30
0.0
 11
251.8123172222
 21
249.542004882
 31
0.0
  0
LINE
  5
14B
330
146
100
AcDbEntity
  8
0
  6
Continuous
 62
     7
370
     0
100
AcDbLine
 10
224.7253096908
 20
326.5828542448
 30
0.0
 11
223.0668660222
 21
331.2997986581
 31
0.0
  0
MTEXT
  5
14C
330
146
100
AcDbEntity
  8
0
  6
Continuous
 62
     7
370
    18
100
AcDbMText
 10
237.2564804743
 20
317.7164172982
 30
0.0
 40
7.0
 41
0.0
 71
     1
 72
     1
  1
%%c
  7
SLDTEXTSTYLE0
 11
0.3316887337167599
 21
-0.9433888826594112
 31
0.0
 73
     1
 44
1.0
  0
MTEXT
  5
14D
330
146
100
AcDbEntity
  8
0
  6
Continuous
 62
     7
370
    18
100
AcDbMText
 10
240.8589670216
 20
307.7926512164
 30
0.0
 40
7.0
 41
0.0
 71
     1
 72
     1
  1
5.00
  7
SLDTEXTSTYLE0
 11
0.3316887337167599
 21
-0.9433888826594112
 31
0.0
 73
     1
 44
1.0
  0
MTEXT
  5
14E
330
146
100
AcDbEntity
  8
0
  6
Continuous
 62
     7
370
    18
100
AcDbMText
 10
247.7341374996
 20
288.238295774
 30
0.0
 40
7.0
 41
0.0
 71
     1
 72
     1
  1

  7
SLDTEXTSTYLE0
 11
0.3316887337167599
 21
-0.9433888826594112
 31
0.0
 73
     1
 44
1.0
  0
MTEXT
  5
14F
330
146
100
AcDbEntity
  8
0
  6
Continuous
 62
     7
370
    18
100
AcDbMText
 10
256.1593282966
 20
291.2417543609
 30
0.0
 40
7.0
 41
0.0
 71
     1
 72
     1
  1
H8
  7
SLDTEXTSTYLE0
 11
0.3316887337167599
 21
-0.9433888826594112
 31
0.0
 73
     1
 44
1.0
  0
MTEXT
  5
150
330
146
100
AcDbEntity
  8
0
  6
Continuous
 62
     7
370
    18
100
AcDbMText
 10
249.9776418632
 20
281.5348982748
 30
0.0
 40
7.0
 41
0.0
 71
     1
 72
     1
  1

  7
SLDTEXTSTYLE0
 11
0.3316887337167599
 21
-0.9433888826594112
 31
0.0
 73
     1
 44
1.0
  0
MTEXT
  5
151
330
146
100
AcDbEntity
  8
0
  6
Continuous
 62
     7
370
    18
100
AcDbMText
 10
252.4229257597
 20
274.9024472266
 30
0.0
 40
7.0
 41
0.0
 71
     1
 72
     1
  1

  7
SLDTEXTSTYLE0
 11
0.3316887337167599
 21
-0.9433888826594112
 31
0.0
 73
     1
 44
1.0
  0
MTEXT
  5
152
330
146
100
AcDbEntity
  8
0
  6
Continuous
 62
     7
370
    18
100
AcDbMText
 10
260.8481165567
 20
277.9059058135
 30
0.0
 40
7.0
 41
0.0
 71
     1
 72
     1
  1
+
  7
SLDTEXTSTYLE0
 11
0.3316887337167599
 21
-0.9433888826594112
 31
0.0
 73
     1
 44
1.0
  0
MTEXT
  5
153
330
146
100
AcDbEntity
  8
0
  6
Continuous
 62
     7
370
    18
100
AcDbMText
 10
253.6893303818
 20
270.9781161824
 30
0.0
 40
7.0
 41
0.0
 71
     1
 72
     1
  1

  7
SLDTEXTSTYLE0
 11
0.3316887337167599
 21
-0.9433888826594112
 31
0.0
 73
     1
 44
1.0
  0
MTEXT
  5
154
330
146
100
AcDbEntity
  8
0
  6
Continuous
 62
     7
370
    18
100
AcDbMText
 10
262.7249228541
 20
272.5678945521
 30
0.0
 40
7.0
 41
0.0
 71
     1
 72
     1
  1
0.02
  7
SLDTEXTSTYLE0
 11
0.3316887337167599
 21
-0.9433888826594112
 31
0.0
 73
     1
 44
1.0
  0
MTEXT
  5
155
330
146
100
AcDbEntity
  8
0
  6
Continuous
 62
     7
370
    18
100
AcDbMText
 10
254.1859430414
 20
269.5656507761
 30
0.0
 40
7.0
 41
0.0
 71
     1
 72
     1
  1
0.00
  7
SLDTEXTSTYLE0
 11
0.3316887337167599
 21
-0.9433888826594112
 31
0.0
 73
     1
 44
1.0
  0
ENDBLK
  5
148
330
146
100
AcDbEntity
  8
0
100
AcDbBlockEnd
  0
BLOCK
  5
159
330
158
100
AcDbEntity
  8
0
100
AcDbBlockBegin
  2
_D_2
 70
     0
 10
0.0
 20
0.0
 30
0.0
  3
_D_2
  1

  0
INSERT
  5
15B
330
158
100
AcDbEntity
  8
0
  6
Continuous
 62
     7
370
    18
100
AcDbBlockReference
  2
_Closed
 10
156.0757626138
 20
331.3428616585
 30
-5.0
 41
7.112
 42
7.112
 50
295.00922909
  0
LINE
  5
15C
330
158
100
AcDbEntity
  8
0
  6
Continuous
 62
     7
370
     0
100
AcDbLine
 10
156.0757626138
 20
331.3428616585
 30
0.0
 11
128.6414531293
 21
390.1511948104
 31
0.0
  0
LINE
  5
15D
330
158
100
AcDbEntity
  8
0
  6
Continuous
 62
     7
370
     0
100
AcDbLine
 10
156.0757626138
 20
331.3428616585
 30
0.0
 11
158.3164130991
 21
326.5397912444
 31
0.0
  0
MTEXT
  5
15E
330
158
100
AcDbEntity
  8
0
  6
Continuous
 62
     7
370
    18
100
AcDbMText
 10
136.8805990731
 20
393.9947875054
 30
0.0
 40
7.0
 41
0.0
 71
     1
 72
     1
  1
2x
  7
SLDTEXTSTYLE0
 11
0.4227642425092541
 21
-0.9062397007721393
 31
0.0
 73
     1
 44
1.0
  0
MTEXT
  5
15F
330
158
100
AcDbEntity
  8
0
  6
Continuous
 62
     7
370
    18
100
AcDbMText
 10
141.9584335434
 20
382.8569497443
 30
0.0
 40
7.0
 41
0.0
 71
     1
 72
     1
  1
%%c
  7
SLDTEXTSTYLE0
 11
0.4227642425092541
 21
-0.9062397007721393
 31
0.0
 73
     1
 44
1.0
  0
MTEXT
  5
160
330
158
100
AcDbEntity
  8
0
  6
Continuous
 62
     7
370
    18
100
AcDbMText
 10
146.5184199388
 20
373.335102936
 30
0.0
 40
7.0
 41
0.0
 71
     1
 72
     1
  1
5.30
  7
SLDTEXTSTYLE0
 11
0.4227642425092541
 21
-0.9062397007721393
 31
0.0
 73
     1
 44
1.0
  0
ENDBLK
  5
15A
330
158
100
AcDbEntity
  8
0
100
AcDbBlockEnd
  0
BLOCK
  5
164
330
163
100
AcDbEntity
  8
0
100
AcDbBlockBegin
  2
_D_3
 70
     0
 10
0.0
 20
0.0
 30
0.0
  3
_D_3
  1

  0
INSERT
  5
166
330
163
100
AcDbEntity
  8
0
  6
Continuous
 62
     7
370
    18
100
AcDbBlockReference
  2
_Closed
 10
125.1960878565
 20
305.3201374626
 30
-5.0
 41
7.112
 42
7.112
 50
180.0
  0
INSERT
  5
167
330
163
100
AcDbEntity
  8
0
  6
Continuous
 62
     7
370
    18
100
AcDbBlockReference
  2
_Closed
 10
223.8960878565
 20
305.3201374626
 30
-5.0
 41
7.112
 42
7.112
 50
0.0
  0
LINE
  5
168
330
163
100
AcDbEntity
  8
0
  6
Continuous
 62
     7
370
     0
100
AcDbLine
 10
125.1960878565
 20
326.9413264515
 30
0.0
 11
125.1960878565
 21
303.3201374626
 31
0.0
  0
LINE
  5
169
330
163
100
AcDbEntity
  8
0
  6
Continuous
 62
     7
370
     0
100
AcDbLine
 10
223.8960878565
 20
326.9413264515
 30
0.0
 11
223.8960878565
 21
303.3201374626
 31
0.0
  0
LINE
  5
16A
330
163
100
AcDbEntity
  8
0
  6
Continuous
 62
     7
370
     0
100
AcDbLine
 10
125.1960878565
 20
305.3201374626
 30
0.0
 11
223.8960878565
 21
305.3201374626
 31
0.0
  0
MTEXT
  5
16B
330
163
100
AcDbEntity
  8
0
  6
Continuous
 62
     7
370
    18
100
AcDbMText
 10
165.8045735499
 20
314.3436112917
 30
0.0
 40
7.0
 41
0.0
 71
     1
 72
     1
  1
98.7
  7
SLDTEXTSTYLE0
 73
     1
 44
1.0
  0
ENDBLK
  5
165
330
163
100
AcDbEntity
  8
0
100
AcDbBlockEnd
  0
BLOCK
  5
16F
330
16E
100
AcDbEntity
  8
0
100
AcDbBlockBegin
  2
_D_4
 70
     0
 10
0.0
 20
0.0
 30
0.0
  3
_D_4
  1

  0
INSERT
  5
171
330
16E
100
AcDbEntity
  8
0
  6
Continuous
 62
     7
370
    18
100
AcDbBlockReference
  2
_Closed
 10
108.3185583726
 20
331.4413264515
 30
-5.0
 41
7.112
 42
7.112
 50
270.0
  0
INSERT
  5
172
330
16E
100
AcDbEntity
  8
0
  6
Continuous
 62
     7
370
    18
100
AcDbBlockReference
  2
_Closed
 10
108.3185583726
 20
326.4413264515
 30
-5.0
 41
7.112
 42
7.112
 50
90.0
  0
LINE
  5
173
330
16E
100
AcDbEntity
  8
0
  6
Continuous
 62
     7
370
     0
100
AcDbLine
 10
122.1960878565
 20
331.4413264515
 30
0.0
 11
106.3185583726
 21
331.4413264515
 31
0.0
  0
LINE
  5
174
330
16E
100
AcDbEntity
  8
0
  6
Continuous
 62
     7
370
     0
100
AcDbLine
 10
122.1960878565
 20
326.4413264515
 30
0.0
 11
106.3185583726
 21
326.4413264515
 31
0.0
  0
LINE
  5
175
330
16E
100
AcDbEntity
  8
0
  6
Continuous
 62
     7
370
     0
100
AcDbLine
 10
108.3185583726
 20
331.4413264515
 30
0.0
 11
108.3185583726
 21
344.1413264515
 31
0.0
  0
LINE
  5
176
330
16E
100
AcDbEntity
  8
0
  6
Continuous
 62
     7
370
     0
100
AcDbLine
 10
108.3185583726
 20
331.4413264515
 30
0.0
 11
108.3185583726
 21
326.4413264515
 31
0.0
  0
LINE
  5
177
330
16E
100
AcDbEntity
  8
0
  6
Continuous
 62
     7
370
     0
100
AcDbLine
 10
108.3185583726
 20
326.4413264515
 30
0.0
 11
108.3185583726
 21
269.3357241874
 31
0.0
  0
MTEXT
  5
178
330
16E
100
AcDbEntity
  8
0
  6
Continuous
 62
     7
370
    18
100
AcDbMText
 10
99.1881398409
 20
269.3357241874
 30
0.0
 40
7.0
 41
0.0
 71
     1
 72
     1
  1
5.00
  7
SLDTEXTSTYLE0
 11
-7.044195017643634E-15
 21
1.0
 31
0.0
 73
     1
 44
1.0
  0
MTEXT
  5
179
330
16E
100
AcDbEntity
  8
0
  6
Continuous
 62
     7
370
    18
100
AcDbMText
 10
99.1881398409
 20
290.0635023092
 30
0.0
 40
7.0
 41
0.0
 71
     1
 72
     1
  1

  7
SLDTEXTSTYLE0
 11
-7.044195017643634E-15
 21
1.0
 31
0.0
 73
     1
 44
1.0
  0
MTEXT
  5
17A
330
16E
100
AcDbEntity
  8
0
  6
Continuous
 62
     7
370
    18
100
AcDbMText
 10
90.2436951333
 20
290.0246137355
 30
0.0
 40
7.0
 41
0.0
 71
     1
 72
     1
  1
+
  7
SLDTEXTSTYLE0
 11
-7.044195017643634E-15
 21
1.0
 31
0.0
 73
     1
 44
1.0
  0
MTEXT
  5
17B
330
16E
100
AcDbEntity
  8
0
  6
Continuous
 62
     7
370
    18
100
AcDbMText
 10
99.2950841942
 20
294.1857247337
 30
0.0
 40
7.0
 41
0.0
 71
     1
 72
     1
  1

  7
SLDTEXTSTYLE0
 11
-7.044195017643634E-15
 21
1.0
 31
0.0
 73
     1
 44
1.0
  0
MTEXT
  5
17C
330
16E
100
AcDbEntity
  8
0
  6
Continuous
 62
     7
370
    18
100
AcDbMText
 10
90.2436951333
 20
295.6829478567
 30
0.0
 40
7.0
 41
0.0
 71
     1
 72
     1
  1
0.02
  7
SLDTEXTSTYLE0
 11
-7.044195017643634E-15
 21
1.0
 31
0.0
 73
     1
 44
1.0
  0
MTEXT
  5
17D
330
16E
100
AcDbEntity
  8
0
  6
Continuous
 62
     7
370
    18
100
AcDbMText
 10
99.2950841942
 20
295.6829478567
 30
0.0
 40
7.0
 41
0.0
 71
     1
 72
     1
  1
0.00
  7
SLDTEXTSTYLE0
 11
-7.044195017643634E-15
 21
1.0
 31
0.0
 73
     1
 44
1.0
  0
ENDBLK
  5
170
330
16E
100
AcDbEntity
  8
0
100
AcDbBlockEnd
  0
BLOCK
  5
181
330
180
100
AcDbEntity
  8
0
100
AcDbBlockBegin
  2
_D_5
 70
     0
 10
0.0
 20
0.0
 30
0.0
  3
_D_5
  1

  0
INSERT
  5
183
330
180
100
AcDbEntity
  8
0
  6
Continuous
 62
     7
370
    18
100
AcDbBlockReference
  2
_Closed
 10
98.8346422492
 20
321.4413264515
 30
-5.0
 41
7.112
 42
7.112
 50
270.0
  0
INSERT
  5
184
330
180
100
AcDbEntity
  8
0
  6
Continuous
 62
     7
370
    18
100
AcDbBlockReference
  2
_Closed
 10
98.8346422492
 20
405.4413264515
 30
-5.0
 41
7.112
 42
7.112
 50
90.0
  0
LINE
  5
185
330
180
100
AcDbEntity
  8
0
  6
Continuous
 62
     7
370
     0
100
AcDbLine
 10
114.3960878565
 20
321.4413264515
 30
0.0
 11
96.8346422492
 21
321.4413264515
 31
0.0
  0
LINE
  5
186
330
180
100
AcDbEntity
  8
0
  6
Continuous
 62
     7
370
     0
100
AcDbLine
 10
123.3960878565
 20
405.4413264515
 30
0.0
 11
96.8346422492
 21
405.4413264515
 31
0.0
  0
LINE
  5
187
330
180
100
AcDbEntity
  8
0
  6
Continuous
 62
     7
370
     0
100
AcDbLine
 10
98.8346422492
 20
321.4413264515
 30
0.0
 11
98.8346422492
 21
405.4413264515
 31
0.0
  0
MTEXT
  5
188
330
180
100
AcDbEntity
  8
0
  6
Continuous
 62
     7
370
    18
100
AcDbMText
 10
89.81116842
 20
356.7583045973
 30
0.0
 40
7.0
 41
0.0
 71
     1
 72
     1
  1
84
  7
SLDTEXTSTYLE0
 11
6.123233995736766E-17
 21
1.0
 31
0.0
 73
     1
 44
1.0
  0
ENDBLK
  5
182
330
180
100
AcDbEntity
  8
0
100
AcDbBlockEnd
  0
BLOCK
  5
18A
330
189
100
AcDbEntity
  8
0
100
AcDbBlockBegin
  2
SW_CENTERMARKSYMBOL_0
 70
     0
 10
0.0
 20
0.0
 30
0.0
  3
SW_CENTERMARKSYMBOL_0
  1

  0
LINE
  5
18C
330
189
100
AcDbEntity
  8
0
  6
Continuous
 62
     0
370
    18
100
AcDbLine
 10
0.0
 20
0.0
 30
0.0
 11
0.0
 21
2.5
 31
0.0
  0
LINE
  5
18D
330
189
100
AcDbEntity
  8
0
  6
Continuous
 62
     0
370
    18
100
AcDbLine
 10
0.0
 20
0.0
 30
0.0
 11
-2.5
 21
0.0
 31
0.0
  0
LINE
  5
18E
330
189
100
AcDbEntity
  8
0
  6
Continuous
 62
     0
370
    18
100
AcDbLine
 10
0.0
 20
0.0
 30
0.0
 11
0.0
 21
-2.5
 31
0.0
  0
LINE
  5
18F
330
189
100
AcDbEntity
  8
0
  6
Continuous
 62
     0
370
    18
100
AcDbLine
 10
0.0
 20
0.0
 30
0.0
 11
2.5
 21
0.0
 31
0.0
  0
LINE
  5
190
330
189
100
AcDbEntity
  8
0
  6
Continuous
 62
     0
370
    18
100
AcDbLine
 10
0.0
 20
5.0
 30
0.0
 11
0.0
 21
5.15
 31
0.0
  0
LINE
  5
191
330
189
100
AcDbEntity
  8
0
  6
Continuous
 62
     0
370
    18
100
AcDbLine
 10
-5.0
 20
0.0
 30
0.0
 11
-5.15
 21
0.0
 31
0.0
  0
LINE
  5
192
330
189
100
AcDbEntity
  8
0
  6
Continuous
 62
     0
370
    18
100
AcDbLine
 10
0.0
 20
-5.0
 30
0.0
 11
0.0
 21
-5.15
 31
0.0
  0
LINE
  5
193
330
189
100
AcDbEntity
  8
0
  6
Continuous
 62
     0
370
    18
100
AcDbLine
 10
5.0
 20
0.0
 30
0.0
 11
5.15
 21
0.0
 31
0.0
  0
ENDBLK
  5
18B
330
189
100
AcDbEntity
  8
0
100
AcDbBlockEnd
  0
BLOCK
  5
196
330
195
100
AcDbEntity
  8
0
100
AcDbBlockBegin
  2
SW_CENTERMARKSYMBOL_1
 70
     0
 10
0.0
 20
0.0
 30
0.0
  3
SW_CENTERMARKSYMBOL_1
  1

  0
LINE
  5
198
330
195
100
AcDbEntity
  8
0
  6
Continuous
 62
     0
370
    18
100
AcDbLine
 10
0.0
 20
0.0
 30
0.0
 11
0.0
 21
2.5
 31
0.0
  0
LINE
  5
199
330
195
100
AcDbEntity
  8
0
  6
Continuous
 62
     0
370
    18
100
AcDbLine
 10
0.0
 20
0.0
 30
0.0
 11
-2.5
 21
0.0
 31
0.0
  0
LINE
  5
19A
330
195
100
AcDbEntity
  8
0
  6
Continuous
 62
     0
370
    18
100
AcDbLine
 10
0.0
 20
0.0
 30
0.0
 11
0.0
 21
-2.5
 31
0.0
  0
LINE
  5
19B
330
195
100
AcDbEntity
  8
0
  6
Continuous
 62
     0
370
    18
100
AcDbLine
 10
0.0
 20
0.0
 30
0.0
 11
2.5
 21
0.0
 31
0.0
  0
LINE
  5
19C
330
195
100
AcDbEntity
  8
0
  6
Continuous
 62
     0
370
    18
100
AcDbLine
 10
0.0
 20
5.0
 30
0.0
 11
0.0
 21
5.15
 31
0.0
  0
LINE
  5
19D
330
195
100
AcDbEntity
  8
0
  6
Continuous
 62
     0
370
    18
100
AcDbLine
 10
-5.0
 20
0.0
 30
0.0
 11
-5.15
 21
0.0
 31
0.0
  0
LINE
  5
19E
330
195
100
AcDbEntity
  8
0
  6
Continuous
 62
     0
370
    18
100
AcDbLine
 10
0.0
 20
-5.0
 30
0.0
 11
0.0
 21
-5.15
 31
0.0
  0
LINE
  5
19F
330
195
100
AcDbEntity
  8
0
  6
Continuous
 62
     0
370
    18
100
AcDbLine
 10
5.0
 20
0.0
 30
0.0
 11
5.15
 21
0.0
 31
0.0
  0
ENDBLK
  5
197
330
195
100
AcDbEntity
  8
0
100
AcDbBlockEnd
  0
BLOCK
  5
1A2
330
1A1
100
AcDbEntity
  8
0
100
AcDbBlockBegin
  2
SW_DOWELSYMBOL_0
 70
     0
 10
0.0
 20
0.0
 30
0.0
  3
SW_DOWELSYMBOL_0
  1

  0
CIRCLE
  5
1A4
330
1A1
100
AcDbEntity
  8
0
  6
Continuous
 62
     0
370
     0
100
AcDbCircle
 10
0.0
 20
0.0
 30
0.0
 40
2.500000000000002
  0
HATCH
  5
1A5
330
1A1
100
AcDbEntity
  8
0
  6
Continuous
 62
     0
370
     0
100
AcDbHatch
 10
0.0
 20
0.0
 30
0.0
210
0.0
220
0.0
230
1.0
  2
SOLID
 70
     1
 71
     0
 91
        1
 92
        0
 93
        3
 72
     2
 10
0.0
 20
0.0
 40
2.500000000000002
 50
0.0
 51
90.0
 73
     1
 72
     1
 10
0.0
 20
2.500000000000002
 11
0.0
 21
0.0
 72
     1
 10
0.0
 20
0.0
 11
2.500000000000002
 21
0.0
 97
        0
 75
     0
 76
     1
 98
        1
 10
0.0
 20
0.0
  0
HATCH
  5
1A6
330
1A1
100
AcDbEntity
  8
0
  6
Continuous
 62
     0
370
     0
100
AcDbHatch
 10
0.0
 20
0.0
 30
0.0
210
0.0
220
0.0
230
1.0
  2
SOLID
 70
     1
 71
     0
 91
        1
 92
        0
 93
        3
 72
     2
 10
0.0
 20
0.0
 40
2.500000000000002
 50
180.0
 51
270.0000000000008
 73
     1
 72
     1
 10
0.0
 20
-2.500000000000002
 11
0.0
 21
0.0
 72
     1
 10
0.0
 20
0.0
 11
-2.500000000000002
 21
0.0
 97
        0
 75
     0
 76
     1
 98
        1
 10
0.0
 20
0.0
  0
ENDBLK
  5
1A3
330
1A1
100
AcDbEntity
  8
0
100
AcDbBlockEnd
  0
BLOCK
  5
1DF
330
1DE
100
AcDbEntity
  8
0
100
AcDbBlockBegin
  2
_D_6
 70
     0
 10
0.0
 20
0.0
 30
0.0
  3
_D_6
  1

  0
INSERT
  5
1E1
330
1DE
100
AcDbEntity
  8
0
  6
Continuous
 62
     7
370
    18
100
AcDbBlockReference
  2
_Closed
 10
345.9189317041
 20
311.5198136095
 30
0.0
 41
7.112
 42
7.112
 50
0.0
  0
INSERT
  5
1E2
330
1DE
100
AcDbEntity
  8
0
  6
Continuous
 62
     7
370
    18
100
AcDbBlockReference
  2
_Closed
 10
355.9189317041
 20
311.5198136095
 30
0.0
 41
7.112
 42
7.112
 50
180.0
  0
LINE
  5
1E3
330
1DE
100
AcDbEntity
  8
0
  6
Continuous
 62
     7
370
     0
100
AcDbLine
 10
345.9189317041
 20
320.4413264515
 30
0.0
 11
345.9189317041
 21
309.5198136095
 31
0.0
  0
LINE
  5
1E4
330
1DE
100
AcDbEntity
  8
0
  6
Continuous
 62
     7
370
     0
100
AcDbLine
 10
355.9189317041
 20
320.4413264515
 30
0.0
 11
355.9189317041
 21
309.5198136095
 31
0.0
  0
LINE
  5
1E5
330
1DE
100
AcDbEntity
  8
0
  6
Continuous
 62
     7
370
     0
100
AcDbLine
 10
345.9189317041
 20
311.5198136095
 30
0.0
 11
333.2189317041
 21
311.5198136095
 31
0.0
  0
LINE
  5
1E6
330
1DE
100
AcDbEntity
  8
0
  6
Continuous
 62
     7
370
     0
100
AcDbLine
 10
345.9189317041
 20
311.5198136095
 30
0.0
 11
355.9189317041
 21
311.5198136095
 31
0.0
  0
LINE
  5
1E7
330
1DE
100
AcDbEntity
  8
0
  6
Continuous
 62
     7
370
     0
100
AcDbLine
 10
355.9189317041
 20
311.5198136095
 30
0.0
 11
376.8550257488
 21
311.5198136095
 31
0.0
  0
MTEXT
  5
1E8
330
1DE
100
AcDbEntity
  8
0
  6
Continuous
 62
     7
370
    18
100
AcDbMText
 10
366.5105809747
 20
320.5432874386
 30
0.0
 40
7.0
 41
0.0
 71
     1
 72
     1
  1
10
  7
SLDTEXTSTYLE0
 73
     1
 44
1.0
  0
ENDBLK
  5
1E0
330
1DE
100
AcDbEntity
  8
0
100
AcDbBlockEnd
  0
BLOCK
  5
23F
330
23E
100
AcDbEntity
  8
0
100
AcDbBlockBegin
  2
SW_CENTERMARKSYMBOL_2
 70
     0
 10
0.0
 20
0.0
 30
0.0
  3
SW_CENTERMARKSYMBOL_2
  1

  0
LINE
  5
241
330
23E
100
AcDbEntity
  8
0
  6
Continuous
 62
     0
370
    18
100
AcDbLine
 10
0.0
 20
0.0
 30
0.0
 11
0.0
 21
2.5
 31
0.0
  0
LINE
  5
242
330
23E
100
AcDbEntity
  8
0
  6
Continuous
 62
     0
370
    18
100
AcDbLine
 10
0.0
 20
0.0
 30
0.0
 11
-2.5
 21
0.0
 31
0.0
  0
LINE
  5
243
330
23E
100
AcDbEntity
  8
0
  6
Continuous
 62
     0
370
    18
100
AcDbLine
 10
0.0
 20
0.0
 30
0.0
 11
0.0
 21
-2.5
 31
0.0
  0
LINE
  5
244
330
23E
100
AcDbEntity
  8
0
  6
Continuous
 62
     0
370
    18
100
AcDbLine
 10
0.0
 20
0.0
 30
0.0
 11
2.5
 21
0.0
 31
0.0
  0
LINE
  5
245
330
23E
100
AcDbEntity
  8
0
  6
Continuous
 62
     0
370
    18
100
AcDbLine
 10
0.0
 20
5.0
 30
0.0
 11
0.0
 21
5.15
 31
0.0
  0
LINE
  5
246
330
23E
100
AcDbEntity
  8
0
  6
Continuous
 62
     0
370
    18
100
AcDbLine
 10
-5.0
 20
0.0
 30
0.0
 11
-5.15
 21
0.0
 31
0.0
  0
LINE
  5
247
330
23E
100
AcDbEntity
  8
0
  6
Continuous
 62
     0
370
    18
100
AcDbLine
 10
0.0
 20
-5.0
 30
0.0
 11
0.0
 21
-5.15
 31
0.0
  0
LINE
  5
248
330
23E
100
AcDbEntity
  8
0
  6
Continuous
 62
     0
370
    18
100
AcDbLine
 10
5.0
 20
0.0
 30
0.0
 11
5.15
 21
0.0
 31
0.0
  0
ENDBLK
  5
240
330
23E
100
AcDbEntity
  8
0
100
AcDbBlockEnd
  0
BLOCK
  5
24B
330
24A
100
AcDbEntity
  8
0
100
AcDbBlockBegin
  2
SW_CENTERMARKSYMBOL_3
 70
     0
 10
0.0
 20
0.0
 30
0.0
  3
SW_CENTERMARKSYMBOL_3
  1

  0
LINE
  5
24D
330
24A
100
AcDbEntity
  8
0
  6
Continuous
 62
     0
370
    18
100
AcDbLine
 10
0.0
 20
0.0
 30
0.0
 11
0.0
 21
2.5
 31
0.0
  0
LINE
  5
24E
330
24A
100
AcDbEntity
  8
0
  6
Continuous
 62
     0
370
    18
100
AcDbLine
 10
0.0
 20
0.0
 30
0.0
 11
-2.5
 21
0.0
 31
0.0
  0
LINE
  5
24F
330
24A
100
AcDbEntity
  8
0
  6
Continuous
 62
     0
370
    18
100
AcDbLine
 10
0.0
 20
0.0
 30
0.0
 11
0.0
 21
-2.5
 31
0.0
  0
LINE
  5
250
330
24A
100
AcDbEntity
  8
0
  6
Continuous
 62
     0
370
    18
100
AcDbLine
 10
0.0
 20
0.0
 30
0.0
 11
2.5
 21
0.0
 31
0.0
  0
LINE
  5
251
330
24A
100
AcDbEntity
  8
0
  6
Continuous
 62
     0
370
    18
100
AcDbLine
 10
0.0
 20
5.0
 30
0.0
 11
0.0
 21
5.15
 31
0.0
  0
LINE
  5
252
330
24A
100
AcDbEntity
  8
0
  6
Continuous
 62
     0
370
    18
100
AcDbLine
 10
-5.0
 20
0.0
 30
0.0
 11
-5.15
 21
0.0
 31
0.0
  0
LINE
  5
253
330
24A
100
AcDbEntity
  8
0
  6
Continuous
 62
     0
370
    18
100
AcDbLine
 10
0.0
 20
-5.0
 30
0.0
 11
0.0
 21
-5.15
 31
0.0
  0
LINE
  5
254
330
24A
100
AcDbEntity
  8
0
  6
Continuous
 62
     0
370
    18
100
AcDbLine
 10
5.0
 20
0.0
 30
0.0
 11
5.15
 21
0.0
 31
0.0
  0
ENDBLK
  5
24C
330
24A
100
AcDbEntity
  8
0
100
AcDbBlockEnd
  0
BLOCK
  5
25E
330
25D
100
AcDbEntity
  8
0
100
AcDbBlockBegin
  2
SW_DOWELSYMBOL_1
 70
     0
 10
0.0
 20
0.0
 30
0.0
  3
SW_DOWELSYMBOL_1
  1

  0
CIRCLE
  5
260
330
25D
100
AcDbEntity
  8
0
  6
Continuous
 62
     0
370
     0
100
AcDbCircle
 10
0.0
 20
0.0
 30
0.0
 40
2.499999999999947
  0
HATCH
  5
261
330
25D
100
AcDbEntity
  8
0
  6
Continuous
 62
     0
370
     0
100
AcDbHatch
 10
0.0
 20
0.0
 30
0.0
210
0.0
220
0.0
230
1.0
  2
SOLID
 70
     1
 71
     0
 91
        1
 92
        0
 93
        3
 72
     2
 10
0.0
 20
0.0
 40
2.499999999999947
 50
0.0
 51
90.0
 73
     1
 72
     1
 10
0.0
 20
2.499999999999947
 11
0.0
 21
0.0
 72
     1
 10
0.0
 20
0.0
 11
2.499999999999947
 21
0.0
 97
        0
 75
     0
 76
     1
 98
        1
 10
0.0
 20
0.0
  0
HATCH
  5
262
330
25D
100
AcDbEntity
  8
0
  6
Continuous
 62
     0
370
     0
100
AcDbHatch
 10
0.0
 20
0.0
 30
0.0
210
0.0
220
0.0
230
1.0
  2
SOLID
 70
     1
 71
     0
 91
        1
 92
        0
 93
        3
 72
     2
 10
0.0
 20
0.0
 40
2.499999999999947
 50
180.0
 51
270.0000000000008
 73
     1
 72
     1
 10
0.0
 20
-2.499999999999947
 11
0.0
 21
0.0
 72
     1
 10
0.0
 20
0.0
 11
-2.499999999999947
 21
0.0
 97
        0
 75
     0
 76
     1
 98
        1
 10
0.0
 20
0.0
  0
ENDBLK
  5
25F
330
25D
100
AcDbEntity
  8
0
100
AcDbBlockEnd
  0
BLOCK
  5
27F
330
27E
100
AcDbEntity
  8
0
100
AcDbBlockBegin
  2
_D_7
 70
     0
 10
0.0
 20
0.0
 30
0.0
  3
_D_7
  1

  0
INSERT
  5
281
330
27E
100
AcDbEntity
  8
0
  6
Continuous
 62
     7
370
    18
100
AcDbBlockReference
  2
_Closed
 10
731.9770353704
 20
321.4413264515
 30
0.0
 41
7.112
 42
7.112
 50
90.0
  0
INSERT
  5
282
330
27E
100
AcDbEntity
  8
0
  6
Continuous
 62
     7
370
    18
100
AcDbBlockReference
  2
_Closed
 10
731.9770353704
 20
336.4413264515
 30
0.0
 41
7.112
 42
7.112
 50
270.0
  0
LINE
  5
283
330
27E
100
AcDbEntity
  8
0
  6
Continuous
 62
     7
370
     0
100
AcDbLine
 10
739.3544554455
 20
321.4413264515
 30
0.0
 11
729.9770353704
 21
321.4413264515
 31
0.0
  0
LINE
  5
284
330
27E
100
AcDbEntity
  8
0
  6
Continuous
 62
     7
370
     0
100
AcDbLine
 10
739.2044554455
 20
336.4413264515
 30
0.0
 11
729.9770353704
 21
336.4413264515
 31
0.0
  0
LINE
  5
285
330
27E
100
AcDbEntity
  8
0
  6
Continuous
 62
     7
370
     0
100
AcDbLine
 10
731.9770353704
 20
321.4413264515
 30
0.0
 11
731.9770353704
 21
308.7413264515
 31
0.0
  0
LINE
  5
286
330
27E
100
AcDbEntity
  8
0
  6
Continuous
 62
     7
370
     0
100
AcDbLine
 10
731.9770353704
 20
321.4413264515
 30
0.0
 11
731.9770353704
 21
336.4413264515
 31
0.0
  0
LINE
  5
287
330
27E
100
AcDbEntity
  8
0
  6
Continuous
 62
     7
370
     0
100
AcDbLine
 10
731.9770353704
 20
336.4413264515
 30
0.0
 11
731.9770353704
 21
362.609639789
 31
0.0
  0
MTEXT
  5
288
330
27E
100
AcDbEntity
  8
0
  6
Continuous
 62
     7
370
    18
100
AcDbMText
 10
722.9535615412
 20
344.5068616671
 30
0.0
 40
7.0
 41
0.0
 71
     1
 72
     1
  1
15.0
  7
SLDTEXTSTYLE0
 11
6.123233995736766E-17
 21
1.0
 31
0.0
 73
     1
 44
1.0
  0
ENDBLK
  5
280
330
27E
100
AcDbEntity
  8
0
100
AcDbBlockEnd
  0
BLOCK
  5
28C
330
28B
100
AcDbEntity
  8
0
100
AcDbBlockBegin
  2
_D_8
 70
     0
 10
0.0
 20
0.0
 30
0.0
  3
_D_8
  1

  0
INSERT
  5
28E
330
28B
100
AcDbEntity
  8
0
  6
Continuous
 62
     7
370
    18
100
AcDbBlockReference
  2
_Closed
 10
720.3544554455
 20
321.4413264515
 30
0.0
 41
7.112
 42
7.112
 50
270.0
  0
INSERT
  5
28F
330
28B
100
AcDbEntity
  8
0
  6
Continuous
 62
     7
370
    18
100
AcDbBlockReference
  2
_Closed
 10
720.3544554455
 20
366.9413264515
 30
0.0
 41
7.112
 42
7.112
 50
90.0
  0
LINE
  5
290
330
28B
100
AcDbEntity
  8
0
  6
Continuous
 62
     7
370
     0
100
AcDbLine
 10
739.3544554455
 20
321.4413264515
 30
0.0
 11
718.3544554455
 21
321.4413264515
 31
0.0
  0
LINE
  5
291
330
28B
100
AcDbEntity
  8
0
  6
Continuous
 62
     7
370
     0
100
AcDbLine
 10
739.2044554455
 20
366.9413264515
 30
0.0
 11
718.3544554455
 21
366.9413264515
 31
0.0
  0
LINE
  5
292
330
28B
100
AcDbEntity
  8
0
  6
Continuous
 62
     7
370
     0
100
AcDbLine
 10
720.3544554455
 20
321.4413264515
 30
0.0
 11
720.3544554455
 21
366.9413264515
 31
0.0
  0
MTEXT
  5
293
330
28B
100
AcDbEntity
  8
0
  6
Continuous
 62
     7
370
    18
100
AcDbMText
 10
711.3309816164
 20
334.8785157773
 30
0.0
 40
7.0
 41
0.0
 71
     1
 72
     1
  1
45.5
  7
SLDTEXTSTYLE0
 11
6.123233995736766E-17
 21
1.0
 31
0.0
 73
     1
 44
1.0
  0
ENDBLK
  5
28D
330
28B
100
AcDbEntity
  8
0
100
AcDbBlockEnd
  0
BLOCK
  5
297
330
296
100
AcDbEntity
  8
0
100
AcDbBlockBegin
  2
_D_9
 70
     0
 10
0.0
 20
0.0
 30
0.0
  3
_D_9
  1

  0
INSERT
  5
299
330
296
100
AcDbEntity
  8
0
  6
Continuous
 62
     7
370
    18
100
AcDbBlockReference
  2
_Closed
 10
746.7686690079
 20
335.0271128891
 30
0.0
 41
7.112
 42
7.112
 50
135.0
  0
LINE
  5
29A
330
296
100
AcDbEntity
  8
0
  6
Continuous
 62
     7
370
     0
100
AcDbLine
 10
746.7686690079
 20
335.0271128891
 30
0.0
 11
799.4869246498
 21
282.3088572472
 31
0.0
  0
LINE
  5
29B
330
296
100
AcDbEntity
  8
0
  6
Continuous
 62
     7
370
     0
100
AcDbLine
 10
746.7686690079
 20
335.0271128891
 30
0.0
 11
743.9402418832
 21
337.8555400138
 31
0.0
  0
MTEXT
  5
29C
330
296
100
AcDbEntity
  8
0
  6
Continuous
 62
     7
370
    18
100
AcDbMText
 10
764.4981373119
 20
330.1554701676
 30
0.0
 40
7.0
 41
0.0
 71
     1
 72
     1
  1
2x
  7
SLDTEXTSTYLE0
 11
0.7071067811865568
 21
-0.7071067811865382
 31
0.0
 73
     1
 44
1.0
  0
MTEXT
  5
29D
330
296
100
AcDbEntity
  8
0
  6
Continuous
 62
     7
370
    18
100
AcDbMText
 10
773.1533206088
 20
321.5002868707
 30
0.0
 40
7.0
 41
0.0
 71
     1
 72
     1
  1
M4x0.7
  7
SLDTEXTSTYLE0
 11
0.7071067811865568
 21
-0.7071067811865382
 31
0.0
 73
     1
 44
1.0
  0
INSERT
  5
2A5
330
296
100
AcDbEntity
  8
0
  6
Continuous
 62
     7
370
    18
100
AcDbBlockReference
  2
SW_SYMBOL_HOLE_DEPTH
 10
789.4167820709
 20
293.6972452153
 30
0.0
 41
0.0044707031
 42
0.0044707031
 43
0.0044707031
 50
315.0
  0
MTEXT
  5
2A6
330
296
100
AcDbEntity
  8
0
  6
Continuous
 62
     7
370
    18
100
AcDbMText
 10
802.2585235881
 20
292.3950838914
 30
0.0
 40
7.0
 41
0.0
 71
     1
 72
     1
  1
8
  7
SLDTEXTSTYLE0
 11
0.7071067811865568
 21
-0.7071067811865382
 31
0.0
 73
     1
 44
1.0
  0
ENDBLK
  5
298
330
296
100
AcDbEntity
  8
0
100
AcDbBlockEnd
  0
BLOCK
  5
29F
330
29E
100
AcDbEntity
  8
0
100
AcDbBlockBegin
  2
SW_SYMBOL_HOLE_DEPTH
 70
     0
 10
0.0
 20
0.0
 30
0.0
  3
SW_SYMBOL_HOLE_DEPTH
  1

  0
LINE
  5
2A1
330
29E
100
AcDbEntity
  8
0
  6
Continuous
 62
     0
370
    18
100
AcDbLine
 10
0.0
 20
1750.0
 30
0.0
 11
1600.0
 21
1750.0
 31
0.0
  0
LINE
  5
2A2
330
29E
100
AcDbEntity
  8
0
  6
Continuous
 62
     0
370
    18
100
AcDbLine
 10
800.0
 20
1750.0
 30
0.0
 11
800.0
 21
150.0
 31
0.0
  0
LINE
  5
2A3
330
29E
100
AcDbEntity
  8
0
  6
Continuous
 62
     0
370
    18
100
AcDbLine
 10
200.0
 20
1110.0
 30
0.0
 11
800.0
 21
150.0
 31
0.0
  0
LINE
  5
2A4
330
29E
100
AcDbEntity
  8
0
  6
Continuous
 62
     0
370
    18
100
AcDbLine
 10
1400.0
 20
1110.0
 30
0.0
 11
800.0
 21
150.0
 31
0.0
  0
ENDBLK
  5
2A0
330
29E
100
AcDbEntity
  8
0
100
AcDbBlockEnd
  0
BLOCK
  5
2A9
330
2A8
100
AcDbEntity
  8
0
100
AcDbBlockBegin
  2
_D_10
 70
     0
 10
0.0
 20
0.0
 30
0.0
  3
_D_10
  1

  0
INSERT
  5
2AB
330
2A8
100
AcDbEntity
  8
0
  6
Continuous
 62
     7
370
    18
100
AcDbBlockReference
  2
_Closed
 10
740.3544554455
 20
297.2776593555
 30
0.0
 41
7.112
 42
7.112
 50
0.0
  0
INSERT
  5
2AC
330
2A8
100
AcDbEntity
  8
0
  6
Continuous
 62
     7
370
    18
100
AcDbBlockReference
  2
_Closed
 10
745.3544554455
 20
297.2776593555
 30
0.0
 41
7.112
 42
7.112
 50
180.0
  0
LINE
  5
2AD
330
2A8
100
AcDbEntity
  8
0
  6
Continuous
 62
     7
370
     0
100
AcDbLine
 10
740.3544554455
 20
320.4413264515
 30
0.0
 11
740.3544554455
 21
295.2776593555
 31
0.0
  0
LINE
  5
2AE
330
2A8
100
AcDbEntity
  8
0
  6
Continuous
 62
     7
370
     0
100
AcDbLine
 10
745.3544554455
 20
330.2913264515
 30
0.0
 11
745.3544554455
 21
295.2776593555
 31
0.0
  0
LINE
  5
2AF
330
2A8
100
AcDbEntity
  8
0
  6
Continuous
 62
     7
370
     0
100
AcDbLine
 10
740.3544554455
 20
297.2776593555
 30
0.0
 11
722.8768515774
 21
297.2776593555
 31
0.0
  0
LINE
  5
2B0
330
2A8
100
AcDbEntity
  8
0
  6
Continuous
 62
     7
370
     0
100
AcDbLine
 10
740.3544554455
 20
297.2776593555
 30
0.0
 11
745.3544554455
 21
297.2776593555
 31
0.0
  0
LINE
  5
2B1
330
2A8
100
AcDbEntity
  8
0
  6
Continuous
 62
     7
370
     0
100
AcDbLine
 10
745.3544554455
 20
297.2776593555
 30
0.0
 11
758.0544554455
 21
297.2776593555
 31
0.0
  0
MTEXT
  5
2B2
330
2A8
100
AcDbEntity
  8
0
  6
Continuous
 62
     7
370
    18
100
AcDbMText
 10
722.8768515774
 20
306.3011331847
 30
0.0
 40
7.0
 41
0.0
 71
     1
 72
     1
  1
5
  7
SLDTEXTSTYLE0
 73
     1
 44
1.0
  0
ENDBLK
  5
2AA
330
2A8
100
AcDbEntity
  8
0
100
AcDbBlockEnd
  0
BLOCK
  5
2B4
330
2B3
100
AcDbEntity
  8
0
100
AcDbBlockBegin
  2
SW_CENTERMARKSYMBOL_4
 70
     0
 10
0.0
 20
0.0
 30
0.0
  3
SW_CENTERMARKSYMBOL_4
  1

  0
LINE
  5
2B6
330
2B3
100
AcDbEntity
  8
0
  6
Continuous
 62
     0
370
    18
100
AcDbLine
 10
0.0
 20
0.0
 30
0.0
 11
0.0
 21
2.5
 31
0.0
  0
LINE
  5
2B7
330
2B3
100
AcDbEntity
  8
0
  6
Continuous
 62
     0
370
    18
100
AcDbLine
 10
0.0
 20
0.0
 30
0.0
 11
-2.5
 21
0.0
 31
0.0
  0
LINE
  5
2B8
330
2B3
100
AcDbEntity
  8
0
  6
Continuous
 62
     0
370
    18
100
AcDbLine
 10
0.0
 20
0.0
 30
0.0
 11
0.0
 21
-2.5
 31
0.0
  0
LINE
  5
2B9
330
2B3
100
AcDbEntity
  8
0
  6
Continuous
 62
     0
370
    18
100
AcDbLine
 10
0.0
 20
0.0
 30
0.0
 11
2.5
 21
0.0
 31
0.0
  0
LINE
  5
2BA
330
2B3
100
AcDbEntity
  8
0
  6
Continuous
 62
     0
370
    18
100
AcDbLine
 10
0.0
 20
2.5
 30
0.0
 11
0.0
 21
4.15
 31
0.0
  0
LINE
  5
2BB
330
2B3
100
AcDbEntity
  8
0
  6
Continuous
 62
     0
370
    18
100
AcDbLine
 10
-2.5
 20
0.0
 30
0.0
 11
-4.15
 21
0.0
 31
0.0
  0
LINE
  5
2BC
330
2B3
100
AcDbEntity
  8
0
  6
Continuous
 62
     0
370
    18
100
AcDbLine
 10
0.0
 20
-2.5
 30
0.0
 11
0.0
 21
-4.15
 31
0.0
  0
LINE
  5
2BD
330
2B3
100
AcDbEntity
  8
0
  6
Continuous
 62
     0
370
    18
100
AcDbLine
 10
2.5
 20
0.0
 30
0.0
 11
4.15
 21
0.0
 31
0.0
  0
ENDBLK
  5
2B5
330
2B3
100
AcDbEntity
  8
0
100
AcDbBlockEnd
  0
BLOCK
  5
2C0
330
2BF
100
AcDbEntity
  8
0
100
AcDbBlockBegin
  2
SW_CENTERMARKSYMBOL_5
 70
     0
 10
0.0
 20
0.0
 30
0.0
  3
SW_CENTERMARKSYMBOL_5
  1

  0
LINE
  5
2C2
330
2BF
100
AcDbEntity
  8
0
  6
Continuous
 62
     0
370
    18
100
AcDbLine
 10
0.0
 20
0.0
 30
0.0
 11
0.0
 21
2.5
 31
0.0
  0
LINE
  5
2C3
330
2BF
100
AcDbEntity
  8
0
  6
Continuous
 62
     0
370
    18
100
AcDbLine
 10
0.0
 20
0.0
 30
0.0
 11
-2.5
 21
0.0
 31
0.0
  0
LINE
  5
2C4
330
2BF
100
AcDbEntity
  8
0
  6
Continuous
 62
     0
370
    18
100
AcDbLine
 10
0.0
 20
0.0
 30
0.0
 11
0.0
 21
-2.5
 31
0.0
  0
LINE
  5
2C5
330
2BF
100
AcDbEntity
  8
0
  6
Continuous
 62
     0
370
    18
100
AcDbLine
 10
0.0
 20
0.0
 30
0.0
 11
2.5
 21
0.0
 31
0.0
  0
LINE
  5
2C6
330
2BF
100
AcDbEntity
  8
0
  6
Continuous
 62
     0
370
    18
100
AcDbLine
 10
0.0
 20
2.5
 30
0.0
 11
0.0
 21
4.15
 31
0.0
  0
LINE
  5
2C7
330
2BF
100
AcDbEntity
  8
0
  6
Continuous
 62
     0
370
    18
100
AcDbLine
 10
-2.5
 20
0.0
 30
0.0
 11
-4.15
 21
0.0
 31
0.0
  0
LINE
  5
2C8
330
2BF
100
AcDbEntity
  8
0
  6
Continuous
 62
     0
370
    18
100
AcDbLine
 10
0.0
 20
-2.5
 30
0.0
 11
0.0
 21
-4.15
 31
0.0
  0
LINE
  5
2C9
330
2BF
100
AcDbEntity
  8
0
  6
Continuous
 62
     0
370
    18
100
AcDbLine
 10
2.5
 20
0.0
 30
0.0
 11
4.15
 21
0.0
 31
0.0
  0
ENDBLK
  5
2C1
330
2BF
100
AcDbEntity
  8
0
100
AcDbBlockEnd
  0
BLOCK
  5
2FB
330
2FA
100
AcDbEntity
  8
0
100
AcDbBlockBegin
  2
_D_11
 70
     0
 10
0.0
 20
0.0
 30
0.0
  3
_D_11
  1

  0
INSERT
  5
2FD
330
2FA
100
AcDbEntity
  8
0
  6
Continuous
 62
     7
370
    18
100
AcDbBlockReference
  2
_Closed
 10
277.9476611696
 20
201.6268740359
 30
0.0
 41
7.112
 42
7.112
 50
225.0000000088
  0
LINE
  5
2FE
330
2FA
100
AcDbEntity
  8
0
  6
Continuous
 62
     7
370
     0
100
AcDbLine
 10
277.9476611696
 20
201.6268740359
 30
0.0
 11
306.7638031226
 21
230.4430159978
 31
0.0
  0
LINE
  5
2FF
330
2FA
100
AcDbEntity
  8
0
  6
Continuous
 62
     7
370
     0
100
AcDbLine
 10
277.9476611696
 20
201.6268740359
 30
0.0
 11
274.1999952298
 21
197.879208095
 31
0.0
  0
MTEXT
  5
300
330
2FA
100
AcDbEntity
  8
0
  6
Continuous
 62
     7
370
    18
100
AcDbMText
 10
283.8342057305
 20
220.1563686093
 30
0.0
 40
7.0
 41
0.0
 71
     1
 72
     1
  1
%%c
  7
SLDTEXTSTYLE0
 11
0.707106781077901
 21
0.707106781295194
 31
0.0
 73
     1
 44
1.0
  0
MTEXT
  5
301
330
2FA
100
AcDbEntity
  8
0
  6
Continuous
 62
     7
370
    18
100
AcDbMText
 10
291.2234224088
 20
227.6968274448
 30
0.0
 40
7.0
 41
0.0
 71
     1
 72
     1
  1
5.3
  7
SLDTEXTSTYLE0
 11
0.707106781077901
 21
0.707106781295194
 31
0.0
 73
     1
 44
1.0
  0
ENDBLK
  5
2FC
330
2FA
100
AcDbEntity
  8
0
100
AcDbBlockEnd
  0
BLOCK
  5
304
330
303
100
AcDbEntity
  8
0
100
AcDbBlockBegin
  2
_D_12
 70
     0
 10
0.0
 20
0.0
 30
0.0
  3
_D_12
  1

  0
INSERT
  5
306
330
303
100
AcDbEntity
  8
0
  6
Continuous
 62
     7
370
    18
100
AcDbBlockReference
  2
_Closed
 10
286.0738281997
 20
182.1713585702
 30
0.0
 41
7.112
 42
7.112
 50
180.0
  0
INSERT
  5
307
330
303
100
AcDbEntity
  8
0
  6
Continuous
 62
     7
370
    18
100
AcDbBlockReference
  2
_Closed
 10
276.0738281997
 20
182.1713585702
 30
0.0
 41
7.112
 42
7.112
 50
0.0
  0
LINE
  5
308
330
303
100
AcDbEntity
  8
0
  6
Continuous
 62
     7
370
     0
100
AcDbLine
 10
286.0738281997
 20
192.7530410655
 30
0.0
 11
286.0738281997
 21
180.1713585702
 31
0.0
  0
LINE
  5
309
330
303
100
AcDbEntity
  8
0
  6
Continuous
 62
     7
370
     0
100
AcDbLine
 10
276.0738281997
 20
192.6030410655
 30
0.0
 11
276.0738281997
 21
180.1713585702
 31
0.0
  0
LINE
  5
30A
330
303
100
AcDbEntity
  8
0
  6
Continuous
 62
     7
370
     0
100
AcDbLine
 10
286.0738281997
 20
182.1713585702
 30
0.0
 11
315.1252172606
 21
182.1713585702
 31
0.0
  0
LINE
  5
30B
330
303
100
AcDbEntity
  8
0
  6
Continuous
 62
     7
370
     0
100
AcDbLine
 10
286.0738281997
 20
182.1713585702
 30
0.0
 11
276.0738281997
 21
182.1713585702
 31
0.0
  0
LINE
  5
30C
330
303
100
AcDbEntity
  8
0
  6
Continuous
 62
     7
370
     0
100
AcDbLine
 10
276.0738281997
 20
182.1713585702
 30
0.0
 11
263.3738281997
 21
182.1713585702
 31
0.0
  0
MTEXT
  5
30D
330
303
100
AcDbEntity
  8
0
  6
Continuous
 62
     7
370
    18
100
AcDbMText
 10
297.0224391388
 20
191.1948323993
 30
0.0
 40
7.0
 41
0.0
 71
     1
 72
     1
  1
10.0
  7
SLDTEXTSTYLE0
 73
     1
 44
1.0
  0
ENDBLK
  5
305
330
303
100
AcDbEntity
  8
0
100
AcDbBlockEnd
  0
BLOCK
  5
30F
330
30E
100
AcDbEntity
  8
0
100
AcDbBlockBegin
  2
SW_CENTERMARKSYMBOL_6
 70
     0
 10
0.0
 20
0.0
 30
0.0
  3
SW_CENTERMARKSYMBOL_6
  1

  0
LINE
  5
311
330
30E
100
AcDbEntity
  8
0
  6
Continuous
 62
     0
370
    18
100
AcDbLine
 10
0.0
 20
0.0
 30
0.0
 11
0.0
 21
2.5
 31
0.0
  0
LINE
  5
312
330
30E
100
AcDbEntity
  8
0
  6
Continuous
 62
     0
370
    18
100
AcDbLine
 10
0.0
 20
0.0
 30
0.0
 11
-2.5
 21
0.0
 31
0.0
  0
LINE
  5
313
330
30E
100
AcDbEntity
  8
0
  6
Continuous
 62
     0
370
    18
100
AcDbLine
 10
0.0
 20
0.0
 30
0.0
 11
0.0
 21
-2.5
 31
0.0
  0
LINE
  5
314
330
30E
100
AcDbEntity
  8
0
  6
Continuous
 62
     0
370
    18
100
AcDbLine
 10
0.0
 20
0.0
 30
0.0
 11
2.5
 21
0.0
 31
0.0
  0
LINE
  5
315
330
30E
100
AcDbEntity
  8
0
  6
Continuous
 62
     0
370
    18
100
AcDbLine
 10
0.0
 20
5.0
 30
0.0
 11
0.0
 21
5.15
 31
0.0
  0
LINE
  5
316
330
30E
100
AcDbEntity
  8
0
  6
Continuous
 62
     0
370
    18
100
AcDbLine
 10
-5.0
 20
0.0
 30
0.0
 11
-5.15
 21
0.0
 31
0.0
  0
LINE
  5
317
330
30E
100
AcDbEntity
  8
0
  6
Continuous
 62
     0
370
    18
100
AcDbLine
 10
0.0
 20
-5.0
 30
0.0
 11
0.0
 21
-5.15
 31
0.0
  0
LINE
  5
318
330
30E
100
AcDbEntity
  8
0
  6
Continuous
 62
     0
370
    18
100
AcDbLine
 10
5.0
 20
0.0
 30
0.0
 11
5.15
 21
0.0
 31
0.0
  0
ENDBLK
  5
310
330
30E
100
AcDbEntity
  8
0
100
AcDbBlockEnd
  0
BLOCK
  5
352
330
351
100
AcDbEntity
  8
0
100
AcDbBlockBegin
  2
_D_13
 70
     0
 10
0.0
 20
0.0
 30
0.0
  3
_D_13
  1

  0
ARC
  5
354
330
351
100
AcDbEntity
  8
0
  6
Continuous
 62
     7
370
    18
100
AcDbCircle
 10
448.7211967349
 20
385.4904797281
 30
0.0
 40
12.4241526799912
100
AcDbArc
 50
153.4349488229
 51
206.5650511771
  0
ARC
  5
355
330
351
100
AcDbEntity
  8
0
  6
Continuous
 62
     7
370
    18
100
AcDbCircle
 10
431.6684191577
 20
385.4904797281
 30
0.0
 40
12.4241526799912
100
AcDbArc
 50
333.4349488229
 51
26.5650511771
  0
INSERT
  5
356
330
351
100
AcDbEntity
  8
0
  6
Continuous
 62
     7
370
    18
100
AcDbBlockReference
  2
_Closed
 10
464.1948078299
 20
379.9342297371
 30
40.25
 41
7.112
 42
7.112
 50
0.0
  0
INSERT
  5
357
330
351
100
AcDbEntity
  8
0
  6
Continuous
 62
     7
370
    18
100
AcDbBlockReference
  2
_Closed
 10
466.1948078299
 20
379.9342297371
 30
40.25
 41
7.112
 42
7.112
 50
180.0
  0
LINE
  5
358
330
351
100
AcDbEntity
  8
0
  6
Continuous
 62
     7
370
     0
100
AcDbLine
 10
464.1948078299
 20
379.9342297371
 30
0.0
 11
436.2970440412
 21
379.9342297371
 31
0.0
  0
LINE
  5
359
330
351
100
AcDbEntity
  8
0
  6
Continuous
 62
     7
370
     0
100
AcDbLine
 10
464.1948078299
 20
379.9342297371
 30
0.0
 11
466.1948078299
 21
379.9342297371
 31
0.0
  0
LINE
  5
35A
330
351
100
AcDbEntity
  8
0
  6
Continuous
 62
     7
370
     0
100
AcDbLine
 10
466.1948078299
 20
379.9342297371
 30
0.0
 11
478.8948078299
 21
379.9342297371
 31
0.0
  0
MTEXT
  5
35B
330
351
100
AcDbEntity
  8
0
  6
Continuous
 62
     7
370
    18
100
AcDbMText
 10
437.6086967528
 20
388.9577035662
 30
0.0
 40
7.0
 41
0.0
 71
     1
 72
     1
  1
2
  7
SLDTEXTSTYLE0
 73
     1
 44
1.0
  0
ENDBLK
  5
353
330
351
100
AcDbEntity
  8
0
100
AcDbBlockEnd
  0
ENDSEC
  0
SECTION
  2
ENTITIES
  0
LINE
  5
64
330
1F
100
AcDbEntity
  8
0
  6
Continuous
 62
     7
370
    50
100
AcDbLine
 10
460.0
 20
28.5
 30
0.0
 11
820.0
 21
28.5
 31
0.0
  0
LINE
  5
65
330
1F
100
AcDbEntity
  8
0
  6
Continuous
 62
     7
370
    50
100
AcDbLine
 10
820.0
 20
96.5
 30
0.0
 11
460.0
 21
96.5
 31
0.0
  0
LINE
  5
66
330
1F
100
AcDbEntity
  8
0
  6
Continuous
 62
     7
370
    50
100
AcDbLine
 10
460.0
 20
130.5
 30
0.0
 11
820.0
 21
130.5
 31
0.0
  0
LINE
  5
67
330
1F
100
AcDbEntity
  8
0
  6
Continuous
 62
     7
370
    50
100
AcDbLine
 10
513.9819048676
 20
96.5
 30
0.0
 11
513.9819048676
 21
20.0
 31
0.0
  0
LINE
  5
68
330
1F
100
AcDbEntity
  8
0
  6
Continuous
 62
     7
370
    50
100
AcDbLine
 10
657.6
 20
62.5
 30
0.0
 11
460.0
 21
62.5
 31
0.0
  0
LINE
  5
69
330
1F
100
AcDbEntity
  8
0
  6
Continuous
 62
     7
370
    50
100
AcDbLine
 10
657.6
 20
71.0
 30
0.0
 11
460.0
 21
71.0
 31
0.0
  0
LINE
  5
6A
330
1F
100
AcDbEntity
  8
0
  6
Continuous
 62
     7
370
    50
100
AcDbLine
 10
657.6
 20
79.5
 30
0.0
 11
460.0
 21
79.5
 31
0.0
  0
LINE
  5
6B
330
1F
100
AcDbEntity
  8
0
  6
Continuous
 62
     7
370
    50
100
AcDbLine
 10
657.6
 20
88.0
 30
0.0
 11
460.0
 21
88.0
 31
0.0
  0
LINE
  5
6C
330
1F
100
AcDbEntity
  8
0
  6
Continuous
 62
     7
370
    50
100
AcDbLine
 10
569.2
 20
20.0
 30
0.0
 11
569.2
 21
96.5
 31
0.0
  0
LINE
  5
6D
330
1F
100
AcDbEntity
  8
0
  6
Continuous
 62
     7
370
    50
100
AcDbLine
 10
475.6
 20
96.5
 30
0.0
 11
475.6
 21
20.0
 31
0.0
  0
LINE
  5
6E
330
1F
100
AcDbEntity
  8
0
  6
Continuous
 62
     7
370
    50
100
AcDbLine
 10
527.6
 20
96.5
 30
0.0
 11
527.6
 21
130.5
 31
0.0
  0
LINE
  5
6F
330
1F
100
AcDbEntity
  8
0
  6
Continuous
 62
     7
370
    50
100
AcDbLine
 10
548.7978523271
 20
96.5
 30
0.0
 11
548.7978523271
 21
20.0
 31
0.0
  0
LINE
  5
70
330
1F
100
AcDbEntity
  8
0
  6
Continuous
 62
     7
370
    50
100
AcDbLine
 10
590.0
 20
62.5
 30
0.0
 11
590.0
 21
96.5
 31
0.0
  0
LINE
  5
71
330
1F
100
AcDbEntity
  8
0
  6
Continuous
 62
     7
370
    50
100
AcDbLine
 10
569.2
 20
37.0
 30
0.0
 11
460.0
 21
37.0
 31
0.0
  0
LINE
  5
72
330
1F
100
AcDbEntity
  8
0
  6
Continuous
 62
     7
370
    50
100
AcDbLine
 10
621.2
 20
130.5
 30
0.0
 11
621.2
 21
54.0
 31
0.0
  0
LINE
  5
73
330
1F
100
AcDbEntity
  8
0
  6
Continuous
 62
     7
370
    50
100
AcDbLine
 10
569.2
 20
45.499856
 30
0.0
 11
460.0
 21
45.499856
 31
0.0
  0
LINE
  5
74
330
1F
100
AcDbEntity
  8
0
  6
Continuous
 62
     7
370
    50
100
AcDbLine
 10
569.2
 20
54.0
 30
0.0
 11
460.0
 21
54.0
 31
0.0
  0
LINE
  5
75
330
1F
100
AcDbEntity
  8
0
  6
Continuous
 62
     7
370
    50
100
AcDbLine
 10
569.2
 20
54.0
 30
0.0
 11
820.0
 21
54.0
 31
0.0
  0
LINE
  5
76
330
1F
100
AcDbEntity
  8
0
  6
Continuous
 62
     7
370
    50
100
AcDbLine
 10
657.6
 20
130.5
 30
0.0
 11
657.6
 21
20.0
 31
0.0
  0
LINE
  5
77
330
1F
100
AcDbEntity
  8
0
  6
Continuous
 62
     7
370
    50
100
AcDbLine
 10
746.0
 20
20.0
 30
0.0
 11
746.0
 21
28.5
 31
0.0
  0
LINE
  5
78
330
1F
100
AcDbEntity
  8
0
  6
Continuous
 62
     7
370
    50
100
AcDbLine
 10
761.6
 20
117.75
 30
0.0
 11
761.6
 21
130.5
 31
0.0
  0
LINE
  5
79
330
1F
100
AcDbEntity
  8
0
  6
Continuous
 62
     7
370
    50
100
AcDbLine
 10
794.0
 20
28.5
 30
0.0
 11
794.0
 21
54.0
 31
0.0
  0
LINE
  5
7A
330
1F
100
AcDbEntity
  8
0
  6
Continuous
 62
     7
370
    50
100
AcDbLine
 10
820.0
 20
117.75
 30
0.0
 11
657.6
 21
117.75
 31
0.0
  0
LINE
  5
7B
330
1F
100
AcDbEntity
  8
0
  6
Continuous
 62
     7
370
    50
100
AcDbLine
 10
820.0
 20
37.0
 30
0.0
 11
794.0
 21
37.0
 31
0.0
  0
LINE
  5
7C
330
1F
100
AcDbEntity
  8
0
  6
Continuous
 62
     7
370
    50
100
AcDbLine
 10
460.0
 20
130.5
 30
0.0
 11
460.0
 21
20.0
 31
0.0
  0
LINE
  5
7D
330
1F
100
AcDbEntity
  8
0
  6
Continuous
 62
     7
370
    70
100
AcDbLine
 10
20.0
 20
20.0
 30
0.0
 11
20.0
 21
574.0
 31
0.0
  0
LINE
  5
7E
330
1F
100
AcDbEntity
  8
0
  6
Continuous
 62
     7
370
    70
100
AcDbLine
 10
20.0
 20
574.0
 30
0.0
 11
820.0
 21
574.0
 31
0.0
  0
LINE
  5
7F
330
1F
100
AcDbEntity
  8
0
  6
Continuous
 62
     7
370
    70
100
AcDbLine
 10
820.0
 20
574.0
 30
0.0
 11
820.0
 21
20.0
 31
0.0
  0
LINE
  5
80
330
1F
100
AcDbEntity
  8
0
  6
Continuous
 62
     7
370
    70
100
AcDbLine
 10
820.0
 20
20.0
 30
0.0
 11
20.0
 21
20.0
 31
0.0
  0
LINE
  5
81
330
1F
100
AcDbEntity
  8
0
  6
Continuous
 62
     7
370
    35
100
AcDbLine
 10
0.0
 20
297.0
 30
0.0
 11
30.0
 21
297.0
 31
0.0
  0
LINE
  5
82
330
1F
100
AcDbEntity
  8
0
  6
Continuous
 62
     7
370
    35
100
AcDbLine
 10
420.0
 20
594.0
 30
0.0
 11
420.0
 21
564.0
 31
0.0
  0
LINE
  5
83
330
1F
100
AcDbEntity
  8
0
  6
Continuous
 62
     7
370
    35
100
AcDbLine
 10
840.0
 20
297.0
 30
0.0
 11
810.0
 21
297.0
 31
0.0
  0
LINE
  5
84
330
1F
100
AcDbEntity
  8
0
  6
Continuous
 62
     7
370
    35
100
AcDbLine
 10
420.0
 20
0.0
 30
0.0
 11
420.0
 21
30.0
 31
0.0
  0
LINE
  5
85
330
1F
100
AcDbEntity
  8
0
  6
Continuous
 62
     7
370
    35
100
AcDbLine
 10
20.0
 20
97.0
 30
0.0
 11
0.0
 21
97.0
 31
0.0
  0
LINE
  5
86
330
1F
100
AcDbEntity
  8
0
  6
Continuous
 62
     7
370
    35
100
AcDbLine
 10
820.0
 20
97.0
 30
0.0
 11
840.0
 21
97.0
 31
0.0
  0
LINE
  5
87
330
1F
100
AcDbEntity
  8
0
  6
Continuous
 62
     7
370
    35
100
AcDbLine
 10
20.0
 20
197.0
 30
0.0
 11
0.0
 21
197.0
 31
0.0
  0
LINE
  5
88
330
1F
100
AcDbEntity
  8
0
  6
Continuous
 62
     7
370
    35
100
AcDbLine
 10
820.0
 20
197.0
 30
0.0
 11
840.0
 21
197.0
 31
0.0
  0
LINE
  5
89
330
1F
100
AcDbEntity
  8
0
  6
Continuous
 62
     7
370
    35
100
AcDbLine
 10
20.0
 20
297.0
 30
0.0
 11
0.0
 21
297.0
 31
0.0
  0
LINE
  5
8A
330
1F
100
AcDbEntity
  8
0
  6
Continuous
 62
     7
370
    35
100
AcDbLine
 10
820.0
 20
297.0
 30
0.0
 11
840.0
 21
297.0
 31
0.0
  0
LINE
  5
8B
330
1F
100
AcDbEntity
  8
0
  6
Continuous
 62
     7
370
    35
100
AcDbLine
 10
20.0
 20
397.0
 30
0.0
 11
0.0
 21
397.0
 31
0.0
  0
LINE
  5
8C
330
1F
100
AcDbEntity
  8
0
  6
Continuous
 62
     7
370
    35
100
AcDbLine
 10
820.0
 20
397.0
 30
0.0
 11
840.0
 21
397.0
 31
0.0
  0
LINE
  5
8D
330
1F
100
AcDbEntity
  8
0
  6
Continuous
 62
     7
370
    35
100
AcDbLine
 10
20.0
 20
497.0
 30
0.0
 11
0.0
 21
497.0
 31
0.0
  0
LINE
  5
8E
330
1F
100
AcDbEntity
  8
0
  6
Continuous
 62
     7
370
    35
100
AcDbLine
 10
820.0
 20
497.0
 30
0.0
 11
840.0
 21
497.0
 31
0.0
  0
LINE
  5
8F
330
1F
100
AcDbEntity
  8
0
  6
Continuous
 62
     7
370
    35
100
AcDbLine
 10
120.0
 20
574.0
 30
0.0
 11
120.0
 21
594.0
 31
0.0
  0
LINE
  5
90
330
1F
100
AcDbEntity
  8
0
  6
Continuous
 62
     7
370
    35
100
AcDbLine
 10
120.0
 20
20.0
 30
0.0
 11
120.0
 21
0.0
 31
0.0
  0
LINE
  5
91
330
1F
100
AcDbEntity
  8
0
  6
Continuous
 62
     7
370
    35
100
AcDbLine
 10
220.0
 20
574.0
 30
0.0
 11
220.0
 21
594.0
 31
0.0
  0
LINE
  5
92
330
1F
100
AcDbEntity
  8
0
  6
Continuous
 62
     7
370
    35
100
AcDbLine
 10
220.0
 20
20.0
 30
0.0
 11
220.0
 21
0.0
 31
0.0
  0
LINE
  5
93
330
1F
100
AcDbEntity
  8
0
  6
Continuous
 62
     7
370
    35
100
AcDbLine
 10
320.0
 20
574.0
 30
0.0
 11
320.0
 21
594.0
 31
0.0
  0
LINE
  5
94
330
1F
100
AcDbEntity
  8
0
  6
Continuous
 62
     7
370
    35
100
AcDbLine
 10
320.0
 20
20.0
 30
0.0
 11
320.0
 21
0.0
 31
0.0
  0
LINE
  5
95
330
1F
100
AcDbEntity
  8
0
  6
Continuous
 62
     7
370
    35
100
AcDbLine
 10
420.0
 20
574.0
 30
0.0
 11
420.0
 21
594.0
 31
0.0
  0
LINE
  5
96
330
1F
100
AcDbEntity
  8
0
  6
Continuous
 62
     7
370
    35
100
AcDbLine
 10
420.0
 20
20.0
 30
0.0
 11
420.0
 21
0.0
 31
0.0
  0
LINE
  5
97
330
1F
100
AcDbEntity
  8
0
  6
Continuous
 62
     7
370
    35
100
AcDbLine
 10
520.0
 20
574.0
 30
0.0
 11
520.0
 21
594.0
 31
0.0
  0
LINE
  5
98
330
1F
100
AcDbEntity
  8
0
  6
Continuous
 62
     7
370
    35
100
AcDbLine
 10
520.0
 20
20.0
 30
0.0
 11
520.0
 21
0.0
 31
0.0
  0
LINE
  5
99
330
1F
100
AcDbEntity
  8
0
  6
Continuous
 62
     7
370
    35
100
AcDbLine
 10
620.0
 20
574.0
 30
0.0
 11
620.0
 21
594.0
 31
0.0
  0
LINE
  5
9A
330
1F
100
AcDbEntity
  8
0
  6
Continuous
 62
     7
370
    35
100
AcDbLine
 10
620.0
 20
20.0
 30
0.0
 11
620.0
 21
0.0
 31
0.0
  0
LINE
  5
9B
330
1F
100
AcDbEntity
  8
0
  6
Continuous
 62
     7
370
    35
100
AcDbLine
 10
720.0
 20
574.0
 30
0.0
 11
720.0
 21
594.0
 31
0.0
  0
LINE
  5
9C
330
1F
100
AcDbEntity
  8
0
  6
Continuous
 62
     7
370
    35
100
AcDbLine
 10
720.0
 20
20.0
 30
0.0
 11
720.0
 21
0.0
 31
0.0
  0
MTEXT
  5
9E
330
1F
100
AcDbEntity
  8
0
  6
Continuous
 62
     7
370
     0
100
AcDbMText
 10
611.4947790883
 20
46.4663160405
 30
0.0
 40
9.525
 41
0.0
 71
     2
 72
     1
  1
A6061
  7
SLDTEXTSTYLE0
 73
     1
 44
1.0
  0
MTEXT
  5
9F
330
1F
100
AcDbEntity
  8
0
  6
Continuous
 62
     7
370
     0
100
AcDbMText
 10
574.7691255953
 20
120.3962120351
 30
0.0
 40
5.8208333333
 41
0.0
 71
     2
 72
     1
  1
Bead Blasting
  7
SLDTEXTSTYLE0
 73
     1
 44
1.0
  0
MTEXT
  5
A0
330
1F
100
AcDbEntity
  8
0
  6
Continuous
 62
     7
370
     0
100
AcDbMText
 10
575.0291772918
 20
112.6351010178
 30
0.0
 40
5.8208333333
 41
0.0
 71
     2
 72
     1
  1
Anodizing (Black Color)
  7
SLDTEXTSTYLE0
 73
     1
 44
1.0
  0
MTEXT
  5
A1
330
1F
100
AcDbEntity
  8
0
  6
Continuous
 62
     7
370
     0
100
AcDbMText
 10
9.6793762855
 20
62.4274439602
 30
0.0
 40
7.9375
 41
0.0
 71
     2
 72
     1
  1
A
  7
SLDTEXTSTYLE0
 73
     1
 44
1.0
  0
MTEXT
  5
A2
330
1F
100
AcDbEntity
  8
0
  6
Continuous
 62
     7
370
     0
100
AcDbMText
 10
829.6793762855
 20
62.4274439602
 30
0.0
 40
7.9375
 41
0.0
 71
     2
 72
     1
  1
A
  7
SLDTEXTSTYLE0
 73
     1
 44
1.0
  0
MTEXT
  5
A3
330
1F
100
AcDbEntity
  8
0
  6
Continuous
 62
     7
370
     0
100
AcDbMText
 10
9.9412036482
 20
150.9274439602
 30
0.0
 40
7.9375
 41
0.0
 71
     2
 72
     1
  1
B
  7
SLDTEXTSTYLE0
 73
     1
 44
1.0
  0
MTEXT
  5
A4
330
1F
100
AcDbEntity
  8
0
  6
Continuous
 62
     7
370
     0
100
AcDbMText
 10
829.9412036482
 20
150.9274439602
 30
0.0
 40
7.9375
 41
0.0
 71
     2
 72
     1
  1
B
  7
SLDTEXTSTYLE0
 73
     1
 44
1.0
  0
MTEXT
  5
A5
330
1F
100
AcDbEntity
  8
0
  6
Continuous
 62
     7
370
     0
100
AcDbMText
 10
9.9173178039
 20
250.9274439602
 30
0.0
 40
7.9375
 41
0.0
 71
     2
 72
     1
  1
C
  7
SLDTEXTSTYLE0
 73
     1
 44
1.0
  0
MTEXT
  5
A6
330
1F
100
AcDbEntity
  8
0
  6
Continuous
 62
     7
370
     0
100
AcDbMText
 10
829.9173178039
 20
250.9274439602
 30
0.0
 40
7.9375
 41
0.0
 71
     2
 72
     1
  1
C
  7
SLDTEXTSTYLE0
 73
     1
 44
1.0
  0
MTEXT
  5
A7
330
1F
100
AcDbEntity
  8
0
  6
Continuous
 62
     7
370
     0
100
AcDbMText
 10
9.9053745642
 20
350.9274439602
 30
0.0
 40
7.9375
 41
0.0
 71
     2
 72
     1
  1
D
  7
SLDTEXTSTYLE0
 73
     1
 44
1.0
  0
MTEXT
  5
A8
330
1F
100
AcDbEntity
  8
0
  6
Continuous
 62
     7
370
     0
100
AcDbMText
 10
829.9053745642
 20
350.9274439602
 30
0.0
 40
7.9375
 41
0.0
 71
     2
 72
     1
  1
D
  7
SLDTEXTSTYLE0
 73
     1
 44
1.0
  0
MTEXT
  5
A9
330
1F
100
AcDbEntity
  8
0
  6
Continuous
 62
     7
370
     0
100
AcDbMText
 10
10.0156178102
 20
450.9274439602
 30
0.0
 40
7.9375
 41
0.0
 71
     2
 72
     1
  1
E
  7
SLDTEXTSTYLE0
 73
     1
 44
1.0
  0
MTEXT
  5
AA
330
1F
100
AcDbEntity
  8
0
  6
Continuous
 62
     7
370
     0
100
AcDbMText
 10
830.0156178102
 20
450.9274439602
 30
0.0
 40
7.9375
 41
0.0
 71
     2
 72
     1
  1
E
  7
SLDTEXTSTYLE0
 73
     1
 44
1.0
  0
MTEXT
  5
AB
330
1F
100
AcDbEntity
  8
0
  6
Continuous
 62
     7
370
     0
100
AcDbMText
 10
9.9154804181
 20
539.4274439602
 30
0.0
 40
7.9375
 41
0.0
 71
     2
 72
     1
  1
F
  7
SLDTEXTSTYLE0
 73
     1
 44
1.0
  0
MTEXT
  5
AC
330
1F
100
AcDbEntity
  8
0
  6
Continuous
 62
     7
370
     0
100
AcDbMText
 10
829.9154804181
 20
539.4274439602
 30
0.0
 40
7.9375
 41
0.0
 71
     2
 72
     1
  1
F
  7
SLDTEXTSTYLE0
 73
     1
 44
1.0
  0
MTEXT
  5
AD
330
1F
100
AcDbEntity
  8
0
  6
Continuous
 62
     7
370
     0
100
AcDbMText
 10
69.9200738929
 20
13.9274439602
 30
0.0
 40
7.9375
 41
0.0
 71
     2
 72
     1
  1
8
  7
SLDTEXTSTYLE0
 73
     1
 44
1.0
  0
MTEXT
  5
AE
330
1F
100
AcDbEntity
  8
0
  6
Continuous
 62
     7
370
     0
100
AcDbMText
 10
69.9200738929
 20
587.9274439602
 30
0.0
 40
7.9375
 41
0.0
 71
     2
 72
     1
  1
8
  7
SLDTEXTSTYLE0
 73
     1
 44
1.0
  0
MTEXT
  5
AF
330
1F
100
AcDbEntity
  8
0
  6
Continuous
 62
     7
370
     0
100
AcDbMText
 10
169.9200738929
 20
13.9274439602
 30
0.0
 40
7.9375
 41
0.0
 71
     2
 72
     1
  1
7
  7
SLDTEXTSTYLE0
 73
     1
 44
1.0
  0
MTEXT
  5
B0
330
1F
100
AcDbEntity
  8
0
  6
Continuous
 62
     7
370
     0
100
AcDbMText
 10
169.9200738929
 20
587.9274439602
 30
0.0
 40
7.9375
 41
0.0
 71
     2
 72
     1
  1
7
  7
SLDTEXTSTYLE0
 73
     1
 44
1.0
  0
MTEXT
  5
B1
330
1F
100
AcDbEntity
  8
0
  6
Continuous
 62
     7
370
     0
100
AcDbMText
 10
269.9200738929
 20
13.9274439602
 30
0.0
 40
7.9375
 41
0.0
 71
     2
 72
     1
  1
6
  7
SLDTEXTSTYLE0
 73
     1
 44
1.0
  0
MTEXT
  5
B2
330
1F
100
AcDbEntity
  8
0
  6
Continuous
 62
     7
370
     0
100
AcDbMText
 10
269.9200738929
 20
587.9274439602
 30
0.0
 40
7.9375
 41
0.0
 71
     2
 72
     1
  1
6
  7
SLDTEXTSTYLE0
 73
     1
 44
1.0
  0
MTEXT
  5
B3
330
1F
100
AcDbEntity
  8
0
  6
Continuous
 62
     7
370
     0
100
AcDbMText
 10
369.9200738929
 20
13.9274439602
 30
0.0
 40
7.9375
 41
0.0
 71
     2
 72
     1
  1
5
  7
SLDTEXTSTYLE0
 73
     1
 44
1.0
  0
MTEXT
  5
B4
330
1F
100
AcDbEntity
  8
0
  6
Continuous
 62
     7
370
     0
100
AcDbMText
 10
369.9200738929
 20
587.9274439602
 30
0.0
 40
7.9375
 41
0.0
 71
     2
 72
     1
  1
5
  7
SLDTEXTSTYLE0
 73
     1
 44
1.0
  0
MTEXT
  5
B5
330
1F
100
AcDbEntity
  8
0
  6
Continuous
 62
     7
370
     0
100
AcDbMText
 10
469.9200738929
 20
13.9274439602
 30
0.0
 40
7.9375
 41
0.0
 71
     2
 72
     1
  1
4
  7
SLDTEXTSTYLE0
 73
     1
 44
1.0
  0
MTEXT
  5
B6
330
1F
100
AcDbEntity
  8
0
  6
Continuous
 62
     7
370
     0
100
AcDbMText
 10
469.9200738929
 20
587.9274439602
 30
0.0
 40
7.9375
 41
0.0
 71
     2
 72
     1
  1
4
  7
SLDTEXTSTYLE0
 73
     1
 44
1.0
  0
MTEXT
  5
B7
330
1F
100
AcDbEntity
  8
0
  6
Continuous
 62
     7
370
     0
100
AcDbMText
 10
569.9200738929
 20
13.9274439602
 30
0.0
 40
7.9375
 41
0.0
 71
     2
 72
     1
  1
3
  7
SLDTEXTSTYLE0
 73
     1
 44
1.0
  0
MTEXT
  5
B8
330
1F
100
AcDbEntity
  8
0
  6
Continuous
 62
     7
370
     0
100
AcDbMText
 10
569.9200738929
 20
587.9274439602
 30
0.0
 40
7.9375
 41
0.0
 71
     2
 72
     1
  1
3
  7
SLDTEXTSTYLE0
 73
     1
 44
1.0
  0
MTEXT
  5
B9
330
1F
100
AcDbEntity
  8
0
  6
Continuous
 62
     7
370
     0
100
AcDbMText
 10
669.9200738929
 20
13.9274439602
 30
0.0
 40
7.9375
 41
0.0
 71
     2
 72
     1
  1
2
  7
SLDTEXTSTYLE0
 73
     1
 44
1.0
  0
MTEXT
  5
BA
330
1F
100
AcDbEntity
  8
0
  6
Continuous
 62
     7
370
     0
100
AcDbMText
 10
669.9200738929
 20
587.9274439602
 30
0.0
 40
7.9375
 41
0.0
 71
     2
 72
     1
  1
2
  7
SLDTEXTSTYLE0
 73
     1
 44
1.0
  0
MTEXT
  5
BB
330
1F
100
AcDbEntity
  8
0
  6
Continuous
 62
     7
370
     0
100
AcDbMText
 10
769.9200738929
 20
13.9274439602
 30
0.0
 40
7.9375
 41
0.0
 71
     2
 72
     1
  1
1
  7
SLDTEXTSTYLE0
 73
     1
 44
1.0
  0
MTEXT
  5
BC
330
1F
100
AcDbEntity
  8
0
  6
Continuous
 62
     7
370
     0
100
AcDbMText
 10
769.9200738929
 20
587.9274439602
 30
0.0
 40
7.9375
 41
0.0
 71
     2
 72
     1
  1
1
  7
SLDTEXTSTYLE0
 73
     1
 44
1.0
  0
MTEXT
  5
BD
330
1F
100
AcDbEntity
  8
0
  6
Continuous
 62
     7
370
     0
100
AcDbMText
 10
725.9907978211
 20
41.4347303018
 30
0.0
 40
6.35
 41
0.0
 71
     2
 72
     1
  1
Yamaha_CL_Feeder_SideBracket
  7
SLDTEXTSTYLE0
 73
     1
 44
1.0
  0
MTEXT
  5
BE
330
1F
100
AcDbEntity
  8
0
  6
Continuous
 62
     7
370
     0
100
AcDbMText
 10
571.2356222562
 20
25.8986238072
 30
0.0
 40
2.9972
 41
0.0
 71
     1
 72
     1
  1
dF
  7
SLDTEXTSTYLE0
 73
     1
 44
1.0
  0
MTEXT
  5
BF
330
1F
100
AcDbEntity
  8
0
  6
Continuous
 62
     7
370
     0
100
AcDbMText
 10
801.7423128693
 20
48.812777138
 30
0.0
 40
5.8208333333
 41
0.0
 71
     1
 72
     1
  1
A3
  7
SLDTEXTSTYLE0
 73
     1
 44
1.0
  0
MTEXT
  5
C1
330
1F
100
AcDbEntity
  8
0
  6
Continuous
 62
     7
370
     0
100
AcDbMText
 10
748.9565888556
 20
25.8001745491
 30
0.0
 40
3.0
 41
0.0
 71
     1
 72
     1
  1
t 1 ^ 1
  7
SLDTEXTSTYLE1
 73
     1
 44
1.0
  0
MTEXT
  5
C2
330
1F
100
AcDbEntity
  8
0
  6
Continuous
 62
     7
370
     0
100
AcDbMText
 10
660.147932235
 20
25.8001745491
 30
0.0
 40
3.0
 41
0.0
 71
     1
 72
     1
  1
xF 1:2
  7
SLDTEXTSTYLE0
 73
     1
 44
1.0
  0
MTEXT
  5
C3
330
1F
100
AcDbEntity
  8
0
  6
Continuous
 62
     7
370
     0
100
AcDbMText
 10
660.147932235
 20
49.7372756541
 30
0.0
 40
3.0
 41
0.0
 71
     1
 72
     1
  1
}F
  7
SLDTEXTSTYLE0
 73
     1
 44
1.0
  0
MTEXT
  5
C4
330
1F
100
AcDbEntity
  8
0
  6
Continuous
 62
     7
370
     0
100
AcDbMText
 10
660.4044222785
 20
93.1523584424
 30
0.0
 40
3.0
 41
0.0
 71
     1
 72
     1
  1
F
  7
SLDTEXTSTYLE0
 73
     1
 44
1.0
  0
MTEXT
  5
C5
330
1F
100
AcDbEntity
  8
0
  6
Continuous
 62
     7
370
     0
100
AcDbMText
 10
766.6551633987
 20
124.6698173609
 30
0.0
 40
3.0
 41
0.0
 71
     1
 72
     1
  1

  7
SLDTEXTSTYLE0
 73
     1
 44
1.0
  0
MTEXT
  5
C6
330
1F
100
AcDbEntity
  8
0
  6
Continuous
 62
     7
370
     0
100
AcDbMText
 10
694.5782007448
 20
125.0659871501
 30
0.0
 40
3.0
 41
0.0
 71
     1
 72
     1
  1
}s
  7
SLDTEXTSTYLE0
 73
     1
 44
1.0
  0
MTEXT
  5
C7
330
1F
100
AcDbEntity
  8
0
  6
Continuous
 62
     7
370
     0
100
AcDbMText
 10
571.2917246175
 20
51.9721125785
 30
0.0
 40
3.0
 41
0.0
 71
     1
 72
     1
  1
F
  7
SLDTEXTSTYLE0
 73
     1
 44
1.0
  0
MTEXT
  5
C8
330
1F
100
AcDbEntity
  8
0
  6
Continuous
 62
     7
370
     0
100
AcDbMText
 10
554.4294039314
 20
93.1523584424
 30
0.0
 40
3.0
 41
0.0
 71
     1
 72
     1
  1
@t
  7
SLDTEXTSTYLE0
 73
     1
 44
1.0
  0
MTEXT
  5
C9
330
1F
100
AcDbEntity
  8
0
  6
Continuous
 62
     7
370
     0
100
AcDbMText
 10
520.0671751264
 20
93.1235127591
 30
0.0
 40
3.0
 41
0.0
 71
     1
 72
     1
  1
@@@
  7
SLDTEXTSTYLE0
 73
     1
 44
1.0
  0
MTEXT
  5
CA
330
1F
100
AcDbEntity
  8
0
  6
Continuous
 62
     7
370
     0
100
AcDbMText
 10
488.6444784354
 20
93.0029652669
 30
0.0
 40
3.0
 41
0.0
 71
     1
 72
     1
  1
@O
  7
SLDTEXTSTYLE0
 73
     1
 44
1.0
  0
MTEXT
  5
CB
330
1F
100
AcDbEntity
  8
0
  6
Continuous
 62
     7
370
     0
100
AcDbMText
 10
622.6184313725
 20
128.0061825054
 30
0.0
 40
3.0
 41
0.0
 71
     1
 72
     1
  1
oAsp
  7
SLDTEXTSTYLE0
 73
     1
 44
1.0
  0
MTEXT
  5
CC
330
1F
100
AcDbEntity
  8
0
  6
Continuous
 62
     7
370
     0
100
AcDbMText
 10
528.7425843337
 20
127.8385439903
 30
0.0
 40
3.0
 41
0.0
 71
     1
 72
     1
  1
dF
  7
SLDTEXTSTYLE0
 73
     1
 44
1.0
  0
MTEXT
  5
CD
330
1F
100
AcDbEntity
  8
0
  6
Continuous
 62
     7
370
     0
100
AcDbMText
 10
461.1873374913
 20
127.8419429679
 30
0.0
 40
3.0
 41
0.0
 71
     1
 72
     1
  1
wF
  7
SLDTEXTSTYLE0
 73
     1
 44
1.0
  0
MTEXT
  5
CE
330
1F
100
AcDbEntity
  8
0
  6
Continuous
 62
     7
370
     0
100
AcDbMText
 10
461.1873374913
 20
122.8419430796
 30
0.0
 40
3.0
 41
0.0
 71
     1
 72
     1
  1
@~[^@
  7
SLDTEXTSTYLE0
 73
     1
 44
1.0
  0
MTEXT
  5
CF
330
1F
100
AcDbEntity
  8
0
  6
Continuous
 62
     7
370
     0
100
AcDbMText
 10
461.1873374913
 20
117.8419431914
 30
0.0
 40
3.0
 41
0.0
 71
     1
 72
     1
  1
\eF
  7
SLDTEXTSTYLE0
 73
     1
 44
1.0
  0
MTEXT
  5
D0
330
1F
100
AcDbEntity
  8
0
  6
Continuous
 62
     7
370
     0
100
AcDbMText
 10
461.1873374913
 20
112.8419433031
 30
0.0
 40
3.0
 41
0.0
 71
     1
 72
     1
  1
@@F
  7
SLDTEXTSTYLE0
 73
     1
 44
1.0
  0
MTEXT
  5
D1
330
1F
100
AcDbEntity
  8
0
  6
Continuous
 62
     7
370
     0
100
AcDbMText
 10
461.1873374913
 20
107.8419434149
 30
0.0
 40
3.0
 41
0.0
 71
     1
 72
     1
  1
@@@F
  7
SLDTEXTSTYLE0
 73
     1
 44
1.0
  0
MTEXT
  5
D2
330
1F
100
AcDbEntity
  8
0
  6
Continuous
 62
     7
370
     0
100
AcDbMText
 10
461.1873374913
 20
102.8419435267
 30
0.0
 40
3.0
 41
0.0
 71
     1
 72
     1
  1
@px@F
  7
SLDTEXTSTYLE0
 73
     1
 44
1.0
  0
MTEXT
  5
D3
330
1F
100
AcDbEntity
  8
0
  6
Continuous
 62
     7
370
     0
100
AcDbMText
 10
462.6742974792
 20
50.8235210218
 30
0.0
 40
3.0
 41
0.0
 71
     1
 72
     1
  1
i@
  7
SLDTEXTSTYLE0
 73
     1
 44
1.0
  0
MTEXT
  5
D4
330
1F
100
AcDbEntity
  8
0
  6
Continuous
 62
     7
370
     0
100
AcDbMText
 10
462.4010442847
 20
59.5916319084
 30
0.0
 40
3.0
 41
0.0
 71
     1
 72
     1
  1
@Y
  7
SLDTEXTSTYLE0
 73
     1
 44
1.0
  0
MTEXT
  5
D5
330
1F
100
AcDbEntity
  8
0
  6
Continuous
 62
     7
370
     0
100
AcDbMText
 10
462.2941161031
 20
68.2528146134
 30
0.0
 40
3.0
 41
0.0
 71
     1
 72
     1
  1
@F
  7
SLDTEXTSTYLE0
 73
     1
 44
1.0
  0
MTEXT
  5
D6
330
1F
100
AcDbEntity
  8
0
  6
Continuous
 62
     7
370
     0
100
AcDbMText
 10
462.3116090217
 20
76.4330369272
 30
0.0
 40
3.0
 41
0.0
 71
     1
 72
     1
  1
@}
  7
SLDTEXTSTYLE0
 73
     1
 44
1.0
  0
MTEXT
  5
D7
330
1F
100
AcDbEntity
  8
0
  6
Continuous
 62
     7
370
     0
100
AcDbMText
 10
462.3783483695
 20
84.983652379
 30
0.0
 40
3.0
 41
0.0
 71
     1
 72
     1
  1
@}
  7
SLDTEXTSTYLE0
 73
     1
 44
1.0
  0
ARC
  5
D8
330
1F
100
AcDbEntity
  8
0
  6
Continuous
 62
     7
370
    25
100
AcDbCircle
 10
269.3960878565
 20
398.4413264515
 30
0.0
 40
1.0
100
AcDbArc
 50
90.0
 51
270.0
  0
LINE
  5
D9
330
1F
100
AcDbEntity
  8
0
  6
Continuous
 62
     7
370
    25
100
AcDbLine
 10
269.3960878565
 20
394.4413264515
 30
0.0
 11
269.3960878565
 21
397.4413264515
 31
0.0
  0
ARC
  5
DA
330
1F
100
AcDbEntity
  8
0
  6
Continuous
 62
     7
370
    25
100
AcDbCircle
 10
269.3960878565
 20
393.4413264515
 30
0.0
 40
1.0
100
AcDbArc
 50
90.0
 51
270.0
  0
LINE
  5
DB
330
1F
100
AcDbEntity
  8
0
  6
Continuous
 62
     7
370
    25
100
AcDbLine
 10
271.8960878565
 20
392.4413264515
 30
0.0
 11
269.3960878565
 21
392.4413264515
 31
0.0
  0
LINE
  5
DC
330
1F
100
AcDbEntity
  8
0
  6
Continuous
 62
     7
370
    25
100
AcDbLine
 10
271.8960878565
 20
386.4413264515
 30
0.0
 11
271.8960878565
 21
392.4413264515
 31
0.0
  0
LINE
  5
DD
330
1F
100
AcDbEntity
  8
0
  6
Continuous
 62
     7
370
    25
100
AcDbLine
 10
269.3960878565
 20
386.4413264515
 30
0.0
 11
271.8960878565
 21
386.4413264515
 31
0.0
  0
ARC
  5
DE
330
1F
100
AcDbEntity
  8
0
  6
Continuous
 62
     7
370
    25
100
AcDbCircle
 10
269.3960878565
 20
385.4413264515
 30
0.0
 40
1.0
100
AcDbArc
 50
90.0
 51
270.0
  0
LINE
  5
DF
330
1F
100
AcDbEntity
  8
0
  6
Continuous
 62
     7
370
    25
100
AcDbLine
 10
269.3960878565
 20
381.4413264515
 30
0.0
 11
269.3960878565
 21
384.4413264515
 31
0.0
  0
ARC
  5
E0
330
1F
100
AcDbEntity
  8
0
  6
Continuous
 62
     7
370
    25
100
AcDbCircle
 10
269.3960878565
 20
380.4413264515
 30
0.0
 40
1.0
100
AcDbArc
 50
90.0
 51
270.0
  0
LINE
  5
E1
330
1F
100
AcDbEntity
  8
0
  6
Continuous
 62
     7
370
    25
100
AcDbLine
 10
289.3960878565
 20
379.4413264515
 30
0.0
 11
269.3960878565
 21
379.4413264515
 31
0.0
  0
LINE
  5
E2
330
1F
100
AcDbEntity
  8
0
  6
Continuous
 62
     7
370
    25
100
AcDbLine
 10
289.3960878565
 20
374.4413264515
 30
0.0
 11
289.3960878565
 21
379.4413264515
 31
0.0
  0
LINE
  5
E3
330
1F
100
AcDbEntity
  8
0
  6
Continuous
 62
     7
370
    25
100
AcDbLine
 10
267.1918045463
 20
374.4413264515
 30
0.0
 11
289.3960878565
 21
374.4413264515
 31
0.0
  0
ARC
  5
E4
330
1F
100
AcDbEntity
  8
0
  6
Continuous
 62
     7
370
    25
100
AcDbCircle
 10
267.1918045463
 20
363.4413264515
 30
0.0
 40
11.00000000000002
100
AcDbArc
 50
90.0
 51
150.0
  0
LINE
  5
E5
330
1F
100
AcDbEntity
  8
0
  6
Continuous
 62
     7
370
    25
100
AcDbLine
 10
230.8187375873
 20
322.4413264515
 30
0.0
 11
257.6655251046
 21
368.9413264515
 31
0.0
  0
LINE
  5
E6
330
1F
100
AcDbEntity
  8
0
  6
Continuous
 62
     7
370
    25
100
AcDbLine
 10
116.3960878565
 20
322.4413264515
 30
0.0
 11
230.8187375873
 21
322.4413264515
 31
0.0
  0
LINE
  5
E7
330
1F
100
AcDbEntity
  8
0
  6
Continuous
 62
     7
370
    25
100
AcDbLine
 10
116.3960878565
 20
395.4413264515
 30
0.0
 11
116.3960878565
 21
322.4413264515
 31
0.0
  0
ARC
  5
E8
330
1F
100
AcDbEntity
  8
0
  6
Continuous
 62
     7
370
    25
100
AcDbCircle
 10
125.3960878565
 20
395.4413264515
 30
0.0
 40
8.999999999999957
100
AcDbArc
 50
90.0
 51
180.0
  0
LINE
  5
E9
330
1F
100
AcDbEntity
  8
0
  6
Continuous
 62
     7
370
    25
100
AcDbLine
 10
276.3960878565
 20
404.4413264515
 30
0.0
 11
125.3960878565
 21
404.4413264515
 31
0.0
  0
LINE
  5
EA
330
1F
100
AcDbEntity
  8
0
  6
Continuous
 62
     7
370
    25
100
AcDbLine
 10
276.3960878565
 20
404.4413264515
 30
0.0
 11
276.3960878565
 21
399.4413264515
 31
0.0
  0
CIRCLE
  5
EB
330
1F
100
AcDbEntity
  8
0
  6
Continuous
 62
     7
370
    25
100
AcDbCircle
 10
157.1960878565
 20
328.9413264515
 30
0.0
 40
2.94999999999996
  0
CIRCLE
  5
EC
330
1F
100
AcDbEntity
  8
0
  6
Continuous
 62
     7
370
    25
100
AcDbCircle
 10
223.8960878565
 20
328.9413264515
 30
0.0
 40
2.799999999999955
  0
CIRCLE
  5
ED
330
1F
100
AcDbEntity
  8
0
  6
Continuous
 62
     7
370
    25
100
AcDbCircle
 10
195.8960878565
 20
328.9413264515
 30
0.0
 40
2.94999999999996
  0
ARC
  5
EE
330
1F
100
AcDbEntity
  8
0
  6
Continuous
 62
     7
370
    25
100
AcDbCircle
 10
121.3960878565
 20
372.9413264515
 30
0.0
 40
2.0
100
AcDbArc
 50
180.0
 51
270.0
  0
LINE
  5
EF
330
1F
100
AcDbEntity
  8
0
  6
Continuous
 62
     7
370
    25
100
AcDbLine
 10
121.3960878565
 20
370.9413264515
 30
0.0
 11
125.3960878565
 21
370.9413264515
 31
0.0
  0
ARC
  5
F0
330
1F
100
AcDbEntity
  8
0
  6
Continuous
 62
     7
370
    25
100
AcDbCircle
 10
125.3960878565
 20
368.9413264515
 30
0.0
 40
2.0
100
AcDbArc
 50
0.0
 51
90.0
  0
LINE
  5
F1
330
1F
100
AcDbEntity
  8
0
  6
Continuous
 62
     7
370
    25
100
AcDbLine
 10
127.3960878565
 20
368.9413264515
 30
0.0
 11
127.3960878565
 21
364.9413264515
 31
0.0
  0
ARC
  5
F2
330
1F
100
AcDbEntity
  8
0
  6
Continuous
 62
     7
370
    25
100
AcDbCircle
 10
125.3960878565
 20
364.9413264515
 30
0.0
 40
2.0
100
AcDbArc
 50
270.0
 51
0.0
  0
LINE
  5
F3
330
1F
100
AcDbEntity
  8
0
  6
Continuous
 62
     7
370
    25
100
AcDbLine
 10
125.3960878565
 20
362.9413264515
 30
0.0
 11
121.3960878565
 21
362.9413264515
 31
0.0
  0
ARC
  5
F4
330
1F
100
AcDbEntity
  8
0
  6
Continuous
 62
     7
370
    25
100
AcDbCircle
 10
121.3960878565
 20
360.9413264515
 30
0.0
 40
2.0
100
AcDbArc
 50
90.0
 51
180.0
  0
ARC
  5
F5
330
1F
100
AcDbEntity
  8
0
  6
Continuous
 62
     7
370
    25
100
AcDbCircle
 10
121.3960878565
 20
342.4413264515
 30
0.0
 40
2.0
100
AcDbArc
 50
180.0
 51
270.0
  0
LINE
  5
F6
330
1F
100
AcDbEntity
  8
0
  6
Continuous
 62
     7
370
    25
100
AcDbLine
 10
121.3960878565
 20
340.4413264515
 30
0.0
 11
134.8885052342
 21
340.4413264515
 31
0.0
  0
ARC
  5
F7
330
1F
100
AcDbEntity
  8
0
  6
Continuous
 62
     7
370
    25
100
AcDbCircle
 10
134.8885052342
 20
342.4413264515
 30
0.0
 40
2.0
100
AcDbArc
 50
270.0
 51
298.1852984321
  0
LINE
  5
F8
330
1F
100
AcDbEntity
  8
0
  6
Continuous
 62
     7
370
    25
100
AcDbLine
 10
135.8331544642
 20
340.678477101
 30
0.0
 11
242.2032332043
 21
397.678477101
 31
0.0
  0
ARC
  5
F9
330
1F
100
AcDbEntity
  8
0
  6
Continuous
 62
     7
370
    25
100
AcDbCircle
 10
241.2585839743
 20
399.4413264515
 30
0.0
 40
2.000000000000049
100
AcDbArc
 50
298.1852984321
 51
90.0
  0
LINE
  5
FA
330
1F
100
AcDbEntity
  8
0
  6
Continuous
 62
     7
370
    25
100
AcDbLine
 10
241.2585839743
 20
401.4413264515
 30
0.0
 11
125.3960878565
 21
401.4413264515
 31
0.0
  0
ARC
  5
FB
330
1F
100
AcDbEntity
  8
0
  6
Continuous
 62
     7
370
    25
100
AcDbCircle
 10
125.3960878565
 20
395.4413264515
 30
0.0
 40
6.0
100
AcDbArc
 50
90.0
 51
180.0
  0
LINE
  5
FC
330
1F
100
AcDbEntity
  8
0
  6
Continuous
 62
     7
370
    25
100
AcDbLine
 10
119.3960878565
 20
395.4413264515
 30
0.0
 11
119.3960878565
 21
372.9413264515
 31
0.0
  0
ARC
  5
FD
330
1F
100
AcDbEntity
  8
0
  6
Continuous
 62
     7
370
    25
100
AcDbCircle
 10
263.3960878565
 20
388.8669522937
 30
0.0
 40
2.000000000000045
100
AcDbArc
 50
330.0
 51
0.0
  0
LINE
  5
FE
330
1F
100
AcDbEntity
  8
0
  6
Continuous
 62
     7
370
    25
100
AcDbLine
 10
265.3960878565
 20
388.8669522937
 30
0.0
 11
265.3960878565
 21
399.4413264515
 31
0.0
  0
ARC
  5
FF
330
1F
100
AcDbEntity
  8
0
  6
Continuous
 62
     7
370
    25
100
AcDbCircle
 10
263.3960878565
 20
399.4413264515
 30
0.0
 40
2.0
100
AcDbArc
 50
360.0
 51
90.0
  0
LINE
  5
100
330
1F
100
AcDbEntity
  8
0
  6
Continuous
 62
     7
370
    25
100
AcDbLine
 10
263.3960878565
 20
401.4413264515
 30
0.0
 11
258.1960878565
 21
401.4413264515
 31
0.0
  0
ARC
  5
101
330
1F
100
AcDbEntity
  8
0
  6
Continuous
 62
     7
370
    25
100
AcDbCircle
 10
258.1960878565
 20
399.4413264515
 30
0.0
 40
2.0
100
AcDbArc
 50
90.0
 51
118.1852984321
  0
LINE
  5
102
330
1F
100
AcDbEntity
  8
0
  6
Continuous
 62
     7
370
    25
100
AcDbLine
 10
257.2514386265
 20
401.2041758019
 30
0.0
 11
144.7230921698
 21
340.9041758019
 31
0.0
  0
ARC
  5
103
330
1F
100
AcDbEntity
  8
0
  6
Continuous
 62
     7
370
    25
100
AcDbCircle
 10
145.6677413998
 20
339.1413264515
 30
0.0
 40
2.0
100
AcDbArc
 50
118.1852984321
 51
270.0
  0
LINE
  5
104
330
1F
100
AcDbEntity
  8
0
  6
Continuous
 62
     7
370
    25
100
AcDbLine
 10
145.6677413998
 20
337.1413264515
 30
0.0
 11
234.6869843909
 21
337.1413264515
 31
0.0
  0
ARC
  5
105
330
1F
100
AcDbEntity
  8
0
  6
Continuous
 62
     7
370
    25
100
AcDbCircle
 10
234.6869843909
 20
339.1413264515
 30
0.0
 40
2.0
100
AcDbArc
 50
270.0
 51
330.0
  0
LINE
  5
106
330
1F
100
AcDbEntity
  8
0
  6
Continuous
 62
     7
370
    25
100
AcDbLine
 10
236.4190351984
 20
338.1413264515
 30
0.0
 11
265.1281386641
 21
387.8669522937
 31
0.0
  0
LINE
  5
107
330
1F
100
AcDbEntity
  8
0
  6
Continuous
 62
     7
370
    25
100
AcDbLine
 10
126.1960878565
 20
326.2413264515
 30
0.0
 11
124.1960878565
 21
326.2413264515
 31
0.0
  0
ARC
  5
108
330
1F
100
AcDbEntity
  8
0
  6
Continuous
 62
     7
370
    25
100
AcDbCircle
 10
126.1960878565
 20
328.9413264515
 30
0.0
 40
2.699999999999989
100
AcDbArc
 50
270.0
 51
90.0
  0
LINE
  5
109
330
1F
100
AcDbEntity
  8
0
  6
Continuous
 62
     7
370
    25
100
AcDbLine
 10
124.1960878565
 20
331.6413264515
 30
0.0
 11
126.1960878565
 21
331.6413264515
 31
0.0
  0
ARC
  5
10A
330
1F
100
AcDbEntity
  8
0
  6
Continuous
 62
     7
370
    25
100
AcDbCircle
 10
124.1960878565
 20
328.9413264515
 30
0.0
 40
2.699999999999989
100
AcDbArc
 50
90.0
 51
270.0
  0
LINE
  5
10B
330
1F
100
AcDbEntity
  8
0
  6
Continuous
 62
     7
370
    25
100
AcDbLine
 10
119.3960878565
 20
360.9413264515
 30
0.0
 11
119.3960878565
 21
342.4413264515
 31
0.0
  0
LINE
  5
10C
330
1F
100
AcDbEntity
  8
0
  6
Continuous
 62
     7
370
    25
100
AcDbLine
 10
269.3960878565
 20
399.4413264515
 30
0.0
 11
276.3960878565
 21
399.4413264515
 31
0.0
  0
LINE
  5
10D
330
1F
100
AcDbEntity
  8
0
  6
Continuous
 62
     7
370
    25
100
AcDbLine
 10
125.3960878565
 20
404.4413264515
 30
0.0
 11
125.3960878565
 21
405.4413264515
 31
0.0
  0
LINE
  5
10E
330
1F
100
AcDbEntity
  8
0
  6
Continuous
 62
     7
370
    25
100
AcDbLine
 10
125.3960878565
 20
405.4413264515
 30
0.0
 11
275.3960878565
 21
405.4413264515
 31
0.0
  0
LINE
  5
10F
330
1F
100
AcDbEntity
  8
0
  6
Continuous
 62
     7
370
    25
100
AcDbLine
 10
276.3960878565
 20
404.4413264515
 30
0.0
 11
275.3960878565
 21
405.4413264515
 31
0.0
  0
LINE
  5
110
330
1F
100
AcDbEntity
  8
0
  6
Continuous
 62
     7
370
    25
100
AcDbLine
 10
230.8187375873
 20
322.4413264515
 30
0.0
 11
230.8187375873
 21
321.4413264515
 31
0.0
  0
LINE
  5
111
330
1F
100
AcDbEntity
  8
0
  6
Continuous
 62
     7
370
    25
100
AcDbLine
 10
230.8187375873
 20
321.4413264515
 30
0.0
 11
116.3960878565
 21
321.4413264515
 31
0.0
  0
LINE
  5
112
330
1F
100
AcDbEntity
  8
0
  6
Continuous
 62
     7
370
    25
100
AcDbLine
 10
116.3960878565
 20
322.4413264515
 30
0.0
 11
116.3960878565
 21
321.4413264515
 31
0.0
  0
CIRCLE
  5
113
330
1F
100
AcDbEntity
  8
0
  6
Continuous
 62
     7
370
    25
100
AcDbCircle
 10
223.8960878565
 20
328.9413264515
 30
0.0
 40
2.5
  0
CIRCLE
  5
114
330
1F
100
AcDbEntity
  8
0
  6
Continuous
 62
     7
370
    25
100
AcDbCircle
 10
157.1960878565
 20
328.9413264515
 30
0.0
 40
2.650000000000006
  0
LINE
  5
115
330
1F
100
AcDbEntity
  8
0
  6
Continuous
 62
     7
370
    25
100
AcDbLine
 10
267.1918045463
 20
374.4413264515
 30
0.0
 11
267.1918045463
 21
373.4413264515
 31
0.0
  0
LINE
  5
116
330
1F
100
AcDbEntity
  8
0
  6
Continuous
 62
     7
370
    25
100
AcDbLine
 10
288.3960878565
 20
373.4413264515
 30
0.0
 11
267.1918045463
 21
373.4413264515
 31
0.0
  0
LINE
  5
117
330
1F
100
AcDbEntity
  8
0
  6
Continuous
 62
     7
370
    25
100
AcDbLine
 10
288.3960878565
 20
373.4413264515
 30
0.0
 11
289.3960878565
 21
374.4413264515
 31
0.0
  0
CIRCLE
  5
118
330
1F
100
AcDbEntity
  8
0
  6
Continuous
 62
     7
370
    25
100
AcDbCircle
 10
195.8960878565
 20
328.9413264515
 30
0.0
 40
2.650000000000006
  0
ARC
  5
119
330
1F
100
AcDbEntity
  8
0
  6
Continuous
 62
     7
370
    25
100
AcDbCircle
 10
267.1918045463
 20
363.4413264515
 30
0.0
 40
10.0
100
AcDbArc
 50
90.0
 51
150.0
  0
LINE
  5
11A
330
1F
100
AcDbEntity
  8
0
  6
Continuous
 62
     7
370
    25
100
AcDbLine
 10
257.6655251046
 20
368.9413264515
 30
0.0
 11
258.5315505084
 21
368.4413264515
 31
0.0
  0
LINE
  5
11B
330
1F
100
AcDbEntity
  8
0
  6
Continuous
 62
     7
370
    25
100
AcDbLine
 10
116.3960878565
 20
395.4413264515
 30
0.0
 11
115.3960878565
 21
395.4413264515
 31
0.0
  0
ARC
  5
11C
330
1F
100
AcDbEntity
  8
0
  6
Continuous
 62
     7
370
    25
100
AcDbCircle
 10
125.3960878565
 20
395.4413264515
 30
0.0
 40
9.999999999999986
100
AcDbArc
 50
90.0
 51
180.0
  0
LINE
  5
11D
330
1F
100
AcDbEntity
  8
0
  6
Continuous
 62
     7
370
    25
100
AcDbLine
 10
116.3960878565
 20
322.4413264515
 30
0.0
 11
115.3960878565
 21
322.4413264515
 31
0.0
  0
LINE
  5
11E
330
1F
100
AcDbEntity
  8
0
  6
Continuous
 62
     7
370
    25
100
AcDbLine
 10
115.3960878565
 20
322.4413264515
 30
0.0
 11
115.3960878565
 21
395.4413264515
 31
0.0
  0
ARC
  5
11F
330
1F
100
AcDbEntity
  8
0
  6
Continuous
 62
     7
370
    25
100
AcDbCircle
 10
116.3960878565
 20
322.4413264515
 30
0.0
 40
1.0
100
AcDbArc
 50
180.0
 51
270.0
  0
LINE
  5
120
330
1F
100
AcDbEntity
  8
0
  6
Continuous
 62
     7
370
    25
100
AcDbLine
 10
230.8187375873
 20
322.4413264515
 30
0.0
 11
231.6847629911
 21
321.9413264515
 31
0.0
  0
ARC
  5
121
330
1F
100
AcDbEntity
  8
0
  6
Continuous
 62
     7
370
    25
100
AcDbCircle
 10
230.8187375873
 20
322.4413264515
 30
0.0
 40
1.0
100
AcDbArc
 50
270.0
 51
330.0
  0
LINE
  5
122
330
1F
100
AcDbEntity
  8
0
  6
Continuous
 62
     7
370
    25
100
AcDbLine
 10
258.5315505084
 20
368.4413264515
 30
0.0
 11
231.6847629911
 21
321.9413264515
 31
0.0
  0
ARC
  5
123
330
1F
100
AcDbEntity
  8
0
  6
Continuous
 62
     7
370
    25
100
AcDbCircle
 10
126.1960878565
 20
328.9413264515
 30
0.0
 40
2.500000000000057
100
AcDbArc
 50
270.0
 51
90.0
  0
LINE
  5
124
330
1F
100
AcDbEntity
  8
0
  6
Continuous
 62
     7
370
    25
100
AcDbLine
 10
126.1960878565
 20
331.4413264515
 30
0.0
 11
126.1960878565
 21
331.6413264515
 31
0.0
  0
LINE
  5
125
330
1F
100
AcDbEntity
  8
0
  6
Continuous
 62
     7
370
    25
100
AcDbLine
 10
126.1960878565
 20
326.4413264515
 30
0.0
 11
126.1960878565
 21
326.2413264515
 31
0.0
  0
LINE
  5
126
330
1F
100
AcDbEntity
  8
0
  6
Continuous
 62
     7
370
    25
100
AcDbLine
 10
124.1960878565
 20
331.6413264515
 30
0.0
 11
124.1960878565
 21
331.4413264515
 31
0.0
  0
ARC
  5
127
330
1F
100
AcDbEntity
  8
0
  6
Continuous
 62
     7
370
    25
100
AcDbCircle
 10
124.1960878565
 20
328.9413264515
 30
0.0
 40
2.500000000000057
100
AcDbArc
 50
90.0
 51
270.0
  0
LINE
  5
128
330
1F
100
AcDbEntity
  8
0
  6
Continuous
 62
     7
370
    25
100
AcDbLine
 10
124.1960878565
 20
326.2413264515
 30
0.0
 11
124.1960878565
 21
326.4413264515
 31
0.0
  0
LINE
  5
129
330
1F
100
AcDbEntity
  8
0
  6
Continuous
 62
     7
370
    25
100
AcDbLine
 10
126.1960878565
 20
331.4413264515
 30
0.0
 11
124.1960878565
 21
331.4413264515
 31
0.0
  0
LINE
  5
12A
330
1F
100
AcDbEntity
  8
0
  6
Continuous
 62
     7
370
    25
100
AcDbLine
 10
124.1960878565
 20
326.4413264515
 30
0.0
 11
126.1960878565
 21
326.4413264515
 31
0.0
  0
POINT
  5
12B
330
1F
100
AcDbEntity
  8
0
  6
Continuous
 62
     7
370
     0
100
AcDbPoint
 10
126.1960878565
 20
328.9413264515
 30
0.0
  0
POINT
  5
12C
330
1F
100
AcDbEntity
  8
0
  6
Continuous
 62
     7
370
     0
100
AcDbPoint
 10
124.1960878565
 20
328.9413264515
 30
0.0
  0
DIMENSION
  5
12D
330
1F
100
AcDbEntity
  8
0
  6
Continuous
 62
     7
370
    18
100
AcDbDimension
  2
_D
 10
126.1960878565
 20
310.2486147653
 30
0.0
 11
140.9007006633
 21
310.2486147653
 31
0.0
 70
   160
  1
<>
 71
     2
 42
-1.0
  3
SLDDIMSTYLE0
100
AcDbAlignedDimension
 13
124.1960878565
 23
328.9413264515
 33
0.0
 14
126.1960878565
 24
328.9413264515
 34
0.0
100
AcDbRotatedDimension
  0
DIMENSION
  5
141
330
1F
100
AcDbEntity
  8
0
  6
Continuous
 62
     7
370
    18
100
AcDbDimension
  2
_D_1
 10
223.0668660222
 20
331.2997986581
 30
0.0
 11
240.6086674608
 21
281.4074951963
 31
0.0
 70
   163
  1
<>\SH8^ ;
 71
     1
 42
-1.0
  3
SLDDIMSTYLE1
100
AcDbDiametricDimension
 15
224.7253096908
 25
326.5828542448
 35
0.0
 40
0.0
  0
DIMENSION
  5
156
330
1F
100
AcDbEntity
  8
0
  6
Continuous
 62
     7
370
    18
100
AcDbDimension
  2
_D_2
 10
158.3164130991
 20
326.5397912444
 30
0.0
 11
137.1481681375
 21
371.9162177041
 31
0.0
 70
   163
  1
2x <>
 71
     1
 42
-1.0
  3
SLDDIMSTYLE2
100
AcDbDiametricDimension
 15
156.0757626138
 25
331.3428616585
 35
0.0
 40
0.0
  0
DIMENSION
  5
161
330
1F
100
AcDbEntity
  8
0
  6
Continuous
 62
     7
370
    18
100
AcDbDimension
  2
_D_3
 10
223.8960878565
 20
305.3201374626
 30
0.0
 11
174.8559626108
 21
305.3201374626
 31
0.0
 70
   160
  1
<>
 71
     2
 42
-1.0
  3
SLDDIMSTYLE3
100
AcDbAlignedDimension
 13
125.1960878565
 23
328.9413264515
 33
0.0
 14
223.8960878565
 24
328.9413264515
 34
0.0
100
AcDbRotatedDimension
  0
DIMENSION
  5
16C
330
1F
100
AcDbEntity
  8
0
  6
Continuous
 62
     7
370
    18
100
AcDbDimension
  2
_D_4
 10
108.3185583726
 20
326.4413264515
 30
0.0
 11
108.3185583726
 21
291.5607241516
 31
0.0
 70
   160
  1
<>
 71
     2
 42
-1.0
  3
SLDDIMSTYLE4
100
AcDbAlignedDimension
 13
124.1960878565
 23
331.4413264515
 33
0.0
 14
124.1960878565
 24
326.4413264515
 34
0.0
 50
90.0
100
AcDbRotatedDimension
  0
DIMENSION
  5
17E
330
1F
100
AcDbEntity
  8
0
  6
Continuous
 62
     7
370
    18
100
AcDbDimension
  2
_D_5
 10
98.8346422492
 20
405.4413264515
 30
0.0
 11
98.8346422492
 21
361.9305269844
 31
0.0
 70
   160
  1
<>
 71
     2
 42
-1.0
  3
SLDDIMSTYLE5
100
AcDbAlignedDimension
 13
116.3960878565
 23
321.4413264515
 33
0.0
 14
125.3960878565
 24
405.4413264515
 34
0.0
 50
90.0
100
AcDbRotatedDimension
  0
INSERT
  5
194
330
1F
100
AcDbEntity
  8
0
  6
Continuous
 62
     7
370
     0
100
AcDbBlockReference
  2
SW_CENTERMARKSYMBOL_0
 10
195.8960878565
 20
328.9413264515
 30
0.0
  0
INSERT
  5
1A0
330
1F
100
AcDbEntity
  8
0
  6
Continuous
 62
     7
370
     0
100
AcDbBlockReference
  2
SW_CENTERMARKSYMBOL_1
 10
157.1960878565
 20
328.9413264515
 30
0.0
  0
INSERT
  5
1A7
330
1F
100
AcDbEntity
  8
0
  6
Continuous
 62
     7
370
     0
100
AcDbBlockReference
  2
SW_DOWELSYMBOL_0
 10
223.8960878565
 20
328.9413264515
 30
0.0
  0
LINE
  5
1A8
330
1F
100
AcDbEntity
  8
0
  6
Continuous
 62
     7
370
    25
100
AcDbLine
 10
345.9189317041
 20
374.4413264515
 30
0.0
 11
355.9189317041
 21
374.4413264515
 31
0.0
  0
LINE
  5
1A9
330
1F
100
AcDbEntity
  8
0
  6
Continuous
 62
     7
370
    25
100
AcDbLine
 10
355.9189317041
 20
374.4413264515
 30
0.0
 11
354.9189317041
 21
373.4413264515
 31
0.0
  0
LINE
  5
1AA
330
1F
100
AcDbEntity
  8
0
  6
Continuous
 62
     7
370
    25
100
AcDbLine
 10
354.9189317041
 20
373.4413264515
 30
0.0
 11
346.9189317041
 21
373.4413264515
 31
0.0
  0
LINE
  5
1AB
330
1F
100
AcDbEntity
  8
0
  6
Continuous
 62
     7
370
    25
100
AcDbLine
 10
346.9189317041
 20
373.4413264515
 30
0.0
 11
345.9189317041
 21
374.4413264515
 31
0.0
  0
LINE
  5
1AC
330
1F
100
AcDbEntity
  8
0
  6
Continuous
 62
     7
370
    25
100
AcDbLine
 10
345.9189317041
 20
379.4413264515
 30
0.0
 11
355.9189317041
 21
379.4413264515
 31
0.0
  0
LINE
  5
1AD
330
1F
100
AcDbEntity
  8
0
  6
Continuous
 62
     7
370
    25
100
AcDbLine
 10
345.9189317041
 20
374.4413264515
 30
0.0
 11
345.9189317041
 21
379.4413264515
 31
0.0
  0
LINE
  5
1AE
330
1F
100
AcDbEntity
  8
0
  6
Continuous
 62
     7
370
    25
100
AcDbLine
 10
355.9189317041
 20
374.4413264515
 30
0.0
 11
355.9189317041
 21
379.4413264515
 31
0.0
  0
LINE
  5
1AF
330
1F
100
AcDbEntity
  8
0
  6
Continuous
 62
     7
370
    25
100
AcDbLine
 10
345.9189317041
 20
399.4413264515
 30
0.0
 11
355.9189317041
 21
399.4413264515
 31
0.0
  0
LINE
  5
1B0
330
1F
100
AcDbEntity
  8
0
  6
Continuous
 62
     7
370
    25
100
AcDbLine
 10
355.9189317041
 20
404.4413264515
 30
0.0
 11
345.9189317041
 21
404.4413264515
 31
0.0
  0
LINE
  5
1B1
330
1F
100
AcDbEntity
  8
0
  6
Continuous
 62
     7
370
    25
100
AcDbLine
 10
345.9189317041
 20
404.4413264515
 30
0.0
 11
345.9189317041
 21
399.4413264515
 31
0.0
  0
LINE
  5
1B2
330
1F
100
AcDbEntity
  8
0
  6
Continuous
 62
     7
370
    25
100
AcDbLine
 10
355.9189317041
 20
404.4413264515
 30
0.0
 11
355.9189317041
 21
399.4413264515
 31
0.0
  0
LINE
  5
1B3
330
1F
100
AcDbEntity
  8
0
  6
Continuous
 62
     7
370
    25
100
AcDbLine
 10
345.9189317041
 20
404.4413264515
 30
0.0
 11
346.9189317041
 21
405.4413264515
 31
0.0
  0
LINE
  5
1B4
330
1F
100
AcDbEntity
  8
0
  6
Continuous
 62
     7
370
    25
100
AcDbLine
 10
346.9189317041
 20
405.4413264515
 30
0.0
 11
354.9189317041
 21
405.4413264515
 31
0.0
  0
LINE
  5
1B5
330
1F
100
AcDbEntity
  8
0
  6
Continuous
 62
     7
370
    25
100
AcDbLine
 10
354.9189317041
 20
405.4413264515
 30
0.0
 11
355.9189317041
 21
404.4413264515
 31
0.0
  0
LINE
  5
1B6
330
1F
100
AcDbEntity
  8
0
  6
Continuous
 62
     7
370
    25
100
AcDbLine
 10
345.9189317041
 20
386.4413264515
 30
0.0
 11
355.9189317041
 21
386.4413264515
 31
0.0
  0
LINE
  5
1B7
330
1F
100
AcDbEntity
  8
0
  6
Continuous
 62
     7
370
    25
100
AcDbLine
 10
345.9189317041
 20
392.4413264515
 30
0.0
 11
355.9189317041
 21
392.4413264515
 31
0.0
  0
LINE
  5
1B8
330
1F
100
AcDbEntity
  8
0
  6
Continuous
 62
     7
370
    25
100
AcDbLine
 10
345.9189317041
 20
386.4413264515
 30
0.0
 11
345.9189317041
 21
392.4413264515
 31
0.0
  0
LINE
  5
1B9
330
1F
100
AcDbEntity
  8
0
  6
Continuous
 62
     7
370
    25
100
AcDbLine
 10
355.9189317041
 20
386.4413264515
 30
0.0
 11
355.9189317041
 21
392.4413264515
 31
0.0
  0
LINE
  5
1BA
330
1F
100
AcDbEntity
  8
0
  6
Continuous
 62
     7
370
    25
100
AcDbLine
 10
345.9189317041
 20
384.4413264515
 30
0.0
 11
355.9189317041
 21
384.4413264515
 31
0.0
  0
LINE
  5
1BB
330
1F
100
AcDbEntity
  8
0
  6
Continuous
 62
     7
370
    25
100
AcDbLine
 10
345.9189317041
 20
384.4413264515
 30
0.0
 11
345.9189317041
 21
386.4413264515
 31
0.0
  0
LINE
  5
1BC
330
1F
100
AcDbEntity
  8
0
  6
Continuous
 62
     7
370
    25
100
AcDbLine
 10
355.9189317041
 20
384.4413264515
 30
0.0
 11
355.9189317041
 21
386.4413264515
 31
0.0
  0
LINE
  5
1BD
330
1F
100
AcDbEntity
  8
0
  6
Continuous
 62
     7
370
    25
100
AcDbLine
 10
345.9189317041
 20
381.4413264515
 30
0.0
 11
355.9189317041
 21
381.4413264515
 31
0.0
  0
LINE
  5
1BE
330
1F
100
AcDbEntity
  8
0
  6
Continuous
 62
     7
370
    25
100
AcDbLine
 10
345.9189317041
 20
379.4413264515
 30
0.0
 11
345.9189317041
 21
381.4413264515
 31
0.0
  0
LINE
  5
1BF
330
1F
100
AcDbEntity
  8
0
  6
Continuous
 62
     7
370
    25
100
AcDbLine
 10
355.9189317041
 20
379.4413264515
 30
0.0
 11
355.9189317041
 21
381.4413264515
 31
0.0
  0
LINE
  5
1C0
330
1F
100
AcDbEntity
  8
0
  6
Continuous
 62
     7
370
    25
100
AcDbLine
 10
345.9189317041
 20
394.4413264515
 30
0.0
 11
355.9189317041
 21
394.4413264515
 31
0.0
  0
LINE
  5
1C1
330
1F
100
AcDbEntity
  8
0
  6
Continuous
 62
     7
370
    25
100
AcDbLine
 10
345.9189317041
 20
392.4413264515
 30
0.0
 11
345.9189317041
 21
394.4413264515
 31
0.0
  0
LINE
  5
1C2
330
1F
100
AcDbEntity
  8
0
  6
Continuous
 62
     7
370
    25
100
AcDbLine
 10
355.9189317041
 20
392.4413264515
 30
0.0
 11
355.9189317041
 21
394.4413264515
 31
0.0
  0
LINE
  5
1C3
330
1F
100
AcDbEntity
  8
0
  6
Continuous
 62
     7
370
    25
100
AcDbLine
 10
345.9189317041
 20
397.4413264515
 30
0.0
 11
355.9189317041
 21
397.4413264515
 31
0.0
  0
LINE
  5
1C4
330
1F
100
AcDbEntity
  8
0
  6
Continuous
 62
     7
370
    25
100
AcDbLine
 10
345.9189317041
 20
394.4413264515
 30
0.0
 11
345.9189317041
 21
397.4413264515
 31
0.0
  0
LINE
  5
1C5
330
1F
100
AcDbEntity
  8
0
  6
Continuous
 62
     7
370
    25
100
AcDbLine
 10
355.9189317041
 20
394.4413264515
 30
0.0
 11
355.9189317041
 21
397.4413264515
 31
0.0
  0
LINE
  5
1C6
330
1F
100
AcDbEntity
  8
0
  6
Continuous
 62
     7
370
    25
100
AcDbLine
 10
345.9189317041
 20
381.4413264515
 30
0.0
 11
345.9189317041
 21
384.4413264515
 31
0.0
  0
LINE
  5
1C7
330
1F
100
AcDbEntity
  8
0
  6
Continuous
 62
     7
370
    25
100
AcDbLine
 10
355.9189317041
 20
381.4413264515
 30
0.0
 11
355.9189317041
 21
384.4413264515
 31
0.0
  0
LINE
  5
1C8
330
1F
100
AcDbEntity
  8
0
  6
Continuous
 62
     7
370
    25
100
AcDbLine
 10
345.9189317041
 20
397.4413264515
 30
0.0
 11
345.9189317041
 21
399.4413264515
 31
0.0
  0
LINE
  5
1C9
330
1F
100
AcDbEntity
  8
0
  6
Continuous
 62
     7
370
    25
100
AcDbLine
 10
355.9189317041
 20
397.4413264515
 30
0.0
 11
355.9189317041
 21
399.4413264515
 31
0.0
  0
LINE
  5
1CA
330
1F
100
AcDbEntity
  8
0
  6
Continuous
 62
     7
370
    25
100
AcDbLine
 10
354.9189317041
 20
368.4413264515
 30
0.0
 11
354.9189317041
 21
373.4413264515
 31
0.0
  0
LINE
  5
1CB
330
1F
100
AcDbEntity
  8
0
  6
Continuous
 62
     7
370
    25
100
AcDbLine
 10
346.9189317041
 20
368.4413264515
 30
0.0
 11
354.9189317041
 21
368.4413264515
 31
0.0
  0
LINE
  5
1CC
330
1F
100
AcDbEntity
  8
0
  6
Continuous
 62
     7
370
    25
100
AcDbLine
 10
346.9189317041
 20
373.4413264515
 30
0.0
 11
346.9189317041
 21
368.4413264515
 31
0.0
  0
LINE
  5
1CD
330
1F
100
AcDbEntity
  8
0
  6
Continuous
 62
     7
370
    25
100
AcDbLine
 10
354.9189317041
 20
368.4413264515
 30
0.0
 11
355.9189317041
 21
368.9413264515
 31
0.0
  0
LINE
  5
1CE
330
1F
100
AcDbEntity
  8
0
  6
Continuous
 62
     7
370
    25
100
AcDbLine
 10
355.9189317041
 20
374.4413264515
 30
0.0
 11
355.9189317041
 21
368.9413264515
 31
0.0
  0
LINE
  5
1CF
330
1F
100
AcDbEntity
  8
0
  6
Continuous
 62
     7
370
    25
100
AcDbLine
 10
345.9189317041
 20
368.9413264515
 30
0.0
 11
346.9189317041
 21
368.4413264515
 31
0.0
  0
LINE
  5
1D0
330
1F
100
AcDbEntity
  8
0
  6
Continuous
 62
     7
370
    25
100
AcDbLine
 10
345.9189317041
 20
368.9413264515
 30
0.0
 11
345.9189317041
 21
374.4413264515
 31
0.0
  0
LINE
  5
1D1
330
1F
100
AcDbEntity
  8
0
  6
Continuous
 62
     7
370
    25
100
AcDbLine
 10
354.9189317041
 20
321.9413264515
 30
0.0
 11
354.9189317041
 21
368.4413264515
 31
0.0
  0
LINE
  5
1D2
330
1F
100
AcDbEntity
  8
0
  6
Continuous
 62
     7
370
    25
100
AcDbLine
 10
354.9189317041
 20
321.9413264515
 30
0.0
 11
355.9189317041
 21
322.4413264515
 31
0.0
  0
LINE
  5
1D3
330
1F
100
AcDbEntity
  8
0
  6
Continuous
 62
     7
370
    25
100
AcDbLine
 10
355.9189317041
 20
368.9413264515
 30
0.0
 11
355.9189317041
 21
322.4413264515
 31
0.0
  0
LINE
  5
1D4
330
1F
100
AcDbEntity
  8
0
  6
Continuous
 62
     7
370
    25
100
AcDbLine
 10
346.9189317041
 20
321.9413264515
 30
0.0
 11
354.9189317041
 21
321.9413264515
 31
0.0
  0
LINE
  5
1D5
330
1F
100
AcDbEntity
  8
0
  6
Continuous
 62
     7
370
    25
100
AcDbLine
 10
346.9189317041
 20
368.4413264515
 30
0.0
 11
346.9189317041
 21
321.9413264515
 31
0.0
  0
LINE
  5
1D6
330
1F
100
AcDbEntity
  8
0
  6
Continuous
 62
     7
370
    25
100
AcDbLine
 10
345.9189317041
 20
322.4413264515
 30
0.0
 11
346.9189317041
 21
321.9413264515
 31
0.0
  0
LINE
  5
1D7
330
1F
100
AcDbEntity
  8
0
  6
Continuous
 62
     7
370
    25
100
AcDbLine
 10
345.9189317041
 20
322.4413264515
 30
0.0
 11
345.9189317041
 21
368.9413264515
 31
0.0
  0
LINE
  5
1D8
330
1F
100
AcDbEntity
  8
0
  6
Continuous
 62
     7
370
    25
100
AcDbLine
 10
354.9189317041
 20
321.4413264515
 30
0.0
 11
355.9189317041
 21
322.4413264515
 31
0.0
  0
LINE
  5
1D9
330
1F
100
AcDbEntity
  8
0
  6
Continuous
 62
     7
370
    25
100
AcDbLine
 10
354.9189317041
 20
321.4413264515
 30
0.0
 11
354.9189317041
 21
321.9413264515
 31
0.0
  0
LINE
  5
1DA
330
1F
100
AcDbEntity
  8
0
  6
Continuous
 62
     7
370
    25
100
AcDbLine
 10
354.9189317041
 20
321.4413264515
 30
0.0
 11
346.9189317041
 21
321.4413264515
 31
0.0
  0
LINE
  5
1DB
330
1F
100
AcDbEntity
  8
0
  6
Continuous
 62
     7
370
    25
100
AcDbLine
 10
346.9189317041
 20
321.9413264515
 30
0.0
 11
346.9189317041
 21
321.4413264515
 31
0.0
  0
LINE
  5
1DC
330
1F
100
AcDbEntity
  8
0
  6
Continuous
 62
     7
370
    25
100
AcDbLine
 10
345.9189317041
 20
322.4413264515
 30
0.0
 11
346.9189317041
 21
321.4413264515
 31
0.0
  0
DIMENSION
  5
1DD
330
1F
100
AcDbEntity
  8
0
  6
Continuous
 62
     7
370
    18
100
AcDbDimension
  2
_D_6
 10
355.9189317041
 20
311.5198136095
 30
0.0
 11
371.6828033618
 21
311.5198136095
 31
0.0
 70
   160
  1
<>
 71
     2
 42
-1.0
  3
SLDDIMSTYLE0
100
AcDbAlignedDimension
 13
345.9189317041
 23
322.4413264515
 33
0.0
 14
355.9189317041
 24
322.4413264515
 34
0.0
100
AcDbRotatedDimension
  0
ARC
  5
1E9
330
1F
100
AcDbEntity
  8
0
  6
Continuous
 62
     7
370
    25
100
AcDbCircle
 10
662.1722772277
 20
395.4413264515
 30
0.0
 40
9.0
100
AcDbArc
 50
0.0
 51
90.0
  0
LINE
  5
1EA
330
1F
100
AcDbEntity
  8
0
  6
Continuous
 62
     7
370
    25
100
AcDbLine
 10
671.1722772277
 20
322.4413264515
 30
0.0
 11
671.1722772277
 21
395.4413264515
 31
0.0
  0
LINE
  5
1EB
330
1F
100
AcDbEntity
  8
0
  6
Continuous
 62
     7
370
    25
100
AcDbLine
 10
556.7496274969
 20
322.4413264515
 30
0.0
 11
671.1722772277
 21
322.4413264515
 31
0.0
  0
LINE
  5
1EC
330
1F
100
AcDbEntity
  8
0
  6
Continuous
 62
     7
370
    25
100
AcDbLine
 10
529.9028399796
 20
368.9413264515
 30
0.0
 11
556.7496274969
 21
322.4413264515
 31
0.0
  0
ARC
  5
1ED
330
1F
100
AcDbEntity
  8
0
  6
Continuous
 62
     7
370
    25
100
AcDbCircle
 10
520.376560538
 20
363.4413264515
 30
0.0
 40
11.0
100
AcDbArc
 50
30.0
 51
90.0
  0
LINE
  5
1EE
330
1F
100
AcDbEntity
  8
0
  6
Continuous
 62
     7
370
    25
100
AcDbLine
 10
498.1722772277
 20
374.4413264515
 30
0.0
 11
520.376560538
 21
374.4413264515
 31
0.0
  0
LINE
  5
1EF
330
1F
100
AcDbEntity
  8
0
  6
Continuous
 62
     7
370
    25
100
AcDbLine
 10
498.1722772277
 20
374.4413264515
 30
0.0
 11
498.1722772277
 21
379.4413264515
 31
0.0
  0
LINE
  5
1F0
330
1F
100
AcDbEntity
  8
0
  6
Continuous
 62
     7
370
    25
100
AcDbLine
 10
498.1722772277
 20
379.4413264515
 30
0.0
 11
518.1722772277
 21
379.4413264515
 31
0.0
  0
ARC
  5
1F1
330
1F
100
AcDbEntity
  8
0
  6
Continuous
 62
     7
370
    25
100
AcDbCircle
 10
518.1722772277
 20
380.4413264515
 30
0.0
 40
1.0
100
AcDbArc
 50
270.0
 51
90.0
  0
LINE
  5
1F2
330
1F
100
AcDbEntity
  8
0
  6
Continuous
 62
     7
370
    25
100
AcDbLine
 10
518.1722772277
 20
381.4413264515
 30
0.0
 11
518.1722772277
 21
384.4413264515
 31
0.0
  0
ARC
  5
1F3
330
1F
100
AcDbEntity
  8
0
  6
Continuous
 62
     7
370
    25
100
AcDbCircle
 10
518.1722772277
 20
385.4413264515
 30
0.0
 40
1.0
100
AcDbArc
 50
270.0
 51
90.0
  0
LINE
  5
1F4
330
1F
100
AcDbEntity
  8
0
  6
Continuous
 62
     7
370
    25
100
AcDbLine
 10
518.1722772277
 20
386.4413264515
 30
0.0
 11
515.6722772277
 21
386.4413264515
 31
0.0
  0
LINE
  5
1F5
330
1F
100
AcDbEntity
  8
0
  6
Continuous
 62
     7
370
    25
100
AcDbLine
 10
515.6722772277
 20
386.4413264515
 30
0.0
 11
515.6722772277
 21
392.4413264515
 31
0.0
  0
LINE
  5
1F6
330
1F
100
AcDbEntity
  8
0
  6
Continuous
 62
     7
370
    25
100
AcDbLine
 10
515.6722772277
 20
392.4413264515
 30
0.0
 11
518.1722772277
 21
392.4413264515
 31
0.0
  0
ARC
  5
1F7
330
1F
100
AcDbEntity
  8
0
  6
Continuous
 62
     7
370
    25
100
AcDbCircle
 10
518.1722772277
 20
393.4413264515
 30
0.0
 40
1.0
100
AcDbArc
 50
270.0
 51
90.0
  0
LINE
  5
1F8
330
1F
100
AcDbEntity
  8
0
  6
Continuous
 62
     7
370
    25
100
AcDbLine
 10
518.1722772277
 20
394.4413264515
 30
0.0
 11
518.1722772277
 21
397.4413264515
 31
0.0
  0
ARC
  5
1F9
330
1F
100
AcDbEntity
  8
0
  6
Continuous
 62
     7
370
    25
100
AcDbCircle
 10
518.1722772277
 20
398.4413264515
 30
0.0
 40
1.0
100
AcDbArc
 50
270.0
 51
90.0
  0
LINE
  5
1FA
330
1F
100
AcDbEntity
  8
0
  6
Continuous
 62
     7
370
    25
100
AcDbLine
 10
518.1722772277
 20
399.4413264515
 30
0.0
 11
511.1722772277
 21
399.4413264515
 31
0.0
  0
LINE
  5
1FB
330
1F
100
AcDbEntity
  8
0
  6
Continuous
 62
     7
370
    25
100
AcDbLine
 10
511.1722772277
 20
404.4413264515
 30
0.0
 11
511.1722772277
 21
399.4413264515
 31
0.0
  0
LINE
  5
1FC
330
1F
100
AcDbEntity
  8
0
  6
Continuous
 62
     7
370
    25
100
AcDbLine
 10
662.1722772277
 20
404.4413264515
 30
0.0
 11
511.1722772277
 21
404.4413264515
 31
0.0
  0
CIRCLE
  5
1FD
330
1F
100
AcDbEntity
  8
0
  6
Continuous
 62
     7
370
    25
100
AcDbCircle
 10
563.6722772277
 20
328.9413264515
 30
0.0
 40
2.799999999999955
  0
CIRCLE
  5
1FE
330
1F
100
AcDbEntity
  8
0
  6
Continuous
 62
     7
370
    25
100
AcDbCircle
 10
591.6722772277
 20
328.9413264515
 30
0.0
 40
2.949999999999932
  0
CIRCLE
  5
1FF
330
1F
100
AcDbEntity
  8
0
  6
Continuous
 62
     7
370
    25
100
AcDbCircle
 10
630.3722772277
 20
328.9413264515
 30
0.0
 40
2.949999999999932
  0
LINE
  5
200
330
1F
100
AcDbEntity
  8
0
  6
Continuous
 62
     7
370
    25
100
AcDbLine
 10
660.1722772277
 20
338.1413264515
 30
0.0
 11
660.1722772277
 21
339.4413264515
 31
0.0
  0
ARC
  5
201
330
1F
100
AcDbEntity
  8
0
  6
Continuous
 62
     7
370
    25
100
AcDbCircle
 10
661.1722772277
 20
339.4413264515
 30
0.0
 40
1.000000000000114
100
AcDbArc
 50
90.0
 51
180.0
  0
LINE
  5
202
330
1F
100
AcDbEntity
  8
0
  6
Continuous
 62
     7
370
    25
100
AcDbLine
 10
661.1722772277
 20
340.4413264515
 30
0.0
 11
666.1722772277
 21
340.4413264515
 31
0.0
  0
ARC
  5
203
330
1F
100
AcDbEntity
  8
0
  6
Continuous
 62
     7
370
    25
100
AcDbCircle
 10
666.1722772277
 20
342.4413264515
 30
0.0
 40
2.0
100
AcDbArc
 50
270.0
 51
0.0
  0
LINE
  5
204
330
1F
100
AcDbEntity
  8
0
  6
Continuous
 62
     7
370
    25
100
AcDbLine
 10
668.1722772277
 20
342.4413264515
 30
0.0
 11
668.1722772277
 21
360.9413264515
 31
0.0
  0
ARC
  5
205
330
1F
100
AcDbEntity
  8
0
  6
Continuous
 62
     7
370
    25
100
AcDbCircle
 10
666.1722772277
 20
360.9413264515
 30
0.0
 40
2.0
100
AcDbArc
 50
0.0
 51
90.0
  0
LINE
  5
206
330
1F
100
AcDbEntity
  8
0
  6
Continuous
 62
     7
370
    25
100
AcDbLine
 10
666.1722772277
 20
362.9413264515
 30
0.0
 11
662.1722772277
 21
362.9413264515
 31
0.0
  0
ARC
  5
207
330
1F
100
AcDbEntity
  8
0
  6
Continuous
 62
     7
370
    25
100
AcDbCircle
 10
662.1722772277
 20
364.9413264515
 30
0.0
 40
2.0
100
AcDbArc
 50
180.0
 51
270.0
  0
LINE
  5
208
330
1F
100
AcDbEntity
  8
0
  6
Continuous
 62
     7
370
    25
100
AcDbLine
 10
660.1722772277
 20
364.9413264515
 30
0.0
 11
660.1722772277
 21
368.9413264515
 31
0.0
  0
ARC
  5
209
330
1F
100
AcDbEntity
  8
0
  6
Continuous
 62
     7
370
    25
100
AcDbCircle
 10
662.1722772277
 20
368.9413264515
 30
0.0
 40
2.0
100
AcDbArc
 50
90.0
 51
180.0
  0
LINE
  5
20A
330
1F
100
AcDbEntity
  8
0
  6
Continuous
 62
     7
370
    25
100
AcDbLine
 10
662.1722772277
 20
370.9413264515
 30
0.0
 11
666.1722772277
 21
370.9413264515
 31
0.0
  0
ARC
  5
20B
330
1F
100
AcDbEntity
  8
0
  6
Continuous
 62
     7
370
    25
100
AcDbCircle
 10
666.1722772277
 20
372.9413264515
 30
0.0
 40
2.0
100
AcDbArc
 50
270.0
 51
0.0
  0
LINE
  5
20C
330
1F
100
AcDbEntity
  8
0
  6
Continuous
 62
     7
370
    25
100
AcDbLine
 10
668.1722772277
 20
372.9413264515
 30
0.0
 11
668.1722772277
 21
397.4413264515
 31
0.0
  0
ARC
  5
20D
330
1F
100
AcDbEntity
  8
0
  6
Continuous
 62
     7
370
    25
100
AcDbCircle
 10
666.1722772277
 20
397.4413264515
 30
0.0
 40
2.0
100
AcDbArc
 50
0.0
 51
90.0
  0
LINE
  5
20E
330
1F
100
AcDbEntity
  8
0
  6
Continuous
 62
     7
370
    25
100
AcDbLine
 10
666.1722772277
 20
399.4413264515
 30
0.0
 11
664.2348793428
 21
399.4413264515
 31
0.0
  0
ARC
  5
20F
330
1F
100
AcDbEntity
  8
0
  6
Continuous
 62
     7
370
    25
100
AcDbCircle
 10
664.2348793428
 20
397.4413264515
 30
0.0
 40
2.0
100
AcDbArc
 50
90.0
 51
120.8836939597
  0
LINE
  5
210
330
1F
100
AcDbEntity
  8
0
  6
Continuous
 62
     7
370
    25
100
AcDbLine
 10
663.2082852806
 20
399.157748495
 30
0.0
 11
565.733140205
 21
340.857748495
 31
0.0
  0
ARC
  5
211
330
1F
100
AcDbEntity
  8
0
  6
Continuous
 62
     7
370
    25
100
AcDbCircle
 10
566.7597342671
 20
339.1413264515
 30
0.0
 40
2.000000000000011
100
AcDbArc
 50
120.8836939597
 51
270.0
  0
LINE
  5
212
330
1F
100
AcDbEntity
  8
0
  6
Continuous
 62
     7
370
    25
100
AcDbLine
 10
566.7597342671
 20
337.1413264515
 30
0.0
 11
659.1722772277
 21
337.1413264515
 31
0.0
  0
ARC
  5
213
330
1F
100
AcDbEntity
  8
0
  6
Continuous
 62
     7
370
    25
100
AcDbCircle
 10
659.1722772277
 20
338.1413264515
 30
0.0
 40
1.0
100
AcDbArc
 50
270.0
 51
0.0
  0
LINE
  5
214
330
1F
100
AcDbEntity
  8
0
  6
Continuous
 62
     7
370
    25
100
AcDbLine
 10
651.9932773537
 20
401.4413264515
 30
0.0
 11
524.1722772277
 21
401.4413264515
 31
0.0
  0
ARC
  5
215
330
1F
100
AcDbEntity
  8
0
  6
Continuous
 62
     7
370
    25
100
AcDbCircle
 10
524.1722772277
 20
399.4413264515
 30
0.0
 40
2.0
100
AcDbArc
 50
90.0
 51
180.0
  0
LINE
  5
216
330
1F
100
AcDbEntity
  8
0
  6
Continuous
 62
     7
370
    25
100
AcDbLine
 10
522.1722772277
 20
399.4413264515
 30
0.0
 11
522.1722772277
 21
388.8669522937
 31
0.0
  0
ARC
  5
217
330
1F
100
AcDbEntity
  8
0
  6
Continuous
 62
     7
370
    25
100
AcDbCircle
 10
524.1722772277
 20
388.8669522937
 30
0.0
 40
2.0
100
AcDbArc
 50
180.0
 51
210.0
  0
LINE
  5
218
330
1F
100
AcDbEntity
  8
0
  6
Continuous
 62
     7
370
    25
100
AcDbLine
 10
522.4402264202
 20
387.8669522937
 30
0.0
 11
550.7111366107
 21
338.9002994673
 31
0.0
  0
ARC
  5
219
330
1F
100
AcDbEntity
  8
0
  6
Continuous
 62
     7
370
    25
100
AcDbCircle
 10
552.4431874183
 20
339.9002994673
 30
0.0
 40
2.000000000000011
100
AcDbArc
 50
210.0
 51
300.8836939597
  0
LINE
  5
21A
330
1F
100
AcDbEntity
  8
0
  6
Continuous
 62
     7
370
    25
100
AcDbLine
 10
553.4697814804
 20
338.1838774238
 30
0.0
 11
653.0198714158
 21
397.7249044079
 31
0.0
  0
ARC
  5
21B
330
1F
100
AcDbEntity
  8
0
  6
Continuous
 62
     7
370
    25
100
AcDbCircle
 10
651.9932773537
 20
399.4413264515
 30
0.0
 40
2.000000000000002
100
AcDbArc
 50
300.8836939597
 51
90.0
  0
LINE
  5
21C
330
1F
100
AcDbEntity
  8
0
  6
Continuous
 62
     7
370
    25
100
AcDbLine
 10
663.3722772277
 20
326.2413264515
 30
0.0
 11
661.3722772277
 21
326.2413264515
 31
0.0
  0
ARC
  5
21D
330
1F
100
AcDbEntity
  8
0
  6
Continuous
 62
     7
370
    25
100
AcDbCircle
 10
663.3722772277
 20
328.9413264515
 30
0.0
 40
2.699999999999989
100
AcDbArc
 50
270.0
 51
90.0
  0
LINE
  5
21E
330
1F
100
AcDbEntity
  8
0
  6
Continuous
 62
     7
370
    25
100
AcDbLine
 10
661.3722772277
 20
331.6413264515
 30
0.0
 11
663.3722772277
 21
331.6413264515
 31
0.0
  0
ARC
  5
21F
330
1F
100
AcDbEntity
  8
0
  6
Continuous
 62
     7
370
    25
100
AcDbCircle
 10
661.3722772277
 20
328.9413264515
 30
0.0
 40
2.699999999999989
100
AcDbArc
 50
90.0
 51
270.0
  0
LINE
  5
220
330
1F
100
AcDbEntity
  8
0
  6
Continuous
 62
     7
370
    25
100
AcDbLine
 10
520.376560538
 20
373.4413264515
 30
0.0
 11
520.376560538
 21
374.4413264515
 31
0.0
  0
LINE
  5
221
330
1F
100
AcDbEntity
  8
0
  6
Continuous
 62
     7
370
    25
100
AcDbLine
 10
520.376560538
 20
373.4413264515
 30
0.0
 11
499.1722772277
 21
373.4413264515
 31
0.0
  0
LINE
  5
222
330
1F
100
AcDbEntity
  8
0
  6
Continuous
 62
     7
370
    25
100
AcDbLine
 10
498.1722772277
 20
374.4413264515
 30
0.0
 11
499.1722772277
 21
373.4413264515
 31
0.0
  0
LINE
  5
223
330
1F
100
AcDbEntity
  8
0
  6
Continuous
 62
     7
370
    25
100
AcDbLine
 10
662.1722772277
 20
405.4413264515
 30
0.0
 11
662.1722772277
 21
404.4413264515
 31
0.0
  0
LINE
  5
224
330
1F
100
AcDbEntity
  8
0
  6
Continuous
 62
     7
370
    25
100
AcDbLine
 10
512.1722772277
 20
405.4413264515
 30
0.0
 11
662.1722772277
 21
405.4413264515
 31
0.0
  0
LINE
  5
225
330
1F
100
AcDbEntity
  8
0
  6
Continuous
 62
     7
370
    25
100
AcDbLine
 10
512.1722772277
 20
405.4413264515
 30
0.0
 11
511.1722772277
 21
404.4413264515
 31
0.0
  0
ARC
  5
226
330
1F
100
AcDbEntity
  8
0
  6
Continuous
 62
     7
370
    25
100
AcDbCircle
 10
520.376560538
 20
363.4413264515
 30
0.0
 40
10.0
100
AcDbArc
 50
30.0
 51
90.0
  0
LINE
  5
227
330
1F
100
AcDbEntity
  8
0
  6
Continuous
 62
     7
370
    25
100
AcDbLine
 10
529.0368145758
 20
368.4413264515
 30
0.0
 11
529.9028399796
 21
368.9413264515
 31
0.0
  0
LINE
  5
228
330
1F
100
AcDbEntity
  8
0
  6
Continuous
 62
     7
370
    25
100
AcDbLine
 10
555.8836020931
 20
321.9413264515
 30
0.0
 11
529.0368145758
 21
368.4413264515
 31
0.0
  0
LINE
  5
229
330
1F
100
AcDbEntity
  8
0
  6
Continuous
 62
     7
370
    25
100
AcDbLine
 10
555.8836020931
 20
321.9413264515
 30
0.0
 11
556.7496274969
 21
322.4413264515
 31
0.0
  0
LINE
  5
22A
330
1F
100
AcDbEntity
  8
0
  6
Continuous
 62
     7
370
    25
100
AcDbLine
 10
556.7496274969
 20
321.4413264515
 30
0.0
 11
556.7496274969
 21
322.4413264515
 31
0.0
  0
ARC
  5
22B
330
1F
100
AcDbEntity
  8
0
  6
Continuous
 62
     7
370
    25
100
AcDbCircle
 10
556.7496274969
 20
322.4413264515
 30
0.0
 40
1.0
100
AcDbArc
 50
210.0
 51
270.0
  0
LINE
  5
22C
330
1F
100
AcDbEntity
  8
0
  6
Continuous
 62
     7
370
    25
100
AcDbLine
 10
671.1722772277
 20
321.4413264515
 30
0.0
 11
671.1722772277
 21
322.4413264515
 31
0.0
  0
LINE
  5
22D
330
1F
100
AcDbEntity
  8
0
  6
Continuous
 62
     7
370
    25
100
AcDbLine
 10
671.1722772277
 20
321.4413264515
 30
0.0
 11
556.7496274969
 21
321.4413264515
 31
0.0
  0
CIRCLE
  5
22E
330
1F
100
AcDbEntity
  8
0
  6
Continuous
 62
     7
370
    25
100
AcDbCircle
 10
563.6722772277
 20
328.9413264515
 30
0.0
 40
2.5
  0
CIRCLE
  5
22F
330
1F
100
AcDbEntity
  8
0
  6
Continuous
 62
     7
370
    25
100
AcDbCircle
 10
591.6722772277
 20
328.9413264515
 30
0.0
 40
2.649999999999977
  0
CIRCLE
  5
230
330
1F
100
AcDbEntity
  8
0
  6
Continuous
 62
     7
370
    25
100
AcDbCircle
 10
630.3722772277
 20
328.9413264515
 30
0.0
 40
2.649999999999977
  0
LINE
  5
231
330
1F
100
AcDbEntity
  8
0
  6
Continuous
 62
     7
370
    25
100
AcDbLine
 10
661.3722772277
 20
331.6413264515
 30
0.0
 11
661.3722772277
 21
331.4413264515
 31
0.0
  0
ARC
  5
232
330
1F
100
AcDbEntity
  8
0
  6
Continuous
 62
     7
370
    25
100
AcDbCircle
 10
661.3722772277
 20
328.9413264515
 30
0.0
 40
2.500000000000057
100
AcDbArc
 50
90.0
 51
270.0
  0
LINE
  5
233
330
1F
100
AcDbEntity
  8
0
  6
Continuous
 62
     7
370
    25
100
AcDbLine
 10
661.3722772277
 20
326.2413264515
 30
0.0
 11
661.3722772277
 21
326.4413264515
 31
0.0
  0
LINE
  5
234
330
1F
100
AcDbEntity
  8
0
  6
Continuous
 62
     7
370
    25
100
AcDbLine
 10
661.3722772277
 20
326.4413264515
 30
0.0
 11
663.3722772277
 21
326.4413264515
 31
0.0
  0
LINE
  5
235
330
1F
100
AcDbEntity
  8
0
  6
Continuous
 62
     7
370
    25
100
AcDbLine
 10
663.3722772277
 20
326.4413264515
 30
0.0
 11
663.3722772277
 21
326.2413264515
 31
0.0
  0
LINE
  5
236
330
1F
100
AcDbEntity
  8
0
  6
Continuous
 62
     7
370
    25
100
AcDbLine
 10
663.3722772277
 20
331.4413264515
 30
0.0
 11
663.3722772277
 21
331.6413264515
 31
0.0
  0
LINE
  5
237
330
1F
100
AcDbEntity
  8
0
  6
Continuous
 62
     7
370
    25
100
AcDbLine
 10
663.3722772277
 20
331.4413264515
 30
0.0
 11
661.3722772277
 21
331.4413264515
 31
0.0
  0
ARC
  5
238
330
1F
100
AcDbEntity
  8
0
  6
Continuous
 62
     7
370
    25
100
AcDbCircle
 10
662.1722772277
 20
395.4413264515
 30
0.0
 40
10.0
100
AcDbArc
 50
0.0
 51
90.0
  0
LINE
  5
239
330
1F
100
AcDbEntity
  8
0
  6
Continuous
 62
     7
370
    25
100
AcDbLine
 10
672.1722772277
 20
395.4413264515
 30
0.0
 11
671.1722772277
 21
395.4413264515
 31
0.0
  0
ARC
  5
23A
330
1F
100
AcDbEntity
  8
0
  6
Continuous
 62
     7
370
    25
100
AcDbCircle
 10
663.3722772277
 20
328.9413264515
 30
0.0
 40
2.500000000000057
100
AcDbArc
 50
270.0
 51
90.0
  0
LINE
  5
23B
330
1F
100
AcDbEntity
  8
0
  6
Continuous
 62
     7
370
    25
100
AcDbLine
 10
672.1722772277
 20
395.4413264515
 30
0.0
 11
672.1722772277
 21
322.4413264515
 31
0.0
  0
LINE
  5
23C
330
1F
100
AcDbEntity
  8
0
  6
Continuous
 62
     7
370
    25
100
AcDbLine
 10
672.1722772277
 20
322.4413264515
 30
0.0
 11
671.1722772277
 21
322.4413264515
 31
0.0
  0
ARC
  5
23D
330
1F
100
AcDbEntity
  8
0
  6
Continuous
 62
     7
370
    25
100
AcDbCircle
 10
671.1722772277
 20
322.4413264515
 30
0.0
 40
1.0
100
AcDbArc
 50
270.0
 51
0.0
  0
INSERT
  5
249
330
1F
100
AcDbEntity
  8
0
  6
Continuous
 62
     7
370
     0
100
AcDbBlockReference
  2
SW_CENTERMARKSYMBOL_2
 10
591.6722772277
 20
328.9413264515
 30
0.0
  0
INSERT
  5
255
330
1F
100
AcDbEntity
  8
0
  6
Continuous
 62
     7
370
     0
100
AcDbBlockReference
  2
SW_CENTERMARKSYMBOL_3
 10
630.3722772277
 20
328.9413264515
 30
0.0
  0
LINE
  5
256
330
1F
100
AcDbEntity
  8
0
  6
PHANTOM
 62
     7
370
    35
100
AcDbLine
 10
591.6722772277
 20
415.5213264515
 30
0.0
 11
591.6722772277
 21
311.3613264515
 31
0.0
  0
LINE
  5
257
330
1F
100
AcDbEntity
  8
0
  6
Continuous
 62
     7
370
    35
100
AcDbLine
 10
615.6722772277
 20
411.5213264515
 30
0.0
 11
591.6722772277
 21
411.5213264515
 31
0.0
  0
INSERT
  5
258
330
1F
100
AcDbEntity
  8
0
  6
Continuous
 62
     7
370
    35
100
AcDbBlockReference
  2
_Closed
 10
591.6722772277
 20
411.5213264515
 30
0.0
 41
12.0
 42
12.0
 50
180.0
  0
LINE
  5
259
330
1F
100
AcDbEntity
  8
0
  6
Continuous
 62
     7
370
    35
100
AcDbLine
 10
615.6722772277
 20
315.3613264515
 30
0.0
 11
591.6722772277
 21
315.3613264515
 31
0.0
  0
INSERT
  5
25A
330
1F
100
AcDbEntity
  8
0
  6
Continuous
 62
     7
370
    35
100
AcDbBlockReference
  2
_Closed
 10
591.6722772277
 20
315.3613264515
 30
0.0
 41
12.0
 42
12.0
 50
180.0
  0
MTEXT
  5
25B
330
1F
100
AcDbEntity
  8
0
  6
Continuous
 62
     7
100
AcDbMText
 10
605.3450945088
 20
428.1551057141
 30
0.0
 40
12.7
 41
0.0
 71
     1
 72
     1
  1
A
  7
SLDTEXTSTYLE0
 73
     1
 44
1.0
  0
MTEXT
  5
25C
330
1F
100
AcDbEntity
  8
0
  6
Continuous
 62
     7
100
AcDbMText
 10
605.3450945088
 20
309.822277957
 30
0.0
 40
12.7
 41
0.0
 71
     1
 72
     1
  1
A
  7
SLDTEXTSTYLE0
 73
     1
 44
1.0
  0
INSERT
  5
263
330
1F
100
AcDbEntity
  8
0
  6
Continuous
 62
     7
370
     0
100
AcDbBlockReference
  2
SW_DOWELSYMBOL_1
 10
563.6722772277
 20
328.9413264515
 30
0.0
  0
LINE
  5
264
330
1F
100
AcDbEntity
  8
0
  6
Continuous
 62
     7
370
    25
100
AcDbLine
 10
740.3544554455
 20
322.4413264515
 30
0.0
 11
740.3544554455
 21
395.4413264515
 31
0.0
  0
LINE
  5
265
330
1F
100
AcDbEntity
  8
0
  6
Continuous
 62
     7
370
    25
100
AcDbLine
 10
741.3544554455
 20
395.4413264515
 30
0.0
 11
740.3544554455
 21
395.4413264515
 31
0.0
  0
LINE
  5
266
330
1F
100
AcDbEntity
  8
0
  6
Continuous
 62
     7
370
    25
100
AcDbLine
 10
741.3544554455
 20
395.4413264515
 30
0.0
 11
741.3544554455
 21
322.4413264515
 31
0.0
  0
LINE
  5
267
330
1F
100
AcDbEntity
  8
0
  6
Continuous
 62
     7
370
    25
100
AcDbLine
 10
741.3544554455
 20
322.4413264515
 30
0.0
 11
740.3544554455
 21
322.4413264515
 31
0.0
  0
LINE
  5
268
330
1F
100
AcDbEntity
  8
0
  6
Continuous
 62
     7
370
    25
100
AcDbLine
 10
749.3544554455
 20
395.4413264515
 30
0.0
 11
741.3544554455
 21
395.4413264515
 31
0.0
  0
LINE
  5
269
330
1F
100
AcDbEntity
  8
0
  6
Continuous
 62
     7
370
    25
100
AcDbLine
 10
749.3544554455
 20
322.4413264515
 30
0.0
 11
749.3544554455
 21
395.4413264515
 31
0.0
  0
LINE
  5
26A
330
1F
100
AcDbEntity
  8
0
  6
Continuous
 62
     7
370
    25
100
AcDbLine
 10
741.3544554455
 20
322.4413264515
 30
0.0
 11
749.3544554455
 21
322.4413264515
 31
0.0
  0
CIRCLE
  5
26B
330
1F
100
AcDbEntity
  8
0
  6
Continuous
 62
     7
370
    25
100
AcDbCircle
 10
745.3544554455
 20
366.9413264515
 30
0.0
 40
1.650000000000091
  0
CIRCLE
  5
26C
330
1F
100
AcDbEntity
  8
0
  6
Continuous
 62
     7
370
    25
100
AcDbCircle
 10
745.3544554455
 20
336.4413264515
 30
0.0
 40
1.650000000000091
  0
LINE
  5
26D
330
1F
100
AcDbEntity
  8
0
  6
Continuous
 62
     7
370
    25
100
AcDbLine
 10
741.3544554455
 20
405.4413264515
 30
0.0
 11
741.3544554455
 21
395.4413264515
 31
0.0
  0
LINE
  5
26E
330
1F
100
AcDbEntity
  8
0
  6
Continuous
 62
     7
370
    25
100
AcDbLine
 10
741.3544554455
 20
405.4413264515
 30
0.0
 11
749.3544554455
 21
405.4413264515
 31
0.0
  0
LINE
  5
26F
330
1F
100
AcDbEntity
  8
0
  6
Continuous
 62
     7
370
    25
100
AcDbLine
 10
749.3544554455
 20
395.4413264515
 30
0.0
 11
749.3544554455
 21
405.4413264515
 31
0.0
  0
LINE
  5
270
330
1F
100
AcDbEntity
  8
0
  6
Continuous
 62
     7
370
    25
100
AcDbLine
 10
750.3544554455
 20
322.4413264515
 30
0.0
 11
749.3544554455
 21
321.4413264515
 31
0.0
  0
LINE
  5
271
330
1F
100
AcDbEntity
  8
0
  6
Continuous
 62
     7
370
    25
100
AcDbLine
 10
749.3544554455
 20
321.4413264515
 30
0.0
 11
749.3544554455
 21
322.4413264515
 31
0.0
  0
LINE
  5
272
330
1F
100
AcDbEntity
  8
0
  6
Continuous
 62
     7
370
    25
100
AcDbLine
 10
750.3544554455
 20
322.4413264515
 30
0.0
 11
749.3544554455
 21
322.4413264515
 31
0.0
  0
LINE
  5
273
330
1F
100
AcDbEntity
  8
0
  6
Continuous
 62
     7
370
    25
100
AcDbLine
 10
741.3544554455
 20
322.4413264515
 30
0.0
 11
741.3544554455
 21
321.4413264515
 31
0.0
  0
LINE
  5
274
330
1F
100
AcDbEntity
  8
0
  6
Continuous
 62
     7
370
    25
100
AcDbLine
 10
749.3544554455
 20
321.4413264515
 30
0.0
 11
741.3544554455
 21
321.4413264515
 31
0.0
  0
LINE
  5
275
330
1F
100
AcDbEntity
  8
0
  6
Continuous
 62
     7
370
    25
100
AcDbLine
 10
750.3544554455
 20
404.4413264515
 30
0.0
 11
750.3544554455
 21
395.4413264515
 31
0.0
  0
LINE
  5
276
330
1F
100
AcDbEntity
  8
0
  6
Continuous
 62
     7
370
    25
100
AcDbLine
 10
750.3544554455
 20
395.4413264515
 30
0.0
 11
749.3544554455
 21
395.4413264515
 31
0.0
  0
LINE
  5
277
330
1F
100
AcDbEntity
  8
0
  6
Continuous
 62
     7
370
    25
100
AcDbLine
 10
750.3544554455
 20
404.4413264515
 30
0.0
 11
749.3544554455
 21
405.4413264515
 31
0.0
  0
LINE
  5
278
330
1F
100
AcDbEntity
  8
0
  6
Continuous
 62
     7
370
    25
100
AcDbLine
 10
750.3544554455
 20
395.4413264515
 30
0.0
 11
750.3544554455
 21
322.4413264515
 31
0.0
  0
LINE
  5
279
330
1F
100
AcDbEntity
  8
0
  6
Continuous
 62
     7
370
    25
100
AcDbLine
 10
741.3544554455
 20
321.4413264515
 30
0.0
 11
740.3544554455
 21
322.4413264515
 31
0.0
  0
LINE
  5
27A
330
1F
100
AcDbEntity
  8
0
  6
Continuous
 62
     7
370
    25
100
AcDbLine
 10
740.3544554455
 20
395.4413264515
 30
0.0
 11
740.3544554455
 21
404.4413264515
 31
0.0
  0
LINE
  5
27B
330
1F
100
AcDbEntity
  8
0
  6
Continuous
 62
     7
370
    25
100
AcDbLine
 10
741.3544554455
 20
405.4413264515
 30
0.0
 11
740.3544554455
 21
404.4413264515
 31
0.0
  0
DIMENSION
  5
27C
330
1F
100
AcDbEntity
  8
0
  6
Continuous
 62
     7
370
    18
100
AcDbDimension
  2
_D_7
 10
731.9770353704
 20
336.4413264515
 30
0.0
 11
731.9770353704
 21
353.5582507281
 31
0.0
 70
   160
  1
<>
 71
     2
 42
-1.0
  3
SLDDIMSTYLE6
100
AcDbAlignedDimension
 13
741.3544554455
 23
321.4413264515
 33
0.0
 14
741.2044554455
 24
336.4413264515
 34
0.0
 50
90.0
100
AcDbRotatedDimension
  0
DIMENSION
  5
289
330
1F
100
AcDbEntity
  8
0
  6
Continuous
 62
     7
370
    18
100
AcDbDimension
  2
_D_8
 10
720.3544554455
 20
366.9413264515
 30
0.0
 11
720.3544554455
 21
343.9299048382
 31
0.0
 70
   160
  1
<>
 71
     2
 42
-1.0
  3
SLDDIMSTYLE7
100
AcDbAlignedDimension
 13
741.3544554455
 23
321.4413264515
 33
0.0
 14
741.2044554455
 24
366.9413264515
 34
0.0
 50
90.0
100
AcDbRotatedDimension
  0
DIMENSION
  5
294
330
1F
100
AcDbEntity
  8
0
  6
Continuous
 62
     7
370
    18
100
AcDbDimension
  2
_D_9
 10
743.9402418832
 20
337.8555400138
 30
0.0
 11
779.0094487084
 21
302.7863731886
 31
0.0
 70
   163
  1
2x M4x0.7{\fGDT;x}8
 71
     1
 42
-1.0
  3
SLDDIMSTYLE8
100
AcDbDiametricDimension
 15
746.7686690079
 25
335.0271128891
 35
0.0
 40
0.0
  0
DIMENSION
  5
2A7
330
1F
100
AcDbEntity
  8
0
  6
Continuous
 62
     7
370
    18
100
AcDbDimension
  2
_D_10
 10
745.3544554455
 20
297.2776593555
 30
0.0
 11
725.4629627709
 21
297.2776593555
 31
0.0
 70
   160
  1
<>
 71
     2
 42
-1.0
  3
SLDDIMSTYLE0
100
AcDbAlignedDimension
 13
740.3544554455
 23
322.4413264515
 33
0.0
 14
745.3544554455
 24
332.2913264515
 34
0.0
100
AcDbRotatedDimension
  0
INSERT
  5
2BE
330
1F
100
AcDbEntity
  8
0
  6
Continuous
 62
     7
370
     0
100
AcDbBlockReference
  2
SW_CENTERMARKSYMBOL_4
 10
745.3544554455
 20
336.4413264515
 30
0.0
  0
INSERT
  5
2CA
330
1F
100
AcDbEntity
  8
0
  6
Continuous
 62
     7
370
     0
100
AcDbBlockReference
  2
SW_CENTERMARKSYMBOL_5
 10
745.3544554455
 20
366.9413264515
 30
0.0
  0
ARC
  5
2CB
330
1F
100
AcDbEntity
  8
0
  6
Continuous
 62
     7
370
    18
100
AcDbCircle
 10
745.3544554455
 20
336.4413264515
 30
0.0
 40
2.000000000000032
100
AcDbArc
 50
255.0
 51
195.0
  0
ARC
  5
2CC
330
1F
100
AcDbEntity
  8
0
  6
Continuous
 62
     7
370
    18
100
AcDbCircle
 10
745.3544554455
 20
366.9413264515
 30
0.0
 40
1.999999999999977
100
AcDbArc
 50
255.0
 51
195.0
  0
LINE
  5
2CD
330
1F
100
AcDbEntity
  8
0
  6
Continuous
 62
     7
370
    25
100
AcDbLine
 10
227.4964779305
 20
194.7530410655
 30
0.0
 11
113.0738281997
 21
194.7530410655
 31
0.0
  0
LINE
  5
2CE
330
1F
100
AcDbEntity
  8
0
  6
Continuous
 62
     7
370
    25
100
AcDbLine
 10
113.0738281997
 20
195.7530410655
 30
0.0
 11
113.0738281997
 21
194.7530410655
 31
0.0
  0
LINE
  5
2CF
330
1F
100
AcDbEntity
  8
0
  6
Continuous
 62
     7
370
    25
100
AcDbLine
 10
113.0738281997
 20
195.7530410655
 30
0.0
 11
227.4964779305
 21
195.7530410655
 31
0.0
  0
LINE
  5
2D0
330
1F
100
AcDbEntity
  8
0
  6
Continuous
 62
     7
370
    25
100
AcDbLine
 10
227.4964779305
 20
195.7530410655
 30
0.0
 11
227.4964779305
 21
194.7530410655
 31
0.0
  0
LINE
  5
2D1
330
1F
100
AcDbEntity
  8
0
  6
Continuous
 62
     7
370
    25
100
AcDbLine
 10
112.0738281997
 20
195.7530410655
 30
0.0
 11
113.0738281997
 21
194.7530410655
 31
0.0
  0
LINE
  5
2D2
330
1F
100
AcDbEntity
  8
0
  6
Continuous
 62
     7
370
    25
100
AcDbLine
 10
112.0738281997
 20
195.7530410655
 30
0.0
 11
113.0738281997
 21
195.7530410655
 31
0.0
  0
LINE
  5
2D3
330
1F
100
AcDbEntity
  8
0
  6
Continuous
 62
     7
370
    25
100
AcDbLine
 10
228.3625033343
 20
195.7530410655
 30
0.0
 11
227.4964779305
 21
194.7530410655
 31
0.0
  0
LINE
  5
2D4
330
1F
100
AcDbEntity
  8
0
  6
Continuous
 62
     7
370
    25
100
AcDbLine
 10
227.4964779305
 20
195.7530410655
 30
0.0
 11
228.3625033343
 21
195.7530410655
 31
0.0
  0
LINE
  5
2D5
330
1F
100
AcDbEntity
  8
0
  6
Continuous
 62
     7
370
    25
100
AcDbLine
 10
112.0738281997
 20
195.7530410655
 30
0.0
 11
112.0738281997
 21
203.7530410655
 31
0.0
  0
LINE
  5
2D6
330
1F
100
AcDbEntity
  8
0
  6
Continuous
 62
     7
370
    25
100
AcDbLine
 10
113.0738281997
 20
203.7530410655
 30
0.0
 11
112.0738281997
 21
203.7530410655
 31
0.0
  0
LINE
  5
2D7
330
1F
100
AcDbEntity
  8
0
  6
Continuous
 62
     7
370
    25
100
AcDbLine
 10
113.0738281997
 20
203.7530410655
 30
0.0
 11
113.0738281997
 21
195.7530410655
 31
0.0
  0
LINE
  5
2D8
330
1F
100
AcDbEntity
  8
0
  6
Continuous
 62
     7
370
    25
100
AcDbLine
 10
227.4964779305
 20
195.7530410655
 30
0.0
 11
227.4964779305
 21
203.7530410655
 31
0.0
  0
LINE
  5
2D9
330
1F
100
AcDbEntity
  8
0
  6
Continuous
 62
     7
370
    25
100
AcDbLine
 10
228.3625033343
 20
203.7530410655
 30
0.0
 11
227.4964779305
 21
203.7530410655
 31
0.0
  0
LINE
  5
2DA
330
1F
100
AcDbEntity
  8
0
  6
Continuous
 62
     7
370
    25
100
AcDbLine
 10
228.3625033343
 20
203.7530410655
 30
0.0
 11
228.3625033343
 21
195.7530410655
 31
0.0
  0
LINE
  5
2DB
330
1F
100
AcDbEntity
  8
0
  6
Continuous
 62
     7
370
    25
100
AcDbLine
 10
227.4964779305
 20
203.7530410655
 30
0.0
 11
113.0738281997
 21
203.7530410655
 31
0.0
  0
LINE
  5
2DC
330
1F
100
AcDbEntity
  8
0
  6
Continuous
 62
     7
370
    25
100
AcDbLine
 10
113.0738281997
 20
204.7530410655
 30
0.0
 11
227.4964779305
 21
204.7530410655
 31
0.0
  0
LINE
  5
2DD
330
1F
100
AcDbEntity
  8
0
  6
Continuous
 62
     7
370
    25
100
AcDbLine
 10
227.4964779305
 20
204.7530410655
 30
0.0
 11
227.4964779305
 21
203.7530410655
 31
0.0
  0
LINE
  5
2DE
330
1F
100
AcDbEntity
  8
0
  6
Continuous
 62
     7
370
    25
100
AcDbLine
 10
113.0738281997
 20
204.7530410655
 30
0.0
 11
113.0738281997
 21
203.7530410655
 31
0.0
  0
LINE
  5
2DF
330
1F
100
AcDbEntity
  8
0
  6
Continuous
 62
     7
370
    25
100
AcDbLine
 10
113.0738281997
 20
204.7530410655
 30
0.0
 11
112.0738281997
 21
203.7530410655
 31
0.0
  0
LINE
  5
2E0
330
1F
100
AcDbEntity
  8
0
  6
Continuous
 62
     7
370
    25
100
AcDbLine
 10
227.4964779305
 20
204.7530410655
 30
0.0
 11
228.3625033343
 21
203.7530410655
 31
0.0
  0
LINE
  5
2E1
330
1F
100
AcDbEntity
  8
0
  6
Continuous
 62
     7
370
    25
100
AcDbLine
 10
228.3625033343
 20
195.7530410655
 30
0.0
 11
255.2092908516
 21
195.7530410655
 31
0.0
  0
LINE
  5
2E2
330
1F
100
AcDbEntity
  8
0
  6
Continuous
 62
     7
370
    25
100
AcDbLine
 10
255.2092908516
 20
195.7530410655
 30
0.0
 11
254.3432654478
 21
194.7530410655
 31
0.0
  0
LINE
  5
2E3
330
1F
100
AcDbEntity
  8
0
  6
Continuous
 62
     7
370
    25
100
AcDbLine
 10
254.3432654478
 20
194.7530410655
 30
0.0
 11
227.4964779305
 21
194.7530410655
 31
0.0
  0
LINE
  5
2E4
330
1F
100
AcDbEntity
  8
0
  6
Continuous
 62
     7
370
    25
100
AcDbLine
 10
255.2092908516
 20
203.7530410655
 30
0.0
 11
228.3625033343
 21
203.7530410655
 31
0.0
  0
LINE
  5
2E5
330
1F
100
AcDbEntity
  8
0
  6
Continuous
 62
     7
370
    25
100
AcDbLine
 10
255.2092908516
 20
203.7530410655
 30
0.0
 11
255.2092908516
 21
195.7530410655
 31
0.0
  0
LINE
  5
2E6
330
1F
100
AcDbEntity
  8
0
  6
Continuous
 62
     7
370
    25
100
AcDbLine
 10
227.4964779305
 20
204.7530410655
 30
0.0
 11
254.3432654478
 21
204.7530410655
 31
0.0
  0
LINE
  5
2E7
330
1F
100
AcDbEntity
  8
0
  6
Continuous
 62
     7
370
    25
100
AcDbLine
 10
254.3432654478
 20
204.7530410655
 30
0.0
 11
255.2092908516
 21
203.7530410655
 31
0.0
  0
LINE
  5
2E8
330
1F
100
AcDbEntity
  8
0
  6
Continuous
 62
     7
370
    25
100
AcDbLine
 10
255.2092908516
 20
195.7530410655
 30
0.0
 11
263.8695448895
 21
195.7530410655
 31
0.0
  0
LINE
  5
2E9
330
1F
100
AcDbEntity
  8
0
  6
Continuous
 62
     7
370
    25
100
AcDbLine
 10
263.8695448895
 20
195.7530410655
 30
0.0
 11
263.8695448895
 21
194.7530410655
 31
0.0
  0
LINE
  5
2EA
330
1F
100
AcDbEntity
  8
0
  6
Continuous
 62
     7
370
    25
100
AcDbLine
 10
263.8695448895
 20
194.7530410655
 30
0.0
 11
254.3432654478
 21
194.7530410655
 31
0.0
  0
LINE
  5
2EB
330
1F
100
AcDbEntity
  8
0
  6
Continuous
 62
     7
370
    25
100
AcDbLine
 10
263.8695448895
 20
203.7530410655
 30
0.0
 11
255.2092908516
 21
203.7530410655
 31
0.0
  0
LINE
  5
2EC
330
1F
100
AcDbEntity
  8
0
  6
Continuous
 62
     7
370
    25
100
AcDbLine
 10
263.8695448895
 20
203.7530410655
 30
0.0
 11
263.8695448895
 21
195.7530410655
 31
0.0
  0
LINE
  5
2ED
330
1F
100
AcDbEntity
  8
0
  6
Continuous
 62
     7
370
    25
100
AcDbLine
 10
263.8695448895
 20
204.7530410655
 30
0.0
 11
263.8695448895
 21
203.7530410655
 31
0.0
  0
LINE
  5
2EE
330
1F
100
AcDbEntity
  8
0
  6
Continuous
 62
     7
370
    25
100
AcDbLine
 10
254.3432654478
 20
204.7530410655
 30
0.0
 11
263.8695448895
 21
204.7530410655
 31
0.0
  0
LINE
  5
2EF
330
1F
100
AcDbEntity
  8
0
  6
Continuous
 62
     7
370
    25
100
AcDbLine
 10
286.0738281997
 20
204.7530410655
 30
0.0
 11
286.0738281997
 21
194.7530410655
 31
0.0
  0
LINE
  5
2F0
330
1F
100
AcDbEntity
  8
0
  6
Continuous
 62
     7
370
    25
100
AcDbLine
 10
286.0738281997
 20
194.7530410655
 30
0.0
 11
285.0738281997
 21
195.7530410655
 31
0.0
  0
LINE
  5
2F1
330
1F
100
AcDbEntity
  8
0
  6
Continuous
 62
     7
370
    25
100
AcDbLine
 10
285.0738281997
 20
195.7530410655
 30
0.0
 11
285.0738281997
 21
203.7530410655
 31
0.0
  0
LINE
  5
2F2
330
1F
100
AcDbEntity
  8
0
  6
Continuous
 62
     7
370
    25
100
AcDbLine
 10
285.0738281997
 20
203.7530410655
 30
0.0
 11
286.0738281997
 21
204.7530410655
 31
0.0
  0
LINE
  5
2F3
330
1F
100
AcDbEntity
  8
0
  6
Continuous
 62
     7
370
    25
100
AcDbLine
 10
263.8695448895
 20
195.7530410655
 30
0.0
 11
285.0738281997
 21
195.7530410655
 31
0.0
  0
LINE
  5
2F4
330
1F
100
AcDbEntity
  8
0
  6
Continuous
 62
     7
370
    25
100
AcDbLine
 10
286.0738281997
 20
194.7530410655
 30
0.0
 11
263.8695448895
 21
194.7530410655
 31
0.0
  0
LINE
  5
2F5
330
1F
100
AcDbEntity
  8
0
  6
Continuous
 62
     7
370
    25
100
AcDbLine
 10
285.0738281997
 20
203.7530410655
 30
0.0
 11
263.8695448895
 21
203.7530410655
 31
0.0
  0
CIRCLE
  5
2F6
330
1F
100
AcDbEntity
  8
0
  6
Continuous
 62
     7
370
    25
100
AcDbCircle
 10
276.0738281997
 20
199.7530410655
 30
0.0
 40
2.649999999999977
  0
LINE
  5
2F7
330
1F
100
AcDbEntity
  8
0
  6
Continuous
 62
     7
370
    25
100
AcDbLine
 10
263.8695448895
 20
204.7530410655
 30
0.0
 11
286.0738281997
 21
204.7530410655
 31
0.0
  0
DIMENSION
  5
2F8
330
1F
100
AcDbEntity
  8
0
  6
Continuous
 62
     7
370
    18
100
AcDbDimension
  2
_D_11
 10
274.1999952298
 20
197.879208095
 30
0.0
 11
298.7982486746
 21
222.4774615474
 31
0.0
 70
   163
  1
<>
 71
     1
 42
-1.0
  3
SLDDIMSTYLE9
100
AcDbDiametricDimension
 15
277.9476611696
 25
201.6268740359
 35
0.0
 40
0.0
  0
DIMENSION
  5
302
330
1F
100
AcDbEntity
  8
0
  6
Continuous
 62
     7
370
    18
100
AcDbDimension
  2
_D_12
 10
276.0738281997
 20
182.1713585702
 30
0.0
 11
306.0738281997
 21
182.1713585702
 31
0.0
 70
   160
  1
<>
 71
     2
 42
-1.0
  3
SLDDIMSTYLE6
100
AcDbAlignedDimension
 13
286.0738281997
 23
194.7530410655
 33
0.0
 14
276.0738281997
 24
194.6030410655
 34
0.0
100
AcDbRotatedDimension
  0
INSERT
  5
319
330
1F
100
AcDbEntity
  8
0
  6
Continuous
 62
     7
370
     0
100
AcDbBlockReference
  2
SW_CENTERMARKSYMBOL_6
 10
276.0738281997
 20
199.7530410655
 30
0.0
  0
LINE
  5
31A
330
1F
100
AcDbEntity
  8
0
  6
Continuous
 62
     7
370
    25
100
AcDbLine
 10
470.1948078299
 20
322.4413264515
 30
0.0
 11
470.1948078299
 21
325.9913264515
 31
0.0
  0
LINE
  5
31B
330
1F
100
AcDbEntity
  8
0
  6
Continuous
 62
     7
370
    25
100
AcDbLine
 10
470.1948078299
 20
322.4413264515
 30
0.0
 11
469.1948078299
 21
321.4413264515
 31
0.0
  0
LINE
  5
31C
330
1F
100
AcDbEntity
  8
0
  6
Continuous
 62
     7
370
    25
100
AcDbLine
 10
461.1948078299
 20
321.4413264515
 30
0.0
 11
469.1948078299
 21
321.4413264515
 31
0.0
  0
LINE
  5
31D
330
1F
100
AcDbEntity
  8
0
  6
Continuous
 62
     7
370
    25
100
AcDbLine
 10
461.1948078299
 20
321.4413264515
 30
0.0
 11
460.1948078299
 21
322.4413264515
 31
0.0
  0
LINE
  5
31E
330
1F
100
AcDbEntity
  8
0
  6
Continuous
 62
     7
370
    25
100
AcDbLine
 10
460.1948078299
 20
322.4413264515
 30
0.0
 11
460.1948078299
 21
325.9913264515
 31
0.0
  0
LINE
  5
31F
330
1F
100
AcDbEntity
  8
0
  6
Continuous
 62
     7
370
    25
100
AcDbLine
 10
460.1948078299
 20
325.9913264515
 30
0.0
 11
460.4948078299
 21
326.2913264515
 31
0.0
  0
LINE
  5
320
330
1F
100
AcDbEntity
  8
0
  6
Continuous
 62
     7
370
    25
100
AcDbLine
 10
469.8948078299
 20
326.2913264515
 30
0.0
 11
460.4948078299
 21
326.2913264515
 31
0.0
  0
LINE
  5
321
330
1F
100
AcDbEntity
  8
0
  6
Continuous
 62
     7
370
    25
100
AcDbLine
 10
469.8948078299
 20
326.2913264515
 30
0.0
 11
470.1948078299
 21
325.9913264515
 31
0.0
  0
LINE
  5
322
330
1F
100
AcDbEntity
  8
0
  6
Continuous
 62
     7
370
    25
100
AcDbLine
 10
470.1948078299
 20
331.8913264515
 30
0.0
 11
469.8948078299
 21
331.5913264515
 31
0.0
  0
LINE
  5
323
330
1F
100
AcDbEntity
  8
0
  6
Continuous
 62
     7
370
    25
100
AcDbLine
 10
470.1948078299
 20
331.8913264515
 30
0.0
 11
470.1948078299
 21
325.9913264515
 31
0.0
  0
LINE
  5
324
330
1F
100
AcDbEntity
  8
0
  6
Continuous
 62
     7
370
    25
100
AcDbLine
 10
469.8948078299
 20
326.2913264515
 30
0.0
 11
469.8948078299
 21
331.5913264515
 31
0.0
  0
LINE
  5
325
330
1F
100
AcDbEntity
  8
0
  6
Continuous
 62
     7
370
    25
100
AcDbLine
 10
470.1948078299
 20
337.1413264515
 30
0.0
 11
466.1948078299
 21
337.1413264515
 31
0.0
  0
LINE
  5
326
330
1F
100
AcDbEntity
  8
0
  6
Continuous
 62
     7
370
    25
100
AcDbLine
 10
470.1948078299
 20
331.8913264515
 30
0.0
 11
470.1948078299
 21
337.1413264515
 31
0.0
  0
LINE
  5
327
330
1F
100
AcDbEntity
  8
0
  6
Continuous
 62
     7
370
    25
100
AcDbLine
 10
460.4948078299
 20
331.5913264515
 30
0.0
 11
469.8948078299
 21
331.5913264515
 31
0.0
  0
LINE
  5
328
330
1F
100
AcDbEntity
  8
0
  6
Continuous
 62
     7
370
    25
100
AcDbLine
 10
460.4948078299
 20
331.5913264515
 30
0.0
 11
460.1948078299
 21
331.8913264515
 31
0.0
  0
LINE
  5
329
330
1F
100
AcDbEntity
  8
0
  6
Continuous
 62
     7
370
    25
100
AcDbLine
 10
460.1948078299
 20
331.8913264515
 30
0.0
 11
460.1948078299
 21
337.1413264515
 31
0.0
  0
LINE
  5
32A
330
1F
100
AcDbEntity
  8
0
  6
Continuous
 62
     7
370
    25
100
AcDbLine
 10
464.1948078299
 20
337.1413264515
 30
0.0
 11
460.1948078299
 21
337.1413264515
 31
0.0
  0
LINE
  5
32B
330
1F
100
AcDbEntity
  8
0
  6
Continuous
 62
     7
370
    25
100
AcDbLine
 10
464.1948078299
 20
337.1413264515
 30
0.0
 11
464.1948078299
 21
356.3719771453
 31
0.0
  0
LINE
  5
32C
330
1F
100
AcDbEntity
  8
0
  6
Continuous
 62
     7
370
    25
100
AcDbLine
 10
460.1948078299
 20
356.3719771453
 30
0.0
 11
464.1948078299
 21
356.3719771453
 31
0.0
  0
LINE
  5
32D
330
1F
100
AcDbEntity
  8
0
  6
Continuous
 62
     7
370
    25
100
AcDbLine
 10
460.1948078299
 20
356.3719771453
 30
0.0
 11
460.1948078299
 21
361.0328354873
 31
0.0
  0
LINE
  5
32E
330
1F
100
AcDbEntity
  8
0
  6
Continuous
 62
     7
370
    25
100
AcDbLine
 10
464.1948078299
 20
361.0328354873
 30
0.0
 11
460.1948078299
 21
361.0328354873
 31
0.0
  0
LINE
  5
32F
330
1F
100
AcDbEntity
  8
0
  6
Continuous
 62
     7
370
    25
100
AcDbLine
 10
464.1948078299
 20
361.0328354873
 30
0.0
 11
464.1948078299
 21
401.4413264515
 31
0.0
  0
LINE
  5
330
330
1F
100
AcDbEntity
  8
0
  6
Continuous
 62
     7
370
    25
100
AcDbLine
 10
460.1948078299
 20
401.4413264515
 30
0.0
 11
464.1948078299
 21
401.4413264515
 31
0.0
  0
LINE
  5
331
330
1F
100
AcDbEntity
  8
0
  6
Continuous
 62
     7
370
    25
100
AcDbLine
 10
460.1948078299
 20
401.4413264515
 30
0.0
 11
460.1948078299
 21
404.4413264515
 31
0.0
  0
LINE
  5
332
330
1F
100
AcDbEntity
  8
0
  6
Continuous
 62
     7
370
    25
100
AcDbLine
 10
460.1948078299
 20
404.4413264515
 30
0.0
 11
461.1948078299
 21
405.4413264515
 31
0.0
  0
LINE
  5
333
330
1F
100
AcDbEntity
  8
0
  6
Continuous
 62
     7
370
    25
100
AcDbLine
 10
469.1948078299
 20
405.4413264515
 30
0.0
 11
461.1948078299
 21
405.4413264515
 31
0.0
  0
LINE
  5
334
330
1F
100
AcDbEntity
  8
0
  6
Continuous
 62
     7
370
    25
100
AcDbLine
 10
469.1948078299
 20
405.4413264515
 30
0.0
 11
470.1948078299
 21
404.4413264515
 31
0.0
  0
LINE
  5
335
330
1F
100
AcDbEntity
  8
0
  6
Continuous
 62
     7
370
    25
100
AcDbLine
 10
470.1948078299
 20
401.4413264515
 30
0.0
 11
470.1948078299
 21
404.4413264515
 31
0.0
  0
LINE
  5
336
330
1F
100
AcDbEntity
  8
0
  6
Continuous
 62
     7
370
    25
100
AcDbLine
 10
466.1948078299
 20
401.4413264515
 30
0.0
 11
470.1948078299
 21
401.4413264515
 31
0.0
  0
LINE
  5
337
330
1F
100
AcDbEntity
  8
0
  6
Continuous
 62
     7
370
    25
100
AcDbLine
 10
466.1948078299
 20
372.8640996362
 30
0.0
 11
466.1948078299
 21
401.4413264515
 31
0.0
  0
LINE
  5
338
330
1F
100
AcDbEntity
  8
0
  6
Continuous
 62
     7
370
    25
100
AcDbLine
 10
470.1948078299
 20
372.8640996362
 30
0.0
 11
466.1948078299
 21
372.8640996362
 31
0.0
  0
LINE
  5
339
330
1F
100
AcDbEntity
  8
0
  6
Continuous
 62
     7
370
    25
100
AcDbLine
 10
470.1948078299
 20
368.3259920559
 30
0.0
 11
470.1948078299
 21
372.8640996362
 31
0.0
  0
LINE
  5
33A
330
1F
100
AcDbEntity
  8
0
  6
Continuous
 62
     7
370
    25
100
AcDbLine
 10
466.1948078299
 20
368.3259920559
 30
0.0
 11
470.1948078299
 21
368.3259920559
 31
0.0
  0
LINE
  5
33B
330
1F
100
AcDbEntity
  8
0
  6
Continuous
 62
     7
370
    25
100
AcDbLine
 10
466.1948078299
 20
368.3259920559
 30
0.0
 11
466.1948078299
 21
337.1413264515
 31
0.0
  0
LINE
  5
33C
330
1F
100
AcDbEntity
  8
0
  6
Continuous
 62
     7
370
    25
100
AcDbLine
 10
460.4948078299
 20
331.5913264515
 30
0.0
 11
460.4948078299
 21
326.2913264515
 31
0.0
  0
LINE
  5
33D
330
1F
100
AcDbEntity
  8
0
  6
Continuous
 62
     7
370
    25
100
AcDbLine
 10
464.1948078299
 20
340.857748495
 30
0.0
 11
460.1948078299
 21
340.857748495
 31
0.0
  0
LINE
  5
33E
330
1F
100
AcDbEntity
  8
0
  6
Continuous
 62
     7
370
    25
100
AcDbLine
 10
460.1948078299
 20
356.3719771453
 30
0.0
 11
460.1948078299
 21
340.857748495
 31
0.0
  0
LINE
  5
33F
330
1F
100
AcDbEntity
  8
0
  6
Continuous
 62
     7
370
    25
100
AcDbLine
 10
466.1948078299
 20
397.678477101
 30
0.0
 11
470.1948078299
 21
397.678477101
 31
0.0
  0
LINE
  5
340
330
1F
100
AcDbEntity
  8
0
  6
Continuous
 62
     7
370
    25
100
AcDbLine
 10
470.1948078299
 20
372.8640996362
 30
0.0
 11
470.1948078299
 21
397.678477101
 31
0.0
  0
LINE
  5
341
330
1F
100
AcDbEntity
  8
0
  6
Continuous
 62
     7
370
    25
100
AcDbLine
 10
460.1948078299
 20
325.9913264515
 30
0.0
 11
460.1948078299
 21
331.8913264515
 31
0.0
  0
LINE
  5
342
330
1F
100
AcDbEntity
  8
0
  6
Continuous
 62
     7
370
    25
100
AcDbLine
 10
460.1948078299
 20
340.857748495
 30
0.0
 11
460.1948078299
 21
337.1413264515
 31
0.0
  0
LINE
  5
343
330
1F
100
AcDbEntity
  8
0
  6
Continuous
 62
     7
370
    25
100
AcDbLine
 10
466.1948078299
 20
338.1413264515
 30
0.0
 11
470.1948078299
 21
338.1413264515
 31
0.0
  0
LINE
  5
344
330
1F
100
AcDbEntity
  8
0
  6
Continuous
 62
     7
370
    25
100
AcDbLine
 10
470.1948078299
 20
337.1413264515
 30
0.0
 11
470.1948078299
 21
338.1413264515
 31
0.0
  0
LINE
  5
345
330
1F
100
AcDbEntity
  8
0
  6
Continuous
 62
     7
370
    25
100
AcDbLine
 10
470.1948078299
 20
338.1413264515
 30
0.0
 11
470.1948078299
 21
368.3259920559
 31
0.0
  0
LINE
  5
346
330
1F
100
AcDbEntity
  8
0
  6
Continuous
 62
     7
370
    25
100
AcDbLine
 10
464.1948078299
 20
387.8669522937
 30
0.0
 11
460.1948078299
 21
387.8669522937
 31
0.0
  0
LINE
  5
347
330
1F
100
AcDbEntity
  8
0
  6
Continuous
 62
     7
370
    25
100
AcDbLine
 10
460.1948078299
 20
387.8669522937
 30
0.0
 11
460.1948078299
 21
361.0328354873
 31
0.0
  0
LINE
  5
348
330
1F
100
AcDbEntity
  8
0
  6
Continuous
 62
     7
370
    25
100
AcDbLine
 10
470.1948078299
 20
397.678477101
 30
0.0
 11
470.1948078299
 21
401.4413264515
 31
0.0
  0
LINE
  5
349
330
1F
100
AcDbEntity
  8
0
  6
Continuous
 62
     7
370
    25
100
AcDbLine
 10
464.1948078299
 20
399.4413264515
 30
0.0
 11
460.1948078299
 21
399.4413264515
 31
0.0
  0
LINE
  5
34A
330
1F
100
AcDbEntity
  8
0
  6
Continuous
 62
     7
370
    25
100
AcDbLine
 10
460.1948078299
 20
401.4413264515
 30
0.0
 11
460.1948078299
 21
399.4413264515
 31
0.0
  0
LINE
  5
34B
330
1F
100
AcDbEntity
  8
0
  6
Continuous
 62
     7
370
    25
100
AcDbLine
 10
464.1948078299
 20
388.8669522937
 30
0.0
 11
460.1948078299
 21
388.8669522937
 31
0.0
  0
LINE
  5
34C
330
1F
100
AcDbEntity
  8
0
  6
Continuous
 62
     7
370
    25
100
AcDbLine
 10
460.1948078299
 20
388.8669522937
 30
0.0
 11
460.1948078299
 21
387.8669522937
 31
0.0
  0
LINE
  5
34D
330
1F
100
AcDbEntity
  8
0
  6
Continuous
 62
     7
370
    25
100
AcDbLine
 10
460.1948078299
 20
399.4413264515
 30
0.0
 11
460.1948078299
 21
388.8669522937
 31
0.0
  0
HATCH
  5
34E
330
1F
100
AcDbEntity
  8
0
  6
Continuous
 62
     7
370
    18
100
AcDbHatch
 10
0.0
 20
0.0
 30
0.0
210
0.0
220
0.0
230
1.0
  2
ANSI31
 70
     0
 71
     0
 91
        1
 92
        0
 93
        8
 72
     1
 10
470.1948078298919
 20
325.991326451472
 11
469.8948078298919
 21
326.2913264514719
 72
     1
 10
469.8948078298919
 20
326.2913264514719
 11
460.4948078298918
 21
326.2913264514719
 72
     1
 10
460.4948078298918
 20
326.2913264514719
 11
460.1948078298919
 21
325.991326451472
 72
     1
 10
460.1948078298919
 20
325.991326451472
 11
460.1948078298919
 21
322.441326451472
 72
     1
 10
460.1948078298919
 20
322.441326451472
 11
461.1948078298919
 21
321.441326451472
 72
     1
 10
461.1948078298919
 20
321.441326451472
 11
469.1948078298918
 21
321.441326451472
 72
     1
 10
469.1948078298918
 20
321.441326451472
 11
470.1948078298919
 21
322.441326451472
 72
     1
 10
470.1948078298919
 20
322.441326451472
 11
470.1948078298919
 21
325.991326451472
 97
        0
 75
     0
 76
     1
 52
0.0
 41
2.0
 77
     0
 78
     1
 53
45.0
 43
0.0
 44
0.0
 45
-4.490128060534577
 46
4.490128060534577
 79
     0
 98
        1
 10
0.0
 20
0.0
  0
HATCH
  5
34F
330
1F
100
AcDbEntity
  8
0
  6
Continuous
 62
     7
370
    18
100
AcDbHatch
 10
0.0
 20
0.0
 30
0.0
210
0.0
220
0.0
230
1.0
  2
ANSI31
 70
     0
 71
     0
 91
        1
 92
        0
 93
       24
 72
     1
 10
466.1948078298919
 20
337.141326451472
 11
466.1948078298919
 21
368.3259920559381
 72
     1
 10
466.1948078298919
 20
368.3259920559381
 11
470.1948078298919
 21
368.3259920559381
 72
     1
 10
470.1948078298919
 20
368.3259920559381
 11
470.1948078298919
 21
372.8640996361784
 72
     1
 10
470.1948078298919
 20
372.8640996361784
 11
466.1948078298919
 21
372.8640996361784
 72
     1
 10
466.1948078298919
 20
372.8640996361784
 11
466.1948078298919
 21
401.441326451472
 72
     1
 10
466.1948078298919
 20
401.441326451472
 11
470.1948078298919
 21
401.441326451472
 72
     1
 10
470.1948078298919
 20
401.441326451472
 11
470.1948078298919
 21
404.441326451472
 72
     1
 10
470.1948078298919
 20
404.441326451472
 11
469.1948078298918
 21
405.441326451472
 72
     1
 10
469.1948078298918
 20
405.441326451472
 11
461.1948078298919
 21
405.441326451472
 72
     1
 10
461.1948078298919
 20
405.441326451472
 11
460.1948078298919
 21
404.441326451472
 72
     1
 10
460.1948078298919
 20
404.441326451472
 11
460.1948078298919
 21
401.441326451472
 72
     1
 10
460.1948078298919
 20
401.441326451472
 11
464.1948078298919
 21
401.441326451472
 72
     1
 10
464.1948078298919
 20
401.441326451472
 11
464.1948078298919
 21
361.032835487278
 72
     1
 10
464.1948078298919
 20
361.032835487278
 11
460.1948078298919
 21
361.032835487278
 72
     1
 10
460.1948078298919
 20
361.032835487278
 11
460.1948078298919
 21
356.3719771453412
 72
     1
 10
460.1948078298919
 20
356.3719771453412
 11
464.1948078298919
 21
356.3719771453412
 72
     1
 10
464.1948078298919
 20
356.3719771453412
 11
464.1948078298919
 21
337.141326451472
 72
     1
 10
464.1948078298919
 20
337.141326451472
 11
460.1948078298919
 21
337.141326451472
 72
     1
 10
460.1948078298919
 20
337.141326451472
 11
460.1948078298919
 21
331.8913264514719
 72
     1
 10
460.1948078298919
 20
331.8913264514719
 11
460.4948078298918
 21
331.591326451472
 72
     1
 10
460.4948078298918
 20
331.591326451472
 11
469.8948078298919
 21
331.591326451472
 72
     1
 10
469.8948078298919
 20
331.591326451472
 11
470.1948078298919
 21
331.891326451472
 72
     1
 10
470.1948078298919
 20
331.891326451472
 11
470.1948078298919
 21
337.141326451472
 72
     1
 10
470.1948078298919
 20
337.141326451472
 11
466.1948078298919
 21
337.141326451472
 97
        0
 75
     0
 76
     1
 52
0.0
 41
2.0
 77
     0
 78
     1
 53
45.0
 43
0.0
 44
0.0
 45
-4.490128060534577
 46
4.490128060534577
 79
     0
 98
        1
 10
0.0
 20
0.0
  0
DIMENSION
  5
350
330
1F
100
AcDbEntity
  8
0
  6
Continuous
 62
     7
370
    18
100
AcDbDimension
  2
_D_13
 10
466.1948078299
 20
379.9342297371
 30
0.0
 11
440.1948078299
 21
379.9342297371
 31
0.0
 70
   160
  1
(<>)
 71
     2
 42
-1.0
  3
SLDDIMSTYLE0
100
AcDbAlignedDimension
 13
464.1948078299
 23
401.4413264515
 33
0.0
 14
466.1948078299
 24
372.8640996362
 34
0.0
100
AcDbRotatedDimension
  0
MTEXT
  5
35C
330
1F
100
AcDbEntity
  8
0
  6
Continuous
 62
     7
370
     0
100
AcDbMText
 10
464.573038801
 20
306.6406813778
 30
0.0
 40
12.7
 41
0.0
 71
     2
 72
     1
  1
CrossSection
  7
SLDTEXTSTYLE0
 73
     1
 44
1.0
  0
MTEXT
  5
35D
330
1F
100
AcDbEntity
  8
0
  6
Continuous
 62
     7
370
     0
100
AcDbMText
 10
464.6163362438
 20
290.2416055017
 30
0.0
 40
7.0
 41
0.0
 71
     2
 72
     1
  1
A-A
  7
SLDTEXTSTYLE0
 73
     1
 44
1.0
  0
ENDSEC
  0
SECTION
  2
OBJECTS
  0
DICTIONARY
  5
C
330
0
100
AcDbDictionary
281
     1
  3
ACAD_GROUP
350
D
  3
ACAD_LAYOUT
350
1A
  3
ACAD_MLINESTYLE
350
17
  3
ACAD_PLOTSETTINGS
350
19
  3
ACAD_PLOTSTYLENAME
350
E
  3
ACAD_SCALELIST
350
47
  3
DWGPROPS
350
35E
  0
DICTIONARY
  5
D
102
{ACAD_REACTORS
330
C
102
}
330
C
100
AcDbDictionary
281
     1
  0
DICTIONARY
  5
1A
102
{ACAD_REACTORS
330
C
102
}
330
C
100
AcDbDictionary
281
     1
  3
Layout1
350
1E
  3
Layout2
350
26
  3
Model
350
22
  0
DICTIONARY
  5
17
102
{ACAD_REACTORS
330
C
102
}
330
C
100
AcDbDictionary
281
     1
  3
Standard
350
18
  0
DICTIONARY
  5
19
102
{ACAD_REACTORS
330
C
102
}
330
C
100
AcDbDictionary
281
     1
  0
ACDBDICTIONARYWDFLT
  5
E
102
{ACAD_REACTORS
330
C
102
}
330
C
100
AcDbDictionary
281
     1
  3
Normal
350
F
100
AcDbDictionaryWithDefault
340
F
  0
DICTIONARY
  5
47
102
{ACAD_REACTORS
330
C
102
}
330
C
100
AcDbDictionary
281
     1
  3
A0
350
48
  3
A1
350
49
  3
A2
350
4A
  3
A3
350
4B
  3
A4
350
4C
  3
A5
350
4D
  3
A6
350
4E
  3
A7
350
4F
  3
A8
350
50
  3
A9
350
51
  3
B0
350
52
  3
B1
350
53
  3
B2
350
54
  3
B3
350
55
  3
B4
350
56
  3
B5
350
57
  3
B6
350
58
  0
XRECORD
  5
35E
102
{ACAD_REACTORS
330
C
102
}
330
C
100
AcDbXrecord
280
     1
  1
DWGPROPS COOKIE
  2

  3

  4

  6

  7

  8
crono
  9

300
=
301
=
302
=
303
=
304
=
305
=
306
=
307
=
308
=
309
=
 40
0.0
 41
2460326.370292084
 42
2460326.370295
  1

 90
        0
  0
LAYOUT
  5
1E
102
{ACAD_REACTORS
330
1A
102
}
330
1A
100
AcDbPlotSettings
  1

  2
none_device
  4

  6

 40
0.0
 41
0.0
 42
0.0
 43
0.0
 44
0.0
 45
0.0
 46
0.0
 47
0.0
 48
0.0
 49
0.0
140
0.0
141
0.0
142
1.0
143
1.0
 70
   688
 72
     1
 73
     0
 74
     5
  7

 75
    16
147
1.0
148
0.0
149
0.0
100
AcDbLayout
  1
Layout1
 70
     1
 71
     1
 10
0.0
 20
0.0
 11
420.0
 21
297.0
 12
0.0
 22
0.0
 32
0.0
 14
1.0000000000E+20
 24
1.0000000000E+20
 34
1.0000000000E+20
 15
-1.0000000000E+20
 25
-1.0000000000E+20
 35
-1.0000000000E+20
146
0.0
 13
0.0
 23
0.0
 33
0.0
 16
1.0
 26
0.0
 36
0.0
 17
0.0
 27
1.0
 37
0.0
 76
     0
330
1B
  0
LAYOUT
  5
26
102
{ACAD_REACTORS
330
1A
102
}
330
1A
100
AcDbPlotSettings
  1

  2
none_device
  4

  6

 40
0.0
 41
0.0
 42
0.0
 43
0.0
 44
0.0
 45
0.0
 46
0.0
 47
0.0
 48
0.0
 49
0.0
140
0.0
141
0.0
142
1.0
143
1.0
 70
   688
 72
     1
 73
     0
 74
     5
  7

 75
    16
147
1.0
148
0.0
149
0.0
100
AcDbLayout
  1
Layout2
 70
     1
 71
     2
 10
0.0
 20
0.0
 11
0.0
 21
0.0
 12
0.0
 22
0.0
 32
0.0
 14
0.0
 24
0.0
 34
0.0
 15
0.0
 25
0.0
 35
0.0
146
0.0
 13
0.0
 23
0.0
 33
0.0
 16
1.0
 26
0.0
 36
0.0
 17
0.0
 27
1.0
 37
0.0
 76
     0
330
23
  0
LAYOUT
  5
22
102
{ACAD_REACTORS
330
1A
102
}
330
1A
100
AcDbPlotSettings
  1

  2
none_device
  4
Letter_(8.50_x_11.00_Inches)
  6

 40
6.35
 41
6.35
 42
6.35000508
 43
6.35000508
 44
215.9
 45
279.4
 46
0.0
 47
0.0
 48
0.0
 49
0.0
140
0.0
141
0.0
142
1.0
143
1.0
 70
  1712
 72
     1
 73
     0
 74
     0
  7

 75
     0
147
1.0
148
0.0
149
0.0
100
AcDbLayout
  1
Model
 70
     1
 71
     0
 10
0.0
 20
0.0
 11
840.0
 21
594.0
 12
0.0
 22
0.0
 32
0.0
 14
0.0
 24
0.0
 34
0.0
 15
840.0
 25
594.0
 35
0.0
146
0.0
 13
0.0
 23
0.0
 33
0.0
 16
1.0
 26
0.0
 36
0.0
 17
0.0
 27
1.0
 37
0.0
 76
     0
330
1F
331
29
  0
MLINESTYLE
  5
18
102
{ACAD_REACTORS
330
17
102
}
330
17
100
AcDbMlineStyle
  2
Standard
 70
     0
  3

 62
   256
 51
90.0
 52
90.0
 71
     2
 49
0.5
 62
   256
  6
BYLAYER
 49
-0.5
 62
   256
  6
BYLAYER
  0
ACDBPLACEHOLDER
  5
F
102
{ACAD_REACTORS
330
E
102
}
330
E
  0
SCALE
  5
48
102
{ACAD_REACTORS
330
47
102
}
330
47
100
AcDbScale
 70
     0
300
1:1
140
1.0
141
1.0
290
     1
  0
SCALE
  5
49
102
{ACAD_REACTORS
330
47
102
}
330
47
100
AcDbScale
 70
     0
300
1:2
140
1.0
141
2.0
290
     0
  0
SCALE
  5
4A
102
{ACAD_REACTORS
330
47
102
}
330
47
100
AcDbScale
 70
     0
300
1:4
140
1.0
141
4.0
290
     0
  0
SCALE
  5
4B
102
{ACAD_REACTORS
330
47
102
}
330
47
100
AcDbScale
 70
     0
300
1:5
140
1.0
141
5.0
290
     0
  0
SCALE
  5
4C
102
{ACAD_REACTORS
330
47
102
}
330
47
100
AcDbScale
 70
     0
300
1:8
140
1.0
141
8.0
290
     0
  0
SCALE
  5
4D
102
{ACAD_REACTORS
330
47
102
}
330
47
100
AcDbScale
 70
     0
300
1:10
140
1.0
141
10.0
290
     0
  0
SCALE
  5
4E
102
{ACAD_REACTORS
330
47
102
}
330
47
100
AcDbScale
 70
     0
300
1:16
140
1.0
141
16.0
290
     0
  0
SCALE
  5
4F
102
{ACAD_REACTORS
330
47
102
}
330
47
100
AcDbScale
 70
     0
300
1:20
140
1.0
141
20.0
290
     0
  0
SCALE
  5
50
102
{ACAD_REACTORS
330
47
102
}
330
47
100
AcDbScale
 70
     0
300
1:30
140
1.0
141
30.0
290
     0
  0
SCALE
  5
51
102
{ACAD_REACTORS
330
47
102
}
330
47
100
AcDbScale
 70
     0
300
1:40
140
1.0
141
40.0
290
     0
  0
SCALE
  5
52
102
{ACAD_REACTORS
330
47
102
}
330
47
100
AcDbScale
 70
     0
300
1:50
140
1.0
141
50.0
290
     0
  0
SCALE
  5
53
102
{ACAD_REACTORS
330
47
102
}
330
47
100
AcDbScale
 70
     0
300
1:100
140
1.0
141
100.0
290
     0
  0
SCALE
  5
54
102
{ACAD_REACTORS
330
47
102
}
330
47
100
AcDbScale
 70
     0
300
2:1
140
2.0
141
1.0
290
     0
  0
SCALE
  5
55
102
{ACAD_REACTORS
330
47
102
}
330
47
100
AcDbScale
 70
     0
300
4:1
140
4.0
141
1.0
290
     0
  0
SCALE
  5
56
102
{ACAD_REACTORS
330
47
102
}
330
47
100
AcDbScale
 70
     0
300
8:1
140
8.0
141
1.0
290
     0
  0
SCALE
  5
57
102
{ACAD_REACTORS
330
47
102
}
330
47
100
AcDbScale
 70
     0
300
10:1
140
10.0
141
1.0
290
     0
  0
SCALE
  5
58
102
{ACAD_REACTORS
330
47
102
}
330
47
100
AcDbScale
 70
     0
300
100:1
140
100.0
141
1.0
290
     0
  0
ENDSEC
  0
EOF
